<svg width="1100" height="500" viewBox="0 0 395 167" fill="none" xmlns="http://www.w3.org/2000/svg">
<path fill-rule="evenodd" clip-rule="evenodd" d="M0.399994 0.100006H394.5V166.1H383.4V10.3H0.399994V0.100006Z" fill="#3BAAD2"/>
<path fill-rule="evenodd" clip-rule="evenodd" d="M1.80001 3.69998C2.50001 3.69998 3.00001 3.19998 3.00001 2.49998C3.00001 1.79998 2.50001 1.29999 1.80001 1.29999C1.10001 1.29999 0.600006 1.79998 0.600006 2.49998C0.600006 3.19998 1.10001 3.69998 1.80001 3.69998Z" fill="white"/>
<path fill-rule="evenodd" clip-rule="evenodd" d="M6.9 3.69998C7.6 3.69998 8.09999 3.19998 8.09999 2.49998C8.09999 1.79998 7.6 1.29999 6.9 1.29999C6.2 1.29999 5.7 1.79998 5.7 2.49998C5.7 3.19998 6.2 3.69998 6.9 3.69998Z" fill="white"/>
<path fill-rule="evenodd" clip-rule="evenodd" d="M11.9 3.69998C12.6 3.69998 13.1 3.19998 13.1 2.49998C13.1 1.79998 12.6 1.29999 11.9 1.29999C11.2 1.29999 10.7 1.79998 10.7 2.49998C10.7 3.19998 11.3 3.69998 11.9 3.69998Z" fill="white"/>
<path fill-rule="evenodd" clip-rule="evenodd" d="M17 3.69998C17.7 3.69998 18.2 3.19998 18.2 2.49998C18.2 1.79998 17.7 1.29999 17 1.29999C16.3 1.29999 15.8 1.79998 15.8 2.49998C15.8 3.19998 16.3 3.69998 17 3.69998Z" fill="white"/>
<path fill-rule="evenodd" clip-rule="evenodd" d="M22 3.69998C22.7 3.69998 23.2 3.19998 23.2 2.49998C23.2 1.79998 22.7 1.29999 22 1.29999C21.3 1.29999 20.8 1.79998 20.8 2.49998C20.8 3.19998 21.4 3.69998 22 3.69998Z" fill="white"/>
<path fill-rule="evenodd" clip-rule="evenodd" d="M27.1 3.69998C27.8 3.69998 28.3 3.19998 28.3 2.49998C28.3 1.79998 27.8 1.29999 27.1 1.29999C26.4 1.29999 25.9 1.79998 25.9 2.49998C25.9 3.19998 26.5 3.69998 27.1 3.69998Z" fill="white"/>
<path fill-rule="evenodd" clip-rule="evenodd" d="M32.2 3.69998C32.9 3.69998 33.4 3.19998 33.4 2.49998C33.4 1.79998 32.9 1.29999 32.2 1.29999C31.5 1.29999 31 1.79998 31 2.49998C31 3.19998 31.5 3.69998 32.2 3.69998Z" fill="white"/>
<path fill-rule="evenodd" clip-rule="evenodd" d="M37.2 3.69998C37.9 3.69998 38.4 3.19998 38.4 2.49998C38.4 1.79998 37.9 1.29999 37.2 1.29999C36.5 1.29999 36 1.79998 36 2.49998C36 3.19998 36.6 3.69998 37.2 3.69998Z" fill="white"/>
<path fill-rule="evenodd" clip-rule="evenodd" d="M42.3 3.69998C43 3.69998 43.5 3.19998 43.5 2.49998C43.5 1.79998 43 1.29999 42.3 1.29999C41.6 1.29999 41.1 1.79998 41.1 2.49998C41.1 3.19998 41.6 3.69998 42.3 3.69998Z" fill="white"/>
<path fill-rule="evenodd" clip-rule="evenodd" d="M47.4 3.69998C48.1 3.69998 48.6 3.19998 48.6 2.49998C48.6 1.79998 48.1 1.29999 47.4 1.29999C46.7 1.29999 46.2 1.79998 46.2 2.49998C46.2 3.19998 46.7 3.69998 47.4 3.69998Z" fill="white"/>
<path fill-rule="evenodd" clip-rule="evenodd" d="M52.4 3.69998C53.1 3.69998 53.6 3.19998 53.6 2.49998C53.6 1.79998 53.1 1.29999 52.4 1.29999C51.7 1.29999 51.2 1.79998 51.2 2.49998C51.2 3.19998 51.8 3.69998 52.4 3.69998Z" fill="white"/>
<path fill-rule="evenodd" clip-rule="evenodd" d="M57.5 3.69998C58.2 3.69998 58.7 3.19998 58.7 2.49998C58.7 1.79998 58.2 1.29999 57.5 1.29999C56.8 1.29999 56.3 1.79998 56.3 2.49998C56.3 3.19998 56.8 3.69998 57.5 3.69998Z" fill="white"/>
<path fill-rule="evenodd" clip-rule="evenodd" d="M62.5 3.69998C63.2 3.69998 63.7 3.19998 63.7 2.49998C63.7 1.79998 63.2 1.29999 62.5 1.29999C61.8 1.29999 61.3 1.79998 61.3 2.49998C61.3 3.19998 61.9 3.69998 62.5 3.69998Z" fill="white"/>
<path fill-rule="evenodd" clip-rule="evenodd" d="M67.6 3.69998C68.3 3.69998 68.8 3.19998 68.8 2.49998C68.8 1.79998 68.3 1.29999 67.6 1.29999C66.9 1.29999 66.4 1.79998 66.4 2.49998C66.4 3.19998 67 3.69998 67.6 3.69998Z" fill="white"/>
<path fill-rule="evenodd" clip-rule="evenodd" d="M72.7 3.69998C73.4 3.69998 73.9 3.19998 73.9 2.49998C73.9 1.79998 73.4 1.29999 72.7 1.29999C72 1.29999 71.5 1.79998 71.5 2.49998C71.5 3.19998 72 3.69998 72.7 3.69998Z" fill="white"/>
<path fill-rule="evenodd" clip-rule="evenodd" d="M77.7 3.69998C78.4 3.69998 78.9 3.19998 78.9 2.49998C78.9 1.79998 78.4 1.29999 77.7 1.29999C77 1.29999 76.5 1.79998 76.5 2.49998C76.5 3.19998 77.1 3.69998 77.7 3.69998Z" fill="white"/>
<path fill-rule="evenodd" clip-rule="evenodd" d="M82.8 3.69998C83.5 3.69998 84 3.19998 84 2.49998C84 1.79998 83.5 1.29999 82.8 1.29999C82.1 1.29999 81.6 1.79998 81.6 2.49998C81.6 3.19998 82.1 3.69998 82.8 3.69998Z" fill="white"/>
<path fill-rule="evenodd" clip-rule="evenodd" d="M87.9 3.69998C88.6 3.69998 89.1 3.19998 89.1 2.49998C89.1 1.79998 88.6 1.29999 87.9 1.29999C87.2 1.29999 86.7 1.79998 86.7 2.49998C86.7 3.19998 87.2 3.69998 87.9 3.69998Z" fill="white"/>
<path fill-rule="evenodd" clip-rule="evenodd" d="M92.9 3.69998C93.6 3.69998 94.1 3.19998 94.1 2.49998C94.1 1.79998 93.6 1.29999 92.9 1.29999C92.2 1.29999 91.7 1.79998 91.7 2.49998C91.7 3.19998 92.3 3.69998 92.9 3.69998Z" fill="white"/>
<path fill-rule="evenodd" clip-rule="evenodd" d="M98 3.69998C98.7 3.69998 99.2 3.19998 99.2 2.49998C99.2 1.79998 98.7 1.29999 98 1.29999C97.3 1.29999 96.8 1.79998 96.8 2.49998C96.8 3.19998 97.3 3.69998 98 3.69998Z" fill="white"/>
<path fill-rule="evenodd" clip-rule="evenodd" d="M103 3.69998C103.7 3.69998 104.2 3.19998 104.2 2.49998C104.2 1.79998 103.7 1.29999 103 1.29999C102.3 1.29999 101.8 1.79998 101.8 2.49998C101.8 3.19998 102.4 3.69998 103 3.69998Z" fill="white"/>
<path fill-rule="evenodd" clip-rule="evenodd" d="M108.1 3.69998C108.8 3.69998 109.3 3.19998 109.3 2.49998C109.3 1.79998 108.8 1.29999 108.1 1.29999C107.4 1.29999 106.9 1.79998 106.9 2.49998C106.9 3.19998 107.5 3.69998 108.1 3.69998Z" fill="white"/>
<path fill-rule="evenodd" clip-rule="evenodd" d="M113.2 3.69998C113.9 3.69998 114.4 3.19998 114.4 2.49998C114.4 1.79998 113.9 1.29999 113.2 1.29999C112.5 1.29999 112 1.79998 112 2.49998C112 3.19998 112.5 3.69998 113.2 3.69998Z" fill="white"/>
<path fill-rule="evenodd" clip-rule="evenodd" d="M118.2 3.69998C118.9 3.69998 119.4 3.19998 119.4 2.49998C119.4 1.79998 118.9 1.29999 118.2 1.29999C117.5 1.29999 117 1.79998 117 2.49998C117 3.19998 117.6 3.69998 118.2 3.69998Z" fill="white"/>
<path fill-rule="evenodd" clip-rule="evenodd" d="M123.3 3.69998C124 3.69998 124.5 3.19998 124.5 2.49998C124.5 1.79998 124 1.29999 123.3 1.29999C122.6 1.29999 122.1 1.79998 122.1 2.49998C122.1 3.19998 122.6 3.69998 123.3 3.69998Z" fill="white"/>
<path fill-rule="evenodd" clip-rule="evenodd" d="M128.4 3.69998C129.1 3.69998 129.6 3.19998 129.6 2.49998C129.6 1.79998 129.1 1.29999 128.4 1.29999C127.7 1.29999 127.2 1.79998 127.2 2.49998C127.2 3.19998 127.7 3.69998 128.4 3.69998Z" fill="white"/>
<path fill-rule="evenodd" clip-rule="evenodd" d="M133.4 3.69998C134.1 3.69998 134.6 3.19998 134.6 2.49998C134.6 1.79998 134.1 1.29999 133.4 1.29999C132.7 1.29999 132.2 1.79998 132.2 2.49998C132.2 3.19998 132.8 3.69998 133.4 3.69998Z" fill="white"/>
<path fill-rule="evenodd" clip-rule="evenodd" d="M138.5 3.69998C139.2 3.69998 139.7 3.19998 139.7 2.49998C139.7 1.79998 139.2 1.29999 138.5 1.29999C137.8 1.29999 137.3 1.79998 137.3 2.49998C137.3 3.19998 137.8 3.69998 138.5 3.69998Z" fill="white"/>
<path fill-rule="evenodd" clip-rule="evenodd" d="M143.5 3.69998C144.2 3.69998 144.7 3.19998 144.7 2.49998C144.7 1.79998 144.2 1.29999 143.5 1.29999C142.8 1.29999 142.3 1.79998 142.3 2.49998C142.3 3.19998 142.9 3.69998 143.5 3.69998Z" fill="white"/>
<path fill-rule="evenodd" clip-rule="evenodd" d="M148.6 3.69998C149.3 3.69998 149.8 3.19998 149.8 2.49998C149.8 1.79998 149.3 1.29999 148.6 1.29999C147.9 1.29999 147.4 1.79998 147.4 2.49998C147.4 3.19998 148 3.69998 148.6 3.69998Z" fill="white"/>
<path fill-rule="evenodd" clip-rule="evenodd" d="M153.7 3.69998C154.4 3.69998 154.9 3.19998 154.9 2.49998C154.9 1.79998 154.4 1.29999 153.7 1.29999C153 1.29999 152.5 1.79998 152.5 2.49998C152.5 3.19998 153 3.69998 153.7 3.69998Z" fill="white"/>
<path fill-rule="evenodd" clip-rule="evenodd" d="M158.7 3.69998C159.4 3.69998 159.9 3.19998 159.9 2.49998C159.9 1.79998 159.4 1.29999 158.7 1.29999C158 1.29999 157.5 1.79998 157.5 2.49998C157.5 3.19998 158.1 3.69998 158.7 3.69998Z" fill="white"/>
<path fill-rule="evenodd" clip-rule="evenodd" d="M163.8 3.69998C164.5 3.69998 165 3.19998 165 2.49998C165 1.79998 164.5 1.29999 163.8 1.29999C163.1 1.29999 162.6 1.79998 162.6 2.49998C162.6 3.19998 163.1 3.69998 163.8 3.69998Z" fill="white"/>
<path fill-rule="evenodd" clip-rule="evenodd" d="M168.9 3.69998C169.6 3.69998 170.1 3.19998 170.1 2.49998C170.1 1.79998 169.6 1.29999 168.9 1.29999C168.2 1.29999 167.7 1.79998 167.7 2.49998C167.7 3.19998 168.2 3.69998 168.9 3.69998Z" fill="white"/>
<path fill-rule="evenodd" clip-rule="evenodd" d="M173.9 3.69998C174.6 3.69998 175.1 3.19998 175.1 2.49998C175.1 1.79998 174.6 1.29999 173.9 1.29999C173.2 1.29999 172.7 1.79998 172.7 2.49998C172.7 3.19998 173.3 3.69998 173.9 3.69998Z" fill="white"/>
<path fill-rule="evenodd" clip-rule="evenodd" d="M179 3.69998C179.7 3.69998 180.2 3.19998 180.2 2.49998C180.2 1.79998 179.7 1.29999 179 1.29999C178.3 1.29999 177.8 1.79998 177.8 2.49998C177.8 3.19998 178.3 3.69998 179 3.69998Z" fill="white"/>
<path fill-rule="evenodd" clip-rule="evenodd" d="M184.1 3.69998C184.8 3.69998 185.3 3.19998 185.3 2.49998C185.3 1.79998 184.8 1.29999 184.1 1.29999C183.4 1.29999 182.9 1.79998 182.9 2.49998C182.9 3.19998 183.4 3.69998 184.1 3.69998Z" fill="white"/>
<path fill-rule="evenodd" clip-rule="evenodd" d="M189.1 3.69998C189.8 3.69998 190.3 3.19998 190.3 2.49998C190.3 1.79998 189.8 1.29999 189.1 1.29999C188.4 1.29999 187.9 1.79998 187.9 2.49998C187.9 3.19998 188.5 3.69998 189.1 3.69998Z" fill="white"/>
<path fill-rule="evenodd" clip-rule="evenodd" d="M194.2 3.69998C194.9 3.69998 195.4 3.19998 195.4 2.49998C195.4 1.79998 194.9 1.29999 194.2 1.29999C193.5 1.29999 193 1.79998 193 2.49998C193 3.19998 193.5 3.69998 194.2 3.69998Z" fill="white"/>
<path fill-rule="evenodd" clip-rule="evenodd" d="M199.2 3.69998C199.9 3.69998 200.4 3.19998 200.4 2.49998C200.4 1.79998 199.9 1.29999 199.2 1.29999C198.5 1.29999 198 1.79998 198 2.49998C198 3.19998 198.6 3.69998 199.2 3.69998Z" fill="white"/>
<path fill-rule="evenodd" clip-rule="evenodd" d="M204.3 3.69998C205 3.69998 205.5 3.19998 205.5 2.49998C205.5 1.79998 205 1.29999 204.3 1.29999C203.6 1.29999 203.1 1.79998 203.1 2.49998C203.1 3.19998 203.6 3.69998 204.3 3.69998Z" fill="white"/>
<path fill-rule="evenodd" clip-rule="evenodd" d="M209.4 3.69998C210.1 3.69998 210.6 3.19998 210.6 2.49998C210.6 1.79998 210.1 1.29999 209.4 1.29999C208.7 1.29999 208.2 1.79998 208.2 2.49998C208.2 3.19998 208.7 3.69998 209.4 3.69998Z" fill="white"/>
<path fill-rule="evenodd" clip-rule="evenodd" d="M214.4 3.69998C215.1 3.69998 215.6 3.19998 215.6 2.49998C215.6 1.79998 215.1 1.29999 214.4 1.29999C213.7 1.29999 213.2 1.79998 213.2 2.49998C213.2 3.19998 213.8 3.69998 214.4 3.69998Z" fill="white"/>
<path fill-rule="evenodd" clip-rule="evenodd" d="M219.5 3.69998C220.2 3.69998 220.7 3.19998 220.7 2.49998C220.7 1.79998 220.2 1.29999 219.5 1.29999C218.8 1.29999 218.3 1.79998 218.3 2.49998C218.3 3.19998 218.8 3.69998 219.5 3.69998Z" fill="white"/>
<path fill-rule="evenodd" clip-rule="evenodd" d="M224.6 3.69998C225.3 3.69998 225.8 3.19998 225.8 2.49998C225.8 1.79998 225.3 1.29999 224.6 1.29999C223.9 1.29999 223.4 1.79998 223.4 2.49998C223.4 3.19998 223.9 3.69998 224.6 3.69998Z" fill="white"/>
<path fill-rule="evenodd" clip-rule="evenodd" d="M229.6 3.69998C230.3 3.69998 230.8 3.19998 230.8 2.49998C230.8 1.79998 230.3 1.29999 229.6 1.29999C228.9 1.29999 228.4 1.79998 228.4 2.49998C228.4 3.19998 229 3.69998 229.6 3.69998Z" fill="white"/>
<path fill-rule="evenodd" clip-rule="evenodd" d="M234.7 3.69998C235.4 3.69998 235.9 3.19998 235.9 2.49998C235.9 1.79998 235.4 1.29999 234.7 1.29999C234 1.29999 233.5 1.79998 233.5 2.49998C233.5 3.19998 234 3.69998 234.7 3.69998Z" fill="white"/>
<path fill-rule="evenodd" clip-rule="evenodd" d="M239.7 3.69998C240.4 3.69998 240.9 3.19998 240.9 2.49998C240.9 1.79998 240.4 1.29999 239.7 1.29999C239 1.29999 238.5 1.79998 238.5 2.49998C238.5 3.19998 239.1 3.69998 239.7 3.69998Z" fill="white"/>
<path fill-rule="evenodd" clip-rule="evenodd" d="M244.8 3.69998C245.5 3.69998 246 3.19998 246 2.49998C246 1.79998 245.5 1.29999 244.8 1.29999C244.1 1.29999 243.6 1.79998 243.6 2.49998C243.6 3.19998 244.2 3.69998 244.8 3.69998Z" fill="white"/>
<path fill-rule="evenodd" clip-rule="evenodd" d="M249.9 3.69998C250.6 3.69998 251.1 3.19998 251.1 2.49998C251.1 1.79998 250.6 1.29999 249.9 1.29999C249.2 1.29999 248.7 1.79998 248.7 2.49998C248.7 3.19998 249.2 3.69998 249.9 3.69998Z" fill="white"/>
<path fill-rule="evenodd" clip-rule="evenodd" d="M254.9 3.69998C255.6 3.69998 256.1 3.19998 256.1 2.49998C256.1 1.79998 255.6 1.29999 254.9 1.29999C254.2 1.29999 253.7 1.79998 253.7 2.49998C253.7 3.19998 254.3 3.69998 254.9 3.69998Z" fill="white"/>
<path fill-rule="evenodd" clip-rule="evenodd" d="M260 3.69998C260.7 3.69998 261.2 3.19998 261.2 2.49998C261.2 1.79998 260.7 1.29999 260 1.29999C259.3 1.29999 258.8 1.79998 258.8 2.49998C258.8 3.19998 259.3 3.69998 260 3.69998Z" fill="white"/>
<path fill-rule="evenodd" clip-rule="evenodd" d="M265.1 3.69998C265.8 3.69998 266.3 3.19998 266.3 2.49998C266.3 1.79998 265.8 1.29999 265.1 1.29999C264.4 1.29999 263.9 1.79998 263.9 2.49998C263.9 3.19998 264.4 3.69998 265.1 3.69998Z" fill="white"/>
<path fill-rule="evenodd" clip-rule="evenodd" d="M270.1 3.69998C270.8 3.69998 271.3 3.19998 271.3 2.49998C271.3 1.79998 270.8 1.29999 270.1 1.29999C269.4 1.29999 268.9 1.79998 268.9 2.49998C268.9 3.19998 269.5 3.69998 270.1 3.69998Z" fill="white"/>
<path fill-rule="evenodd" clip-rule="evenodd" d="M275.2 3.69998C275.9 3.69998 276.4 3.19998 276.4 2.49998C276.4 1.79998 275.9 1.29999 275.2 1.29999C274.5 1.29999 274 1.79998 274 2.49998C274 3.19998 274.5 3.69998 275.2 3.69998Z" fill="white"/>
<path fill-rule="evenodd" clip-rule="evenodd" d="M280.2 3.69998C280.9 3.69998 281.4 3.19998 281.4 2.49998C281.4 1.79998 280.9 1.29999 280.2 1.29999C279.5 1.29999 279 1.79998 279 2.49998C279 3.19998 279.6 3.69998 280.2 3.69998Z" fill="white"/>
<path fill-rule="evenodd" clip-rule="evenodd" d="M285.3 3.69998C286 3.69998 286.5 3.19998 286.5 2.49998C286.5 1.79998 286 1.29999 285.3 1.29999C284.6 1.29999 284.1 1.79998 284.1 2.49998C284.1 3.19998 284.7 3.69998 285.3 3.69998Z" fill="white"/>
<path fill-rule="evenodd" clip-rule="evenodd" d="M290.4 3.69998C291.1 3.69998 291.6 3.19998 291.6 2.49998C291.6 1.79998 291.1 1.29999 290.4 1.29999C289.7 1.29999 289.2 1.79998 289.2 2.49998C289.2 3.19998 289.7 3.69998 290.4 3.69998Z" fill="white"/>
<path fill-rule="evenodd" clip-rule="evenodd" d="M295.4 3.69998C296.1 3.69998 296.6 3.19998 296.6 2.49998C296.6 1.79998 296.1 1.29999 295.4 1.29999C294.7 1.29999 294.2 1.79998 294.2 2.49998C294.2 3.19998 294.8 3.69998 295.4 3.69998Z" fill="white"/>
<path fill-rule="evenodd" clip-rule="evenodd" d="M300.5 3.69998C301.2 3.69998 301.7 3.19998 301.7 2.49998C301.7 1.79998 301.2 1.29999 300.5 1.29999C299.8 1.29999 299.3 1.79998 299.3 2.49998C299.3 3.19998 299.8 3.69998 300.5 3.69998Z" fill="white"/>
<path fill-rule="evenodd" clip-rule="evenodd" d="M305.6 3.69998C306.3 3.69998 306.8 3.19998 306.8 2.49998C306.8 1.79998 306.3 1.29999 305.6 1.29999C304.9 1.29999 304.4 1.79998 304.4 2.49998C304.4 3.19998 304.9 3.69998 305.6 3.69998Z" fill="white"/>
<path fill-rule="evenodd" clip-rule="evenodd" d="M310.6 3.69998C311.3 3.69998 311.8 3.19998 311.8 2.49998C311.8 1.79998 311.3 1.29999 310.6 1.29999C309.9 1.29999 309.4 1.79998 309.4 2.49998C309.4 3.19998 310 3.69998 310.6 3.69998Z" fill="white"/>
<path fill-rule="evenodd" clip-rule="evenodd" d="M315.7 3.69998C316.4 3.69998 316.9 3.19998 316.9 2.49998C316.9 1.79998 316.4 1.29999 315.7 1.29999C315 1.29999 314.5 1.79998 314.5 2.49998C314.5 3.19998 315 3.69998 315.7 3.69998Z" fill="white"/>
<path fill-rule="evenodd" clip-rule="evenodd" d="M320.7 3.69998C321.4 3.69998 321.9 3.19998 321.9 2.49998C321.9 1.79998 321.4 1.29999 320.7 1.29999C320 1.29999 319.5 1.79998 319.5 2.49998C319.5 3.19998 320.1 3.69998 320.7 3.69998Z" fill="white"/>
<path fill-rule="evenodd" clip-rule="evenodd" d="M325.8 3.69998C326.5 3.69998 327 3.19998 327 2.49998C327 1.79998 326.5 1.29999 325.8 1.29999C325.1 1.29999 324.6 1.79998 324.6 2.49998C324.6 3.19998 325.2 3.69998 325.8 3.69998Z" fill="white"/>
<path fill-rule="evenodd" clip-rule="evenodd" d="M330.9 3.69998C331.6 3.69998 332.1 3.19998 332.1 2.49998C332.1 1.79998 331.6 1.29999 330.9 1.29999C330.2 1.29999 329.7 1.79998 329.7 2.49998C329.7 3.19998 330.2 3.69998 330.9 3.69998Z" fill="white"/>
<path fill-rule="evenodd" clip-rule="evenodd" d="M335.9 3.69998C336.6 3.69998 337.1 3.19998 337.1 2.49998C337.1 1.79998 336.6 1.29999 335.9 1.29999C335.2 1.29999 334.7 1.79998 334.7 2.49998C334.7 3.19998 335.3 3.69998 335.9 3.69998Z" fill="white"/>
<path fill-rule="evenodd" clip-rule="evenodd" d="M341 3.69998C341.7 3.69998 342.2 3.19998 342.2 2.49998C342.2 1.79998 341.7 1.29999 341 1.29999C340.3 1.29999 339.8 1.79998 339.8 2.49998C339.8 3.19998 340.3 3.69998 341 3.69998Z" fill="white"/>
<path fill-rule="evenodd" clip-rule="evenodd" d="M346.1 3.69998C346.8 3.69998 347.3 3.19998 347.3 2.49998C347.3 1.79998 346.8 1.29999 346.1 1.29999C345.4 1.29999 344.9 1.79998 344.9 2.49998C344.9 3.19998 345.4 3.69998 346.1 3.69998Z" fill="white"/>
<path fill-rule="evenodd" clip-rule="evenodd" d="M351.1 3.69998C351.8 3.69998 352.3 3.19998 352.3 2.49998C352.3 1.79998 351.8 1.29999 351.1 1.29999C350.4 1.29999 349.9 1.79998 349.9 2.49998C349.9 3.19998 350.5 3.69998 351.1 3.69998Z" fill="white"/>
<path fill-rule="evenodd" clip-rule="evenodd" d="M356.2 3.69998C356.9 3.69998 357.4 3.19998 357.4 2.49998C357.4 1.79998 356.9 1.29999 356.2 1.29999C355.5 1.29999 355 1.79998 355 2.49998C355 3.19998 355.5 3.69998 356.2 3.69998Z" fill="white"/>
<path fill-rule="evenodd" clip-rule="evenodd" d="M361.2 3.69998C361.9 3.69998 362.4 3.19998 362.4 2.49998C362.4 1.79998 361.9 1.29999 361.2 1.29999C360.5 1.29999 360 1.79998 360 2.49998C360 3.19998 360.6 3.69998 361.2 3.69998Z" fill="white"/>
<path fill-rule="evenodd" clip-rule="evenodd" d="M366.3 3.69998C367 3.69998 367.5 3.19998 367.5 2.49998C367.5 1.79998 367 1.29999 366.3 1.29999C365.6 1.29999 365.1 1.79998 365.1 2.49998C365.1 3.19998 365.7 3.69998 366.3 3.69998Z" fill="white"/>
<path fill-rule="evenodd" clip-rule="evenodd" d="M371.4 3.69998C372.1 3.69998 372.6 3.19998 372.6 2.49998C372.6 1.79998 372.1 1.29999 371.4 1.29999C370.7 1.29999 370.2 1.79998 370.2 2.49998C370.2 3.19998 370.7 3.69998 371.4 3.69998Z" fill="white"/>
<path fill-rule="evenodd" clip-rule="evenodd" d="M376.4 3.69998C377.1 3.69998 377.6 3.19998 377.6 2.49998C377.6 1.79998 377.1 1.29999 376.4 1.29999C375.7 1.29999 375.2 1.79998 375.2 2.49998C375.2 3.19998 375.8 3.69998 376.4 3.69998Z" fill="white"/>
<path fill-rule="evenodd" clip-rule="evenodd" d="M381.5 3.69998C382.2 3.69998 382.7 3.19998 382.7 2.49998C382.7 1.79998 382.2 1.29999 381.5 1.29999C380.8 1.29999 380.3 1.79998 380.3 2.49998C380.3 3.19998 380.8 3.69998 381.5 3.69998Z" fill="white"/>
<path fill-rule="evenodd" clip-rule="evenodd" d="M386.6 3.69998C387.3 3.69998 387.8 3.19998 387.8 2.49998C387.8 1.79998 387.3 1.29999 386.6 1.29999C385.9 1.29999 385.4 1.79998 385.4 2.49998C385.4 3.19998 385.9 3.69998 386.6 3.69998Z" fill="white"/>
<path fill-rule="evenodd" clip-rule="evenodd" d="M391.6 3.69998C392.3 3.69998 392.8 3.19998 392.8 2.49998C392.8 1.79998 392.3 1.29999 391.6 1.29999C390.9 1.29999 390.4 1.79998 390.4 2.49998C390.4 3.19998 391 3.69998 391.6 3.69998Z" fill="white"/>
<path fill-rule="evenodd" clip-rule="evenodd" d="M1.80001 7.5C2.50001 7.5 3.00001 7 3.00001 6.3C3.00001 5.6 2.50001 5.10001 1.80001 5.10001C1.10001 5.10001 0.600006 5.6 0.600006 6.3C0.600006 6.9 1.10001 7.5 1.80001 7.5Z" fill="white"/>
<path fill-rule="evenodd" clip-rule="evenodd" d="M6.9 7.5C7.6 7.5 8.09999 7 8.09999 6.3C8.09999 5.6 7.6 5.10001 6.9 5.10001C6.2 5.10001 5.7 5.6 5.7 6.3C5.7 6.9 6.2 7.5 6.9 7.5Z" fill="white"/>
<path fill-rule="evenodd" clip-rule="evenodd" d="M11.9 7.5C12.6 7.5 13.1 7 13.1 6.3C13.1 5.6 12.6 5.10001 11.9 5.10001C11.2 5.10001 10.7 5.6 10.7 6.3C10.7 6.9 11.3 7.5 11.9 7.5Z" fill="white"/>
<path fill-rule="evenodd" clip-rule="evenodd" d="M17 7.5C17.7 7.5 18.2 7 18.2 6.3C18.2 5.6 17.7 5.10001 17 5.10001C16.3 5.10001 15.8 5.6 15.8 6.3C15.8 6.9 16.3 7.5 17 7.5Z" fill="white"/>
<path fill-rule="evenodd" clip-rule="evenodd" d="M22 7.5C22.7 7.5 23.2 7 23.2 6.3C23.2 5.6 22.7 5.10001 22 5.10001C21.3 5.10001 20.8 5.6 20.8 6.3C20.9 6.9 21.4 7.5 22 7.5Z" fill="white"/>
<path fill-rule="evenodd" clip-rule="evenodd" d="M27.1 7.5C27.8 7.5 28.3 7 28.3 6.3C28.3 5.6 27.8 5.10001 27.1 5.10001C26.4 5.10001 25.9 5.6 25.9 6.3C25.9 6.9 26.5 7.5 27.1 7.5Z" fill="white"/>
<path fill-rule="evenodd" clip-rule="evenodd" d="M32.2 7.5C32.9 7.5 33.4 7 33.4 6.3C33.4 5.6 32.9 5.10001 32.2 5.10001C31.5 5.10001 31 5.6 31 6.3C31 6.9 31.5 7.5 32.2 7.5Z" fill="white"/>
<path fill-rule="evenodd" clip-rule="evenodd" d="M37.2 7.5C37.9 7.5 38.4 7 38.4 6.3C38.4 5.6 37.9 5.10001 37.2 5.10001C36.5 5.10001 36 5.6 36 6.3C36 6.9 36.6 7.5 37.2 7.5Z" fill="white"/>
<path fill-rule="evenodd" clip-rule="evenodd" d="M42.3 7.5C43 7.5 43.5 7 43.5 6.3C43.5 5.6 43 5.10001 42.3 5.10001C41.6 5.10001 41.1 5.6 41.1 6.3C41.1 6.9 41.6 7.5 42.3 7.5Z" fill="white"/>
<path fill-rule="evenodd" clip-rule="evenodd" d="M47.4 7.5C48.1 7.5 48.6 7 48.6 6.3C48.6 5.6 48.1 5.10001 47.4 5.10001C46.7 5.10001 46.2 5.6 46.2 6.3C46.2 6.9 46.7 7.5 47.4 7.5Z" fill="white"/>
<path fill-rule="evenodd" clip-rule="evenodd" d="M52.4 7.5C53.1 7.5 53.6 7 53.6 6.3C53.6 5.6 53.1 5.10001 52.4 5.10001C51.7 5.10001 51.2 5.6 51.2 6.3C51.2 6.9 51.8 7.5 52.4 7.5Z" fill="white"/>
<path fill-rule="evenodd" clip-rule="evenodd" d="M57.5 7.5C58.2 7.5 58.7 7 58.7 6.3C58.7 5.6 58.2 5.10001 57.5 5.10001C56.8 5.10001 56.3 5.6 56.3 6.3C56.3 6.9 56.8 7.5 57.5 7.5Z" fill="white"/>
<path fill-rule="evenodd" clip-rule="evenodd" d="M62.5 7.5C63.2 7.5 63.7 7 63.7 6.3C63.7 5.6 63.2 5.10001 62.5 5.10001C61.8 5.10001 61.3 5.6 61.3 6.3C61.4 6.9 61.9 7.5 62.5 7.5Z" fill="white"/>
<path fill-rule="evenodd" clip-rule="evenodd" d="M67.6 7.5C68.3 7.5 68.8 7 68.8 6.3C68.8 5.6 68.3 5.10001 67.6 5.10001C66.9 5.10001 66.4 5.6 66.4 6.3C66.4 6.9 67 7.5 67.6 7.5Z" fill="white"/>
<path fill-rule="evenodd" clip-rule="evenodd" d="M72.7 7.5C73.4 7.5 73.9 7 73.9 6.3C73.9 5.6 73.4 5.10001 72.7 5.10001C72 5.10001 71.5 5.6 71.5 6.3C71.5 6.9 72 7.5 72.7 7.5Z" fill="white"/>
<path fill-rule="evenodd" clip-rule="evenodd" d="M77.7 7.5C78.4 7.5 78.9 7 78.9 6.3C78.9 5.6 78.4 5.10001 77.7 5.10001C77 5.10001 76.5 5.6 76.5 6.3C76.6 6.9 77.1 7.5 77.7 7.5Z" fill="white"/>
<path fill-rule="evenodd" clip-rule="evenodd" d="M82.8 7.5C83.5 7.5 84 7 84 6.3C84 5.6 83.5 5.10001 82.8 5.10001C82.1 5.10001 81.6 5.6 81.6 6.3C81.6 6.9 82.1 7.5 82.8 7.5Z" fill="white"/>
<path fill-rule="evenodd" clip-rule="evenodd" d="M87.9 7.5C88.6 7.5 89.1 7 89.1 6.3C89.1 5.6 88.6 5.10001 87.9 5.10001C87.2 5.10001 86.7 5.6 86.7 6.3C86.7 6.9 87.2 7.5 87.9 7.5Z" fill="white"/>
<path fill-rule="evenodd" clip-rule="evenodd" d="M92.9 7.5C93.6 7.5 94.1 7 94.1 6.3C94.1 5.6 93.6 5.10001 92.9 5.10001C92.2 5.10001 91.7 5.6 91.7 6.3C91.7 6.9 92.3 7.5 92.9 7.5Z" fill="white"/>
<path fill-rule="evenodd" clip-rule="evenodd" d="M98 7.5C98.7 7.5 99.2 7 99.2 6.3C99.2 5.6 98.7 5.10001 98 5.10001C97.3 5.10001 96.8 5.6 96.8 6.3C96.8 6.9 97.3 7.5 98 7.5Z" fill="white"/>
<path fill-rule="evenodd" clip-rule="evenodd" d="M103 7.5C103.7 7.5 104.2 7 104.2 6.3C104.2 5.6 103.7 5.10001 103 5.10001C102.3 5.10001 101.8 5.6 101.8 6.3C101.9 6.9 102.4 7.5 103 7.5Z" fill="white"/>
<path fill-rule="evenodd" clip-rule="evenodd" d="M108.1 7.5C108.8 7.5 109.3 7 109.3 6.3C109.3 5.6 108.8 5.10001 108.1 5.10001C107.4 5.10001 106.9 5.6 106.9 6.3C106.9 6.9 107.5 7.5 108.1 7.5Z" fill="white"/>
<path fill-rule="evenodd" clip-rule="evenodd" d="M113.2 7.5C113.9 7.5 114.4 7 114.4 6.3C114.4 5.6 113.9 5.10001 113.2 5.10001C112.5 5.10001 112 5.6 112 6.3C112 6.9 112.5 7.5 113.2 7.5Z" fill="white"/>
<path fill-rule="evenodd" clip-rule="evenodd" d="M118.2 7.5C118.9 7.5 119.4 7 119.4 6.3C119.4 5.6 118.9 5.10001 118.2 5.10001C117.5 5.10001 117 5.6 117 6.3C117.1 6.9 117.6 7.5 118.2 7.5Z" fill="white"/>
<path fill-rule="evenodd" clip-rule="evenodd" d="M123.3 7.5C124 7.5 124.5 7 124.5 6.3C124.5 5.6 124 5.10001 123.3 5.10001C122.6 5.10001 122.1 5.6 122.1 6.3C122.1 6.9 122.6 7.5 123.3 7.5Z" fill="white"/>
<path fill-rule="evenodd" clip-rule="evenodd" d="M128.4 7.5C129.1 7.5 129.6 7 129.6 6.3C129.6 5.6 129.1 5.10001 128.4 5.10001C127.7 5.10001 127.2 5.6 127.2 6.3C127.2 6.9 127.7 7.5 128.4 7.5Z" fill="white"/>
<path fill-rule="evenodd" clip-rule="evenodd" d="M133.4 7.5C134.1 7.5 134.6 7 134.6 6.3C134.6 5.6 134.1 5.10001 133.4 5.10001C132.7 5.10001 132.2 5.6 132.2 6.3C132.2 6.9 132.8 7.5 133.4 7.5Z" fill="white"/>
<path fill-rule="evenodd" clip-rule="evenodd" d="M138.5 7.5C139.2 7.5 139.7 7 139.7 6.3C139.7 5.6 139.2 5.10001 138.5 5.10001C137.8 5.10001 137.3 5.6 137.3 6.3C137.3 6.9 137.8 7.5 138.5 7.5Z" fill="white"/>
<path fill-rule="evenodd" clip-rule="evenodd" d="M143.5 7.5C144.2 7.5 144.7 7 144.7 6.3C144.7 5.6 144.2 5.10001 143.5 5.10001C142.8 5.10001 142.3 5.6 142.3 6.3C142.4 6.9 142.9 7.5 143.5 7.5Z" fill="white"/>
<path fill-rule="evenodd" clip-rule="evenodd" d="M148.6 7.5C149.3 7.5 149.8 7 149.8 6.3C149.8 5.6 149.3 5.10001 148.6 5.10001C147.9 5.10001 147.4 5.6 147.4 6.3C147.4 6.9 148 7.5 148.6 7.5Z" fill="white"/>
<path fill-rule="evenodd" clip-rule="evenodd" d="M153.7 7.5C154.4 7.5 154.9 7 154.9 6.3C154.9 5.6 154.4 5.10001 153.7 5.10001C153 5.10001 152.5 5.6 152.5 6.3C152.5 6.9 153 7.5 153.7 7.5Z" fill="white"/>
<path fill-rule="evenodd" clip-rule="evenodd" d="M158.7 7.5C159.4 7.5 159.9 7 159.9 6.3C159.9 5.6 159.4 5.10001 158.7 5.10001C158 5.10001 157.5 5.6 157.5 6.3C157.6 6.9 158.1 7.5 158.7 7.5Z" fill="white"/>
<path fill-rule="evenodd" clip-rule="evenodd" d="M163.8 7.5C164.5 7.5 165 7 165 6.3C165 5.6 164.5 5.10001 163.8 5.10001C163.1 5.10001 162.6 5.6 162.6 6.3C162.6 6.9 163.1 7.5 163.8 7.5Z" fill="white"/>
<path fill-rule="evenodd" clip-rule="evenodd" d="M168.9 7.5C169.6 7.5 170.1 7 170.1 6.3C170.1 5.6 169.6 5.10001 168.9 5.10001C168.2 5.10001 167.7 5.6 167.7 6.3C167.7 6.9 168.2 7.5 168.9 7.5Z" fill="white"/>
<path fill-rule="evenodd" clip-rule="evenodd" d="M173.9 7.5C174.6 7.5 175.1 7 175.1 6.3C175.1 5.6 174.6 5.10001 173.9 5.10001C173.2 5.10001 172.7 5.6 172.7 6.3C172.7 6.9 173.3 7.5 173.9 7.5Z" fill="white"/>
<path fill-rule="evenodd" clip-rule="evenodd" d="M179 7.5C179.7 7.5 180.2 7 180.2 6.3C180.2 5.6 179.7 5.10001 179 5.10001C178.3 5.10001 177.8 5.6 177.8 6.3C177.8 6.9 178.3 7.5 179 7.5Z" fill="white"/>
<path fill-rule="evenodd" clip-rule="evenodd" d="M184.1 7.5C184.8 7.5 185.3 7 185.3 6.3C185.3 5.6 184.8 5.10001 184.1 5.10001C183.4 5.10001 182.9 5.6 182.9 6.3C182.9 6.9 183.4 7.5 184.1 7.5Z" fill="white"/>
<path fill-rule="evenodd" clip-rule="evenodd" d="M189.1 7.5C189.8 7.5 190.3 7 190.3 6.3C190.3 5.6 189.8 5.10001 189.1 5.10001C188.4 5.10001 187.9 5.6 187.9 6.3C187.9 6.9 188.5 7.5 189.1 7.5Z" fill="white"/>
<path fill-rule="evenodd" clip-rule="evenodd" d="M194.2 7.5C194.9 7.5 195.4 7 195.4 6.3C195.4 5.6 194.9 5.10001 194.2 5.10001C193.5 5.10001 193 5.6 193 6.3C193 6.9 193.5 7.5 194.2 7.5Z" fill="white"/>
<path fill-rule="evenodd" clip-rule="evenodd" d="M199.2 7.5C199.9 7.5 200.4 7 200.4 6.3C200.4 5.6 199.9 5.10001 199.2 5.10001C198.5 5.10001 198 5.6 198 6.3C198.1 6.9 198.6 7.5 199.2 7.5Z" fill="white"/>
<path fill-rule="evenodd" clip-rule="evenodd" d="M204.3 7.5C205 7.5 205.5 7 205.5 6.3C205.5 5.6 205 5.10001 204.3 5.10001C203.6 5.10001 203.1 5.6 203.1 6.3C203.1 6.9 203.6 7.5 204.3 7.5Z" fill="white"/>
<path fill-rule="evenodd" clip-rule="evenodd" d="M209.4 7.5C210.1 7.5 210.6 7 210.6 6.3C210.6 5.6 210.1 5.10001 209.4 5.10001C208.7 5.10001 208.2 5.6 208.2 6.3C208.2 6.9 208.7 7.5 209.4 7.5Z" fill="white"/>
<path fill-rule="evenodd" clip-rule="evenodd" d="M214.4 7.5C215.1 7.5 215.6 7 215.6 6.3C215.6 5.6 215.1 5.10001 214.4 5.10001C213.7 5.10001 213.2 5.6 213.2 6.3C213.2 6.9 213.8 7.5 214.4 7.5Z" fill="white"/>
<path fill-rule="evenodd" clip-rule="evenodd" d="M219.5 7.5C220.2 7.5 220.7 7 220.7 6.3C220.7 5.6 220.2 5.10001 219.5 5.10001C218.8 5.10001 218.3 5.6 218.3 6.3C218.3 6.9 218.8 7.5 219.5 7.5Z" fill="white"/>
<path fill-rule="evenodd" clip-rule="evenodd" d="M224.6 7.5C225.3 7.5 225.8 7 225.8 6.3C225.8 5.6 225.3 5.10001 224.6 5.10001C223.9 5.10001 223.4 5.6 223.4 6.3C223.4 6.9 223.9 7.5 224.6 7.5Z" fill="white"/>
<path fill-rule="evenodd" clip-rule="evenodd" d="M229.6 7.5C230.3 7.5 230.8 7 230.8 6.3C230.8 5.6 230.3 5.10001 229.6 5.10001C228.9 5.10001 228.4 5.6 228.4 6.3C228.4 6.9 229 7.5 229.6 7.5Z" fill="white"/>
<path fill-rule="evenodd" clip-rule="evenodd" d="M234.7 7.5C235.4 7.5 235.9 7 235.9 6.3C235.9 5.6 235.4 5.10001 234.7 5.10001C234 5.10001 233.5 5.6 233.5 6.3C233.5 6.9 234 7.5 234.7 7.5Z" fill="white"/>
<path fill-rule="evenodd" clip-rule="evenodd" d="M239.7 7.5C240.4 7.5 240.9 7 240.9 6.3C240.9 5.6 240.4 5.10001 239.7 5.10001C239 5.10001 238.5 5.6 238.5 6.3C238.6 6.9 239.1 7.5 239.7 7.5Z" fill="white"/>
<path fill-rule="evenodd" clip-rule="evenodd" d="M244.8 7.5C245.5 7.5 246 7 246 6.3C246 5.6 245.5 5.10001 244.8 5.10001C244.1 5.10001 243.6 5.6 243.6 6.3C243.6 6.9 244.2 7.5 244.8 7.5Z" fill="white"/>
<path fill-rule="evenodd" clip-rule="evenodd" d="M249.9 7.5C250.6 7.5 251.1 7 251.1 6.3C251.1 5.6 250.6 5.10001 249.9 5.10001C249.2 5.10001 248.7 5.6 248.7 6.3C248.7 6.9 249.2 7.5 249.9 7.5Z" fill="white"/>
<path fill-rule="evenodd" clip-rule="evenodd" d="M254.9 7.5C255.6 7.5 256.1 7 256.1 6.3C256.1 5.6 255.6 5.10001 254.9 5.10001C254.2 5.10001 253.7 5.6 253.7 6.3C253.7 6.9 254.3 7.5 254.9 7.5Z" fill="white"/>
<path fill-rule="evenodd" clip-rule="evenodd" d="M260 7.5C260.7 7.5 261.2 7 261.2 6.3C261.2 5.6 260.7 5.10001 260 5.10001C259.3 5.10001 258.8 5.6 258.8 6.3C258.8 6.9 259.3 7.5 260 7.5Z" fill="white"/>
<path fill-rule="evenodd" clip-rule="evenodd" d="M265.1 7.5C265.8 7.5 266.3 7 266.3 6.3C266.3 5.6 265.8 5.10001 265.1 5.10001C264.4 5.10001 263.9 5.6 263.9 6.3C263.9 6.9 264.4 7.5 265.1 7.5Z" fill="white"/>
<path fill-rule="evenodd" clip-rule="evenodd" d="M270.1 7.5C270.8 7.5 271.3 7 271.3 6.3C271.3 5.6 270.8 5.10001 270.1 5.10001C269.4 5.10001 268.9 5.6 268.9 6.3C268.9 6.9 269.5 7.5 270.1 7.5Z" fill="white"/>
<path fill-rule="evenodd" clip-rule="evenodd" d="M275.2 7.5C275.9 7.5 276.4 7 276.4 6.3C276.4 5.6 275.9 5.10001 275.2 5.10001C274.5 5.10001 274 5.6 274 6.3C274 6.9 274.5 7.5 275.2 7.5Z" fill="white"/>
<path fill-rule="evenodd" clip-rule="evenodd" d="M280.2 7.5C280.9 7.5 281.4 7 281.4 6.3C281.4 5.6 280.9 5.10001 280.2 5.10001C279.5 5.10001 279 5.6 279 6.3C279.1 6.9 279.6 7.5 280.2 7.5Z" fill="white"/>
<path fill-rule="evenodd" clip-rule="evenodd" d="M285.3 7.5C286 7.5 286.5 7 286.5 6.3C286.5 5.6 286 5.10001 285.3 5.10001C284.6 5.10001 284.1 5.6 284.1 6.3C284.1 6.9 284.7 7.5 285.3 7.5Z" fill="white"/>
<path fill-rule="evenodd" clip-rule="evenodd" d="M290.4 7.5C291.1 7.5 291.6 7 291.6 6.3C291.6 5.6 291.1 5.10001 290.4 5.10001C289.7 5.10001 289.2 5.6 289.2 6.3C289.2 6.9 289.7 7.5 290.4 7.5Z" fill="white"/>
<path fill-rule="evenodd" clip-rule="evenodd" d="M295.4 7.5C296.1 7.5 296.6 7 296.6 6.3C296.6 5.6 296.1 5.10001 295.4 5.10001C294.7 5.10001 294.2 5.6 294.2 6.3C294.2 6.9 294.8 7.5 295.4 7.5Z" fill="white"/>
<path fill-rule="evenodd" clip-rule="evenodd" d="M300.5 7.5C301.2 7.5 301.7 7 301.7 6.3C301.7 5.6 301.2 5.10001 300.5 5.10001C299.8 5.10001 299.3 5.6 299.3 6.3C299.3 6.9 299.8 7.5 300.5 7.5Z" fill="white"/>
<path fill-rule="evenodd" clip-rule="evenodd" d="M305.6 7.5C306.3 7.5 306.8 7 306.8 6.3C306.8 5.6 306.3 5.10001 305.6 5.10001C304.9 5.10001 304.4 5.6 304.4 6.3C304.4 6.9 304.9 7.5 305.6 7.5Z" fill="white"/>
<path fill-rule="evenodd" clip-rule="evenodd" d="M310.6 7.5C311.3 7.5 311.8 7 311.8 6.3C311.8 5.6 311.3 5.10001 310.6 5.10001C309.9 5.10001 309.4 5.6 309.4 6.3C309.4 6.9 310 7.5 310.6 7.5Z" fill="white"/>
<path fill-rule="evenodd" clip-rule="evenodd" d="M315.7 7.5C316.4 7.5 316.9 7 316.9 6.3C316.9 5.6 316.4 5.10001 315.7 5.10001C315 5.10001 314.5 5.6 314.5 6.3C314.5 6.9 315 7.5 315.7 7.5Z" fill="white"/>
<path fill-rule="evenodd" clip-rule="evenodd" d="M320.7 7.5C321.4 7.5 321.9 7 321.9 6.3C321.9 5.6 321.4 5.10001 320.7 5.10001C320 5.10001 319.5 5.6 319.5 6.3C319.6 6.9 320.1 7.5 320.7 7.5Z" fill="white"/>
<path fill-rule="evenodd" clip-rule="evenodd" d="M325.8 7.5C326.5 7.5 327 7 327 6.3C327 5.6 326.5 5.10001 325.8 5.10001C325.1 5.10001 324.6 5.6 324.6 6.3C324.6 6.9 325.2 7.5 325.8 7.5Z" fill="white"/>
<path fill-rule="evenodd" clip-rule="evenodd" d="M330.9 7.5C331.6 7.5 332.1 7 332.1 6.3C332.1 5.6 331.6 5.10001 330.9 5.10001C330.2 5.10001 329.7 5.6 329.7 6.3C329.7 6.9 330.2 7.5 330.9 7.5Z" fill="white"/>
<path fill-rule="evenodd" clip-rule="evenodd" d="M335.9 7.5C336.6 7.5 337.1 7 337.1 6.3C337.1 5.6 336.6 5.10001 335.9 5.10001C335.2 5.10001 334.7 5.6 334.7 6.3C334.7 6.9 335.3 7.5 335.9 7.5Z" fill="white"/>
<path fill-rule="evenodd" clip-rule="evenodd" d="M341 7.5C341.7 7.5 342.2 7 342.2 6.3C342.2 5.6 341.7 5.10001 341 5.10001C340.3 5.10001 339.8 5.6 339.8 6.3C339.8 6.9 340.3 7.5 341 7.5Z" fill="white"/>
<path fill-rule="evenodd" clip-rule="evenodd" d="M346.1 7.5C346.8 7.5 347.3 7 347.3 6.3C347.3 5.6 346.8 5.10001 346.1 5.10001C345.4 5.10001 344.9 5.6 344.9 6.3C344.9 6.9 345.4 7.5 346.1 7.5Z" fill="white"/>
<path fill-rule="evenodd" clip-rule="evenodd" d="M351.1 7.5C351.8 7.5 352.3 7 352.3 6.3C352.3 5.6 351.8 5.10001 351.1 5.10001C350.4 5.10001 349.9 5.6 349.9 6.3C349.9 6.9 350.5 7.5 351.1 7.5Z" fill="white"/>
<path fill-rule="evenodd" clip-rule="evenodd" d="M356.2 7.5C356.9 7.5 357.4 7 357.4 6.3C357.4 5.6 356.9 5.10001 356.2 5.10001C355.5 5.10001 355 5.6 355 6.3C355 6.9 355.5 7.5 356.2 7.5Z" fill="white"/>
<path fill-rule="evenodd" clip-rule="evenodd" d="M361.2 7.5C361.9 7.5 362.4 7 362.4 6.3C362.4 5.6 361.9 5.10001 361.2 5.10001C360.5 5.10001 360 5.6 360 6.3C360.1 6.9 360.6 7.5 361.2 7.5Z" fill="white"/>
<path fill-rule="evenodd" clip-rule="evenodd" d="M366.3 7.5C367 7.5 367.5 7 367.5 6.3C367.5 5.6 367 5.10001 366.3 5.10001C365.6 5.10001 365.1 5.6 365.1 6.3C365.1 6.9 365.7 7.5 366.3 7.5Z" fill="white"/>
<path fill-rule="evenodd" clip-rule="evenodd" d="M371.4 7.5C372.1 7.5 372.6 7 372.6 6.3C372.6 5.6 372.1 5.10001 371.4 5.10001C370.7 5.10001 370.2 5.6 370.2 6.3C370.2 6.9 370.7 7.5 371.4 7.5Z" fill="white"/>
<path fill-rule="evenodd" clip-rule="evenodd" d="M376.4 7.5C377.1 7.5 377.6 7 377.6 6.3C377.6 5.6 377.1 5.10001 376.4 5.10001C375.7 5.10001 375.2 5.6 375.2 6.3C375.2 6.9 375.8 7.5 376.4 7.5Z" fill="white"/>
<path fill-rule="evenodd" clip-rule="evenodd" d="M381.5 7.5C382.2 7.5 382.7 7 382.7 6.3C382.7 5.6 382.2 5.10001 381.5 5.10001C380.8 5.10001 380.3 5.6 380.3 6.3C380.3 6.9 380.8 7.5 381.5 7.5Z" fill="white"/>
<path fill-rule="evenodd" clip-rule="evenodd" d="M386.6 7.5C387.3 7.5 387.8 7 387.8 6.3C387.8 5.6 387.3 5.10001 386.6 5.10001C385.9 5.10001 385.4 5.6 385.4 6.3C385.4 6.9 385.9 7.5 386.6 7.5Z" fill="white"/>
<path fill-rule="evenodd" clip-rule="evenodd" d="M391.6 7.5C392.3 7.5 392.8 7 392.8 6.3C392.8 5.6 392.3 5.10001 391.6 5.10001C390.9 5.10001 390.4 5.6 390.4 6.3C390.4 6.9 391 7.5 391.6 7.5Z" fill="white"/>
<path fill-rule="evenodd" clip-rule="evenodd" d="M1.80001 11.3C2.50001 11.3 3.00001 10.8 3.00001 10.1C3.00001 9.40001 2.50001 8.89999 1.80001 8.89999C1.10001 8.89999 0.600006 9.40001 0.600006 10.1C0.600006 10.7 1.10001 11.3 1.80001 11.3Z" fill="white"/>
<path fill-rule="evenodd" clip-rule="evenodd" d="M6.9 11.3C7.6 11.3 8.09999 10.8 8.09999 10.1C8.09999 9.40001 7.6 8.89999 6.9 8.89999C6.2 8.89999 5.7 9.40001 5.7 10.1C5.7 10.7 6.2 11.3 6.9 11.3Z" fill="white"/>
<path fill-rule="evenodd" clip-rule="evenodd" d="M11.9 11.3C12.6 11.3 13.1 10.8 13.1 10.1C13.1 9.40001 12.6 8.89999 11.9 8.89999C11.2 8.89999 10.7 9.40001 10.7 10.1C10.7 10.7 11.3 11.3 11.9 11.3Z" fill="white"/>
<path fill-rule="evenodd" clip-rule="evenodd" d="M17 11.3C17.7 11.3 18.2 10.8 18.2 10.1C18.2 9.40001 17.7 8.89999 17 8.89999C16.3 8.89999 15.8 9.40001 15.8 10.1C15.8 10.7 16.3 11.3 17 11.3Z" fill="white"/>
<path fill-rule="evenodd" clip-rule="evenodd" d="M22 11.3C22.7 11.3 23.2 10.8 23.2 10.1C23.2 9.40001 22.7 8.89999 22 8.89999C21.3 8.89999 20.8 9.40001 20.8 10.1C20.9 10.7 21.4 11.3 22 11.3Z" fill="white"/>
<path fill-rule="evenodd" clip-rule="evenodd" d="M27.1 11.3C27.8 11.3 28.3 10.8 28.3 10.1C28.3 9.40001 27.8 8.89999 27.1 8.89999C26.4 8.89999 25.9 9.40001 25.9 10.1C25.9 10.7 26.5 11.3 27.1 11.3Z" fill="white"/>
<path fill-rule="evenodd" clip-rule="evenodd" d="M32.2 11.3C32.9 11.3 33.4 10.8 33.4 10.1C33.4 9.40001 32.9 8.89999 32.2 8.89999C31.5 8.89999 31 9.40001 31 10.1C31 10.7 31.5 11.3 32.2 11.3Z" fill="white"/>
<path fill-rule="evenodd" clip-rule="evenodd" d="M37.2 11.3C37.9 11.3 38.4 10.8 38.4 10.1C38.4 9.40001 37.9 8.89999 37.2 8.89999C36.5 8.89999 36 9.40001 36 10.1C36 10.7 36.6 11.3 37.2 11.3Z" fill="white"/>
<path fill-rule="evenodd" clip-rule="evenodd" d="M42.3 11.3C43 11.3 43.5 10.8 43.5 10.1C43.5 9.40001 43 8.89999 42.3 8.89999C41.6 8.89999 41.1 9.40001 41.1 10.1C41.1 10.7 41.6 11.3 42.3 11.3Z" fill="white"/>
<path fill-rule="evenodd" clip-rule="evenodd" d="M47.4 11.3C48.1 11.3 48.6 10.8 48.6 10.1C48.6 9.40001 48.1 8.89999 47.4 8.89999C46.7 8.89999 46.2 9.40001 46.2 10.1C46.2 10.7 46.7 11.3 47.4 11.3Z" fill="white"/>
<path fill-rule="evenodd" clip-rule="evenodd" d="M52.4 11.3C53.1 11.3 53.6 10.8 53.6 10.1C53.6 9.40001 53.1 8.89999 52.4 8.89999C51.7 8.89999 51.2 9.40001 51.2 10.1C51.2 10.7 51.8 11.3 52.4 11.3Z" fill="white"/>
<path fill-rule="evenodd" clip-rule="evenodd" d="M57.5 11.3C58.2 11.3 58.7 10.8 58.7 10.1C58.7 9.40001 58.2 8.89999 57.5 8.89999C56.8 8.89999 56.3 9.40001 56.3 10.1C56.3 10.7 56.8 11.3 57.5 11.3Z" fill="white"/>
<path fill-rule="evenodd" clip-rule="evenodd" d="M62.5 11.3C63.2 11.3 63.7 10.8 63.7 10.1C63.7 9.40001 63.2 8.89999 62.5 8.89999C61.8 8.89999 61.3 9.40001 61.3 10.1C61.4 10.7 61.9 11.3 62.5 11.3Z" fill="white"/>
<path fill-rule="evenodd" clip-rule="evenodd" d="M67.6 11.3C68.3 11.3 68.8 10.8 68.8 10.1C68.8 9.40001 68.3 8.89999 67.6 8.89999C66.9 8.89999 66.4 9.40001 66.4 10.1C66.4 10.7 67 11.3 67.6 11.3Z" fill="white"/>
<path fill-rule="evenodd" clip-rule="evenodd" d="M72.7 11.3C73.4 11.3 73.9 10.8 73.9 10.1C73.9 9.40001 73.4 8.89999 72.7 8.89999C72 8.89999 71.5 9.40001 71.5 10.1C71.5 10.7 72 11.3 72.7 11.3Z" fill="white"/>
<path fill-rule="evenodd" clip-rule="evenodd" d="M77.7 11.3C78.4 11.3 78.9 10.8 78.9 10.1C78.9 9.40001 78.4 8.89999 77.7 8.89999C77 8.89999 76.5 9.40001 76.5 10.1C76.6 10.7 77.1 11.3 77.7 11.3Z" fill="white"/>
<path fill-rule="evenodd" clip-rule="evenodd" d="M82.8 11.3C83.5 11.3 84 10.8 84 10.1C84 9.40001 83.5 8.89999 82.8 8.89999C82.1 8.89999 81.6 9.40001 81.6 10.1C81.6 10.7 82.1 11.3 82.8 11.3Z" fill="white"/>
<path fill-rule="evenodd" clip-rule="evenodd" d="M87.9 11.3C88.6 11.3 89.1 10.8 89.1 10.1C89.1 9.40001 88.6 8.89999 87.9 8.89999C87.2 8.89999 86.7 9.40001 86.7 10.1C86.7 10.7 87.2 11.3 87.9 11.3Z" fill="white"/>
<path fill-rule="evenodd" clip-rule="evenodd" d="M92.9 11.3C93.6 11.3 94.1 10.8 94.1 10.1C94.1 9.40001 93.6 8.89999 92.9 8.89999C92.2 8.89999 91.7 9.40001 91.7 10.1C91.7 10.7 92.3 11.3 92.9 11.3Z" fill="white"/>
<path fill-rule="evenodd" clip-rule="evenodd" d="M98 11.3C98.7 11.3 99.2 10.8 99.2 10.1C99.2 9.40001 98.7 8.89999 98 8.89999C97.3 8.89999 96.8 9.40001 96.8 10.1C96.8 10.7 97.3 11.3 98 11.3Z" fill="white"/>
<path fill-rule="evenodd" clip-rule="evenodd" d="M103 11.3C103.7 11.3 104.2 10.8 104.2 10.1C104.2 9.40001 103.7 8.89999 103 8.89999C102.3 8.89999 101.8 9.40001 101.8 10.1C101.9 10.7 102.4 11.3 103 11.3Z" fill="white"/>
<path fill-rule="evenodd" clip-rule="evenodd" d="M108.1 11.3C108.8 11.3 109.3 10.8 109.3 10.1C109.3 9.40001 108.8 8.89999 108.1 8.89999C107.4 8.89999 106.9 9.40001 106.9 10.1C106.9 10.7 107.5 11.3 108.1 11.3Z" fill="white"/>
<path fill-rule="evenodd" clip-rule="evenodd" d="M113.2 11.3C113.9 11.3 114.4 10.8 114.4 10.1C114.4 9.40001 113.9 8.89999 113.2 8.89999C112.5 8.89999 112 9.40001 112 10.1C112 10.7 112.5 11.3 113.2 11.3Z" fill="white"/>
<path fill-rule="evenodd" clip-rule="evenodd" d="M118.2 11.3C118.9 11.3 119.4 10.8 119.4 10.1C119.4 9.40001 118.9 8.89999 118.2 8.89999C117.5 8.89999 117 9.40001 117 10.1C117.1 10.7 117.6 11.3 118.2 11.3Z" fill="white"/>
<path fill-rule="evenodd" clip-rule="evenodd" d="M123.3 11.3C124 11.3 124.5 10.8 124.5 10.1C124.5 9.40001 124 8.89999 123.3 8.89999C122.6 8.89999 122.1 9.40001 122.1 10.1C122.1 10.7 122.6 11.3 123.3 11.3Z" fill="white"/>
<path fill-rule="evenodd" clip-rule="evenodd" d="M128.4 11.3C129.1 11.3 129.6 10.8 129.6 10.1C129.6 9.40001 129.1 8.89999 128.4 8.89999C127.7 8.89999 127.2 9.40001 127.2 10.1C127.2 10.7 127.7 11.3 128.4 11.3Z" fill="white"/>
<path fill-rule="evenodd" clip-rule="evenodd" d="M133.4 11.3C134.1 11.3 134.6 10.8 134.6 10.1C134.6 9.40001 134.1 8.89999 133.4 8.89999C132.7 8.89999 132.2 9.40001 132.2 10.1C132.2 10.7 132.8 11.3 133.4 11.3Z" fill="white"/>
<path fill-rule="evenodd" clip-rule="evenodd" d="M138.5 11.3C139.2 11.3 139.7 10.8 139.7 10.1C139.7 9.40001 139.2 8.89999 138.5 8.89999C137.8 8.89999 137.3 9.40001 137.3 10.1C137.3 10.7 137.8 11.3 138.5 11.3Z" fill="white"/>
<path fill-rule="evenodd" clip-rule="evenodd" d="M143.5 11.3C144.2 11.3 144.7 10.8 144.7 10.1C144.7 9.40001 144.2 8.89999 143.5 8.89999C142.8 8.89999 142.3 9.40001 142.3 10.1C142.4 10.7 142.9 11.3 143.5 11.3Z" fill="white"/>
<path fill-rule="evenodd" clip-rule="evenodd" d="M148.6 11.3C149.3 11.3 149.8 10.8 149.8 10.1C149.8 9.40001 149.3 8.89999 148.6 8.89999C147.9 8.89999 147.4 9.40001 147.4 10.1C147.4 10.7 148 11.3 148.6 11.3Z" fill="white"/>
<path fill-rule="evenodd" clip-rule="evenodd" d="M153.7 11.3C154.4 11.3 154.9 10.8 154.9 10.1C154.9 9.40001 154.4 8.89999 153.7 8.89999C153 8.89999 152.5 9.40001 152.5 10.1C152.5 10.7 153 11.3 153.7 11.3Z" fill="white"/>
<path fill-rule="evenodd" clip-rule="evenodd" d="M158.7 11.3C159.4 11.3 159.9 10.8 159.9 10.1C159.9 9.40001 159.4 8.89999 158.7 8.89999C158 8.89999 157.5 9.40001 157.5 10.1C157.6 10.7 158.1 11.3 158.7 11.3Z" fill="white"/>
<path fill-rule="evenodd" clip-rule="evenodd" d="M163.8 11.3C164.5 11.3 165 10.8 165 10.1C165 9.40001 164.5 8.89999 163.8 8.89999C163.1 8.89999 162.6 9.40001 162.6 10.1C162.6 10.7 163.1 11.3 163.8 11.3Z" fill="white"/>
<path fill-rule="evenodd" clip-rule="evenodd" d="M168.9 11.3C169.6 11.3 170.1 10.8 170.1 10.1C170.1 9.40001 169.6 8.89999 168.9 8.89999C168.2 8.89999 167.7 9.40001 167.7 10.1C167.7 10.7 168.2 11.3 168.9 11.3Z" fill="white"/>
<path fill-rule="evenodd" clip-rule="evenodd" d="M173.9 11.3C174.6 11.3 175.1 10.8 175.1 10.1C175.1 9.40001 174.6 8.89999 173.9 8.89999C173.2 8.89999 172.7 9.40001 172.7 10.1C172.7 10.7 173.3 11.3 173.9 11.3Z" fill="white"/>
<path fill-rule="evenodd" clip-rule="evenodd" d="M179 11.3C179.7 11.3 180.2 10.8 180.2 10.1C180.2 9.40001 179.7 8.89999 179 8.89999C178.3 8.89999 177.8 9.40001 177.8 10.1C177.8 10.7 178.3 11.3 179 11.3Z" fill="white"/>
<path fill-rule="evenodd" clip-rule="evenodd" d="M184.1 11.3C184.8 11.3 185.3 10.8 185.3 10.1C185.3 9.40001 184.8 8.89999 184.1 8.89999C183.4 8.89999 182.9 9.40001 182.9 10.1C182.9 10.7 183.4 11.3 184.1 11.3Z" fill="white"/>
<path fill-rule="evenodd" clip-rule="evenodd" d="M189.1 11.3C189.8 11.3 190.3 10.8 190.3 10.1C190.3 9.40001 189.8 8.89999 189.1 8.89999C188.4 8.89999 187.9 9.40001 187.9 10.1C187.9 10.7 188.5 11.3 189.1 11.3Z" fill="white"/>
<path fill-rule="evenodd" clip-rule="evenodd" d="M194.2 11.3C194.9 11.3 195.4 10.8 195.4 10.1C195.4 9.40001 194.9 8.89999 194.2 8.89999C193.5 8.89999 193 9.40001 193 10.1C193 10.7 193.5 11.3 194.2 11.3Z" fill="white"/>
<path fill-rule="evenodd" clip-rule="evenodd" d="M199.2 11.3C199.9 11.3 200.4 10.8 200.4 10.1C200.4 9.40001 199.9 8.89999 199.2 8.89999C198.5 8.89999 198 9.40001 198 10.1C198.1 10.7 198.6 11.3 199.2 11.3Z" fill="white"/>
<path fill-rule="evenodd" clip-rule="evenodd" d="M204.3 11.3C205 11.3 205.5 10.8 205.5 10.1C205.5 9.40001 205 8.89999 204.3 8.89999C203.6 8.89999 203.1 9.40001 203.1 10.1C203.1 10.7 203.6 11.3 204.3 11.3Z" fill="white"/>
<path fill-rule="evenodd" clip-rule="evenodd" d="M209.4 11.3C210.1 11.3 210.6 10.8 210.6 10.1C210.6 9.40001 210.1 8.89999 209.4 8.89999C208.7 8.89999 208.2 9.40001 208.2 10.1C208.2 10.7 208.7 11.3 209.4 11.3Z" fill="white"/>
<path fill-rule="evenodd" clip-rule="evenodd" d="M214.4 11.3C215.1 11.3 215.6 10.8 215.6 10.1C215.6 9.40001 215.1 8.89999 214.4 8.89999C213.7 8.89999 213.2 9.40001 213.2 10.1C213.2 10.7 213.8 11.3 214.4 11.3Z" fill="white"/>
<path fill-rule="evenodd" clip-rule="evenodd" d="M219.5 11.3C220.2 11.3 220.7 10.8 220.7 10.1C220.7 9.40001 220.2 8.89999 219.5 8.89999C218.8 8.89999 218.3 9.40001 218.3 10.1C218.3 10.7 218.8 11.3 219.5 11.3Z" fill="white"/>
<path fill-rule="evenodd" clip-rule="evenodd" d="M224.6 11.3C225.3 11.3 225.8 10.8 225.8 10.1C225.8 9.40001 225.3 8.89999 224.6 8.89999C223.9 8.89999 223.4 9.40001 223.4 10.1C223.4 10.7 223.9 11.3 224.6 11.3Z" fill="white"/>
<path fill-rule="evenodd" clip-rule="evenodd" d="M229.6 11.3C230.3 11.3 230.8 10.8 230.8 10.1C230.8 9.40001 230.3 8.89999 229.6 8.89999C228.9 8.89999 228.4 9.40001 228.4 10.1C228.4 10.7 229 11.3 229.6 11.3Z" fill="white"/>
<path fill-rule="evenodd" clip-rule="evenodd" d="M234.7 11.3C235.4 11.3 235.9 10.8 235.9 10.1C235.9 9.40001 235.4 8.89999 234.7 8.89999C234 8.89999 233.5 9.40001 233.5 10.1C233.5 10.7 234 11.3 234.7 11.3Z" fill="white"/>
<path fill-rule="evenodd" clip-rule="evenodd" d="M239.7 11.3C240.4 11.3 240.9 10.8 240.9 10.1C240.9 9.40001 240.4 8.89999 239.7 8.89999C239 8.89999 238.5 9.40001 238.5 10.1C238.6 10.7 239.1 11.3 239.7 11.3Z" fill="white"/>
<path fill-rule="evenodd" clip-rule="evenodd" d="M244.8 11.3C245.5 11.3 246 10.8 246 10.1C246 9.40001 245.5 8.89999 244.8 8.89999C244.1 8.89999 243.6 9.40001 243.6 10.1C243.6 10.7 244.2 11.3 244.8 11.3Z" fill="white"/>
<path fill-rule="evenodd" clip-rule="evenodd" d="M249.9 11.3C250.6 11.3 251.1 10.8 251.1 10.1C251.1 9.40001 250.6 8.89999 249.9 8.89999C249.2 8.89999 248.7 9.40001 248.7 10.1C248.7 10.7 249.2 11.3 249.9 11.3Z" fill="white"/>
<path fill-rule="evenodd" clip-rule="evenodd" d="M254.9 11.3C255.6 11.3 256.1 10.8 256.1 10.1C256.1 9.40001 255.6 8.89999 254.9 8.89999C254.2 8.89999 253.7 9.40001 253.7 10.1C253.7 10.7 254.3 11.3 254.9 11.3Z" fill="white"/>
<path fill-rule="evenodd" clip-rule="evenodd" d="M260 11.3C260.7 11.3 261.2 10.8 261.2 10.1C261.2 9.40001 260.7 8.89999 260 8.89999C259.3 8.89999 258.8 9.40001 258.8 10.1C258.8 10.7 259.3 11.3 260 11.3Z" fill="white"/>
<path fill-rule="evenodd" clip-rule="evenodd" d="M265.1 11.3C265.8 11.3 266.3 10.8 266.3 10.1C266.3 9.40001 265.8 8.89999 265.1 8.89999C264.4 8.89999 263.9 9.40001 263.9 10.1C263.9 10.7 264.4 11.3 265.1 11.3Z" fill="white"/>
<path fill-rule="evenodd" clip-rule="evenodd" d="M270.1 11.3C270.8 11.3 271.3 10.8 271.3 10.1C271.3 9.40001 270.8 8.89999 270.1 8.89999C269.4 8.89999 268.9 9.40001 268.9 10.1C268.9 10.7 269.5 11.3 270.1 11.3Z" fill="white"/>
<path fill-rule="evenodd" clip-rule="evenodd" d="M275.2 11.3C275.9 11.3 276.4 10.8 276.4 10.1C276.4 9.40001 275.9 8.89999 275.2 8.89999C274.5 8.89999 274 9.40001 274 10.1C274 10.7 274.5 11.3 275.2 11.3Z" fill="white"/>
<path fill-rule="evenodd" clip-rule="evenodd" d="M280.2 11.3C280.9 11.3 281.4 10.8 281.4 10.1C281.4 9.40001 280.9 8.89999 280.2 8.89999C279.5 8.89999 279 9.40001 279 10.1C279.1 10.7 279.6 11.3 280.2 11.3Z" fill="white"/>
<path fill-rule="evenodd" clip-rule="evenodd" d="M285.3 11.3C286 11.3 286.5 10.8 286.5 10.1C286.5 9.40001 286 8.89999 285.3 8.89999C284.6 8.89999 284.1 9.40001 284.1 10.1C284.1 10.7 284.7 11.3 285.3 11.3Z" fill="white"/>
<path fill-rule="evenodd" clip-rule="evenodd" d="M290.4 11.3C291.1 11.3 291.6 10.8 291.6 10.1C291.6 9.40001 291.1 8.89999 290.4 8.89999C289.7 8.89999 289.2 9.40001 289.2 10.1C289.2 10.7 289.7 11.3 290.4 11.3Z" fill="white"/>
<path fill-rule="evenodd" clip-rule="evenodd" d="M295.4 11.3C296.1 11.3 296.6 10.8 296.6 10.1C296.6 9.40001 296.1 8.89999 295.4 8.89999C294.7 8.89999 294.2 9.40001 294.2 10.1C294.2 10.7 294.8 11.3 295.4 11.3Z" fill="white"/>
<path fill-rule="evenodd" clip-rule="evenodd" d="M300.5 11.3C301.2 11.3 301.7 10.8 301.7 10.1C301.7 9.40001 301.2 8.89999 300.5 8.89999C299.8 8.89999 299.3 9.40001 299.3 10.1C299.3 10.7 299.8 11.3 300.5 11.3Z" fill="white"/>
<path fill-rule="evenodd" clip-rule="evenodd" d="M305.6 11.3C306.3 11.3 306.8 10.8 306.8 10.1C306.8 9.40001 306.3 8.89999 305.6 8.89999C304.9 8.89999 304.4 9.40001 304.4 10.1C304.4 10.7 304.9 11.3 305.6 11.3Z" fill="white"/>
<path fill-rule="evenodd" clip-rule="evenodd" d="M310.6 11.3C311.3 11.3 311.8 10.8 311.8 10.1C311.8 9.40001 311.3 8.89999 310.6 8.89999C309.9 8.89999 309.4 9.40001 309.4 10.1C309.4 10.7 310 11.3 310.6 11.3Z" fill="white"/>
<path fill-rule="evenodd" clip-rule="evenodd" d="M315.7 11.3C316.4 11.3 316.9 10.8 316.9 10.1C316.9 9.40001 316.4 8.89999 315.7 8.89999C315 8.89999 314.5 9.40001 314.5 10.1C314.5 10.7 315 11.3 315.7 11.3Z" fill="white"/>
<path fill-rule="evenodd" clip-rule="evenodd" d="M320.7 11.3C321.4 11.3 321.9 10.8 321.9 10.1C321.9 9.40001 321.4 8.89999 320.7 8.89999C320 8.89999 319.5 9.40001 319.5 10.1C319.6 10.7 320.1 11.3 320.7 11.3Z" fill="white"/>
<path fill-rule="evenodd" clip-rule="evenodd" d="M325.8 11.3C326.5 11.3 327 10.8 327 10.1C327 9.40001 326.5 8.89999 325.8 8.89999C325.1 8.89999 324.6 9.40001 324.6 10.1C324.6 10.7 325.2 11.3 325.8 11.3Z" fill="white"/>
<path fill-rule="evenodd" clip-rule="evenodd" d="M330.9 11.3C331.6 11.3 332.1 10.8 332.1 10.1C332.1 9.40001 331.6 8.89999 330.9 8.89999C330.2 8.89999 329.7 9.40001 329.7 10.1C329.7 10.7 330.2 11.3 330.9 11.3Z" fill="white"/>
<path fill-rule="evenodd" clip-rule="evenodd" d="M335.9 11.3C336.6 11.3 337.1 10.8 337.1 10.1C337.1 9.40001 336.6 8.89999 335.9 8.89999C335.2 8.89999 334.7 9.40001 334.7 10.1C334.7 10.7 335.3 11.3 335.9 11.3Z" fill="white"/>
<path fill-rule="evenodd" clip-rule="evenodd" d="M341 11.3C341.7 11.3 342.2 10.8 342.2 10.1C342.2 9.40001 341.7 8.89999 341 8.89999C340.3 8.89999 339.8 9.40001 339.8 10.1C339.8 10.7 340.3 11.3 341 11.3Z" fill="white"/>
<path fill-rule="evenodd" clip-rule="evenodd" d="M346.1 11.3C346.8 11.3 347.3 10.8 347.3 10.1C347.3 9.40001 346.8 8.89999 346.1 8.89999C345.4 8.89999 344.9 9.40001 344.9 10.1C344.9 10.7 345.4 11.3 346.1 11.3Z" fill="white"/>
<path fill-rule="evenodd" clip-rule="evenodd" d="M351.1 11.3C351.8 11.3 352.3 10.8 352.3 10.1C352.3 9.40001 351.8 8.89999 351.1 8.89999C350.4 8.89999 349.9 9.40001 349.9 10.1C349.9 10.7 350.5 11.3 351.1 11.3Z" fill="white"/>
<path fill-rule="evenodd" clip-rule="evenodd" d="M356.2 11.3C356.9 11.3 357.4 10.8 357.4 10.1C357.4 9.40001 356.9 8.89999 356.2 8.89999C355.5 8.89999 355 9.40001 355 10.1C355 10.7 355.5 11.3 356.2 11.3Z" fill="white"/>
<path fill-rule="evenodd" clip-rule="evenodd" d="M361.2 11.3C361.9 11.3 362.4 10.8 362.4 10.1C362.4 9.40001 361.9 8.89999 361.2 8.89999C360.5 8.89999 360 9.40001 360 10.1C360.1 10.7 360.6 11.3 361.2 11.3Z" fill="white"/>
<path fill-rule="evenodd" clip-rule="evenodd" d="M366.3 11.3C367 11.3 367.5 10.8 367.5 10.1C367.5 9.40001 367 8.89999 366.3 8.89999C365.6 8.89999 365.1 9.40001 365.1 10.1C365.1 10.7 365.7 11.3 366.3 11.3Z" fill="white"/>
<path fill-rule="evenodd" clip-rule="evenodd" d="M371.4 11.3C372.1 11.3 372.6 10.8 372.6 10.1C372.6 9.40001 372.1 8.89999 371.4 8.89999C370.7 8.89999 370.2 9.40001 370.2 10.1C370.2 10.7 370.7 11.3 371.4 11.3Z" fill="white"/>
<path fill-rule="evenodd" clip-rule="evenodd" d="M376.4 11.3C377.1 11.3 377.6 10.8 377.6 10.1C377.6 9.40001 377.1 8.89999 376.4 8.89999C375.7 8.89999 375.2 9.40001 375.2 10.1C375.2 10.7 375.8 11.3 376.4 11.3Z" fill="white"/>
<path fill-rule="evenodd" clip-rule="evenodd" d="M381.5 11.3C382.2 11.3 382.7 10.8 382.7 10.1C382.7 9.40001 382.2 8.89999 381.5 8.89999C380.8 8.89999 380.3 9.40001 380.3 10.1C380.3 10.7 380.8 11.3 381.5 11.3Z" fill="white"/>
<path fill-rule="evenodd" clip-rule="evenodd" d="M386.6 11.3C387.3 11.3 387.8 10.8 387.8 10.1C387.8 9.40001 387.3 8.89999 386.6 8.89999C385.9 8.89999 385.4 9.40001 385.4 10.1C385.4 10.7 385.9 11.3 386.6 11.3Z" fill="white"/>
<path fill-rule="evenodd" clip-rule="evenodd" d="M391.6 11.3C392.3 11.3 392.8 10.8 392.8 10.1C392.8 9.40001 392.3 8.89999 391.6 8.89999C390.9 8.89999 390.4 9.40001 390.4 10.1C390.4 10.7 391 11.3 391.6 11.3Z" fill="white"/>
<path fill-rule="evenodd" clip-rule="evenodd" d="M386.6 15.5C387.3 15.5 387.8 15 387.8 14.3C387.8 13.6 387.3 13.1 386.6 13.1C385.9 13.1 385.4 13.6 385.4 14.3C385.4 15 385.9 15.5 386.6 15.5Z" fill="white"/>
<path fill-rule="evenodd" clip-rule="evenodd" d="M391.6 15.5C392.3 15.5 392.8 15 392.8 14.3C392.8 13.6 392.3 13.1 391.6 13.1C390.9 13.1 390.4 13.6 390.4 14.3C390.4 15 391 15.5 391.6 15.5Z" fill="white"/>
<path fill-rule="evenodd" clip-rule="evenodd" d="M386.6 19.3C387.3 19.3 387.8 18.8 387.8 18.1C387.8 17.4 387.3 16.9 386.6 16.9C385.9 16.9 385.4 17.4 385.4 18.1C385.4 18.8 385.9 19.3 386.6 19.3Z" fill="white"/>
<path fill-rule="evenodd" clip-rule="evenodd" d="M391.6 19.3C392.3 19.3 392.8 18.8 392.8 18.1C392.8 17.4 392.3 16.9 391.6 16.9C390.9 16.9 390.4 17.4 390.4 18.1C390.4 18.8 391 19.3 391.6 19.3Z" fill="white"/>
<path fill-rule="evenodd" clip-rule="evenodd" d="M386.6 23.1C387.3 23.1 387.8 22.6 387.8 21.9C387.8 21.2 387.3 20.7 386.6 20.7C385.9 20.7 385.4 21.2 385.4 21.9C385.4 22.6 385.9 23.1 386.6 23.1Z" fill="white"/>
<path fill-rule="evenodd" clip-rule="evenodd" d="M391.6 23.1C392.3 23.1 392.8 22.6 392.8 21.9C392.8 21.2 392.3 20.7 391.6 20.7C390.9 20.7 390.4 21.2 390.4 21.9C390.4 22.6 391 23.1 391.6 23.1Z" fill="white"/>
<path fill-rule="evenodd" clip-rule="evenodd" d="M386.6 27.4C387.3 27.4 387.8 26.9 387.8 26.2C387.8 25.5 387.3 25 386.6 25C385.9 25 385.4 25.5 385.4 26.2C385.4 26.9 385.9 27.4 386.6 27.4Z" fill="white"/>
<path fill-rule="evenodd" clip-rule="evenodd" d="M391.6 27.4C392.3 27.4 392.8 26.9 392.8 26.2C392.8 25.5 392.3 25 391.6 25C390.9 25 390.4 25.5 390.4 26.2C390.4 26.9 391 27.4 391.6 27.4Z" fill="white"/>
<path fill-rule="evenodd" clip-rule="evenodd" d="M386.6 31.2C387.3 31.2 387.8 30.7 387.8 30C387.8 29.3 387.3 28.8 386.6 28.8C385.9 28.8 385.4 29.3 385.4 30C385.4 30.7 385.9 31.2 386.6 31.2Z" fill="white"/>
<path fill-rule="evenodd" clip-rule="evenodd" d="M391.6 31.2C392.3 31.2 392.8 30.7 392.8 30C392.8 29.3 392.3 28.8 391.6 28.8C390.9 28.8 390.4 29.3 390.4 30C390.4 30.7 391 31.2 391.6 31.2Z" fill="white"/>
<path fill-rule="evenodd" clip-rule="evenodd" d="M386.6 35C387.3 35 387.8 34.5 387.8 33.8C387.8 33.1 387.3 32.6 386.6 32.6C385.9 32.6 385.4 33.1 385.4 33.8C385.4 34.5 385.9 35 386.6 35Z" fill="white"/>
<path fill-rule="evenodd" clip-rule="evenodd" d="M391.6 35C392.3 35 392.8 34.5 392.8 33.8C392.8 33.1 392.3 32.6 391.6 32.6C390.9 32.6 390.4 33.1 390.4 33.8C390.4 34.5 391 35 391.6 35Z" fill="white"/>
<path fill-rule="evenodd" clip-rule="evenodd" d="M386.6 39.3C387.3 39.3 387.8 38.8 387.8 38.1C387.8 37.4 387.3 36.9 386.6 36.9C385.9 36.9 385.4 37.4 385.4 38.1C385.4 38.7 385.9 39.3 386.6 39.3Z" fill="white"/>
<path fill-rule="evenodd" clip-rule="evenodd" d="M391.6 39.3C392.3 39.3 392.8 38.8 392.8 38.1C392.8 37.4 392.3 36.9 391.6 36.9C390.9 36.9 390.4 37.4 390.4 38.1C390.4 38.7 391 39.3 391.6 39.3Z" fill="white"/>
<path fill-rule="evenodd" clip-rule="evenodd" d="M386.6 43.1C387.3 43.1 387.8 42.6 387.8 41.9C387.8 41.2 387.3 40.7 386.6 40.7C385.9 40.7 385.4 41.2 385.4 41.9C385.4 42.5 385.9 43.1 386.6 43.1Z" fill="white"/>
<path fill-rule="evenodd" clip-rule="evenodd" d="M391.6 43.1C392.3 43.1 392.8 42.6 392.8 41.9C392.8 41.2 392.3 40.7 391.6 40.7C390.9 40.7 390.4 41.2 390.4 41.9C390.4 42.5 391 43.1 391.6 43.1Z" fill="white"/>
<path fill-rule="evenodd" clip-rule="evenodd" d="M386.6 46.8C387.3 46.8 387.8 46.3 387.8 45.6C387.8 44.9 387.3 44.4 386.6 44.4C385.9 44.4 385.4 44.9 385.4 45.6C385.4 46.3 385.9 46.8 386.6 46.8Z" fill="white"/>
<path fill-rule="evenodd" clip-rule="evenodd" d="M391.6 46.8C392.3 46.8 392.8 46.3 392.8 45.6C392.8 44.9 392.3 44.4 391.6 44.4C390.9 44.4 390.4 44.9 390.4 45.6C390.4 46.3 391 46.8 391.6 46.8Z" fill="white"/>
<path fill-rule="evenodd" clip-rule="evenodd" d="M386.6 51.1C387.3 51.1 387.8 50.6 387.8 49.9C387.8 49.2 387.3 48.7 386.6 48.7C385.9 48.7 385.4 49.2 385.4 49.9C385.4 50.6 385.9 51.1 386.6 51.1Z" fill="white"/>
<path fill-rule="evenodd" clip-rule="evenodd" d="M391.6 51.1C392.3 51.1 392.8 50.6 392.8 49.9C392.8 49.2 392.3 48.7 391.6 48.7C390.9 48.7 390.4 49.2 390.4 49.9C390.4 50.6 391 51.1 391.6 51.1Z" fill="white"/>
<path fill-rule="evenodd" clip-rule="evenodd" d="M386.6 54.9C387.3 54.9 387.8 54.4 387.8 53.7C387.8 53 387.3 52.5 386.6 52.5C385.9 52.5 385.4 53 385.4 53.7C385.4 54.4 385.9 54.9 386.6 54.9Z" fill="white"/>
<path fill-rule="evenodd" clip-rule="evenodd" d="M391.6 54.9C392.3 54.9 392.8 54.4 392.8 53.7C392.8 53 392.3 52.5 391.6 52.5C390.9 52.5 390.4 53 390.4 53.7C390.4 54.4 391 54.9 391.6 54.9Z" fill="white"/>
<path fill-rule="evenodd" clip-rule="evenodd" d="M386.6 58.7C387.3 58.7 387.8 58.2 387.8 57.5C387.8 56.8 387.3 56.3 386.6 56.3C385.9 56.3 385.4 56.8 385.4 57.5C385.4 58.2 385.9 58.7 386.6 58.7Z" fill="white"/>
<path fill-rule="evenodd" clip-rule="evenodd" d="M391.6 58.7C392.3 58.7 392.8 58.2 392.8 57.5C392.8 56.8 392.3 56.3 391.6 56.3C390.9 56.3 390.4 56.8 390.4 57.5C390.4 58.2 391 58.7 391.6 58.7Z" fill="white"/>
<path fill-rule="evenodd" clip-rule="evenodd" d="M386.6 63C387.3 63 387.8 62.5 387.8 61.8C387.8 61.1 387.3 60.6 386.6 60.6C385.9 60.6 385.4 61.1 385.4 61.8C385.4 62.4 385.9 63 386.6 63Z" fill="white"/>
<path fill-rule="evenodd" clip-rule="evenodd" d="M391.6 63C392.3 63 392.8 62.5 392.8 61.8C392.8 61.1 392.3 60.6 391.6 60.6C390.9 60.6 390.4 61.1 390.4 61.8C390.4 62.4 391 63 391.6 63Z" fill="white"/>
<path fill-rule="evenodd" clip-rule="evenodd" d="M386.6 66.8C387.3 66.8 387.8 66.3 387.8 65.6C387.8 64.9 387.3 64.4 386.6 64.4C385.9 64.4 385.4 64.9 385.4 65.6C385.4 66.2 385.9 66.8 386.6 66.8Z" fill="white"/>
<path fill-rule="evenodd" clip-rule="evenodd" d="M391.6 66.8C392.3 66.8 392.8 66.3 392.8 65.6C392.8 64.9 392.3 64.4 391.6 64.4C390.9 64.4 390.4 64.9 390.4 65.6C390.4 66.2 391 66.8 391.6 66.8Z" fill="white"/>
<path fill-rule="evenodd" clip-rule="evenodd" d="M386.6 70.6C387.3 70.6 387.8 70.1 387.8 69.4C387.8 68.7 387.3 68.2 386.6 68.2C385.9 68.2 385.4 68.7 385.4 69.4C385.4 70 385.9 70.6 386.6 70.6Z" fill="white"/>
<path fill-rule="evenodd" clip-rule="evenodd" d="M391.6 70.6C392.3 70.6 392.8 70.1 392.8 69.4C392.8 68.7 392.3 68.2 391.6 68.2C390.9 68.2 390.4 68.7 390.4 69.4C390.4 70 391 70.6 391.6 70.6Z" fill="white"/>
<path fill-rule="evenodd" clip-rule="evenodd" d="M386.6 74.8C387.3 74.8 387.8 74.3 387.8 73.6C387.8 72.9 387.3 72.4 386.6 72.4C385.9 72.4 385.4 72.9 385.4 73.6C385.4 74.3 385.9 74.8 386.6 74.8Z" fill="white"/>
<path fill-rule="evenodd" clip-rule="evenodd" d="M391.6 74.8C392.3 74.8 392.8 74.3 392.8 73.6C392.8 72.9 392.3 72.4 391.6 72.4C390.9 72.4 390.4 72.9 390.4 73.6C390.4 74.3 391 74.8 391.6 74.8Z" fill="white"/>
<path fill-rule="evenodd" clip-rule="evenodd" d="M386.6 78.6C387.3 78.6 387.8 78.1 387.8 77.4C387.8 76.7 387.3 76.2 386.6 76.2C385.9 76.2 385.4 76.7 385.4 77.4C385.4 78.1 385.9 78.6 386.6 78.6Z" fill="white"/>
<path fill-rule="evenodd" clip-rule="evenodd" d="M391.6 78.6C392.3 78.6 392.8 78.1 392.8 77.4C392.8 76.7 392.3 76.2 391.6 76.2C390.9 76.2 390.4 76.7 390.4 77.4C390.4 78.1 391 78.6 391.6 78.6Z" fill="white"/>
<path fill-rule="evenodd" clip-rule="evenodd" d="M386.6 82.4C387.3 82.4 387.8 81.9 387.8 81.2C387.8 80.5 387.3 80 386.6 80C385.9 80 385.4 80.5 385.4 81.2C385.4 81.9 385.9 82.4 386.6 82.4Z" fill="white"/>
<path fill-rule="evenodd" clip-rule="evenodd" d="M391.6 82.4C392.3 82.4 392.8 81.9 392.8 81.2C392.8 80.5 392.3 80 391.6 80C390.9 80 390.4 80.5 390.4 81.2C390.4 81.9 391 82.4 391.6 82.4Z" fill="white"/>
<path fill-rule="evenodd" clip-rule="evenodd" d="M386.6 86.7C387.3 86.7 387.8 86.2 387.8 85.5C387.8 84.8 387.3 84.3 386.6 84.3C385.9 84.3 385.4 84.8 385.4 85.5C385.4 86.2 385.9 86.7 386.6 86.7Z" fill="white"/>
<path fill-rule="evenodd" clip-rule="evenodd" d="M391.6 86.7C392.3 86.7 392.8 86.2 392.8 85.5C392.8 84.8 392.3 84.3 391.6 84.3C390.9 84.3 390.4 84.8 390.4 85.5C390.4 86.2 391 86.7 391.6 86.7Z" fill="white"/>
<path fill-rule="evenodd" clip-rule="evenodd" d="M386.6 90.5C387.3 90.5 387.8 90 387.8 89.3C387.8 88.6 387.3 88.1 386.6 88.1C385.9 88.1 385.4 88.6 385.4 89.3C385.4 90 385.9 90.5 386.6 90.5Z" fill="white"/>
<path fill-rule="evenodd" clip-rule="evenodd" d="M391.6 90.5C392.3 90.5 392.8 90 392.8 89.3C392.8 88.6 392.3 88.1 391.6 88.1C390.9 88.1 390.4 88.6 390.4 89.3C390.4 90 391 90.5 391.6 90.5Z" fill="white"/>
<path fill-rule="evenodd" clip-rule="evenodd" d="M386.6 94.3C387.3 94.3 387.8 93.8 387.8 93.1C387.8 92.4 387.3 91.9 386.6 91.9C385.9 91.9 385.4 92.4 385.4 93.1C385.4 93.8 385.9 94.3 386.6 94.3Z" fill="white"/>
<path fill-rule="evenodd" clip-rule="evenodd" d="M391.6 94.3C392.3 94.3 392.8 93.8 392.8 93.1C392.8 92.4 392.3 91.9 391.6 91.9C390.9 91.9 390.4 92.4 390.4 93.1C390.4 93.8 391 94.3 391.6 94.3Z" fill="white"/>
<path fill-rule="evenodd" clip-rule="evenodd" d="M386.6 98.5C387.3 98.5 387.8 98 387.8 97.3C387.8 96.6 387.3 96.1 386.6 96.1C385.9 96.1 385.4 96.6 385.4 97.3C385.4 98 385.9 98.5 386.6 98.5Z" fill="white"/>
<path fill-rule="evenodd" clip-rule="evenodd" d="M391.6 98.5C392.3 98.5 392.8 98 392.8 97.3C392.8 96.6 392.3 96.1 391.6 96.1C390.9 96.1 390.4 96.6 390.4 97.3C390.4 98 391 98.5 391.6 98.5Z" fill="white"/>
<path fill-rule="evenodd" clip-rule="evenodd" d="M386.6 102.3C387.3 102.3 387.8 101.8 387.8 101.1C387.8 100.4 387.3 99.9 386.6 99.9C385.9 99.9 385.4 100.4 385.4 101.1C385.4 101.8 385.9 102.3 386.6 102.3Z" fill="white"/>
<path fill-rule="evenodd" clip-rule="evenodd" d="M391.6 102.3C392.3 102.3 392.8 101.8 392.8 101.1C392.8 100.4 392.3 99.9 391.6 99.9C390.9 99.9 390.4 100.4 390.4 101.1C390.4 101.8 391 102.3 391.6 102.3Z" fill="white"/>
<path fill-rule="evenodd" clip-rule="evenodd" d="M386.6 106.1C387.3 106.1 387.8 105.6 387.8 104.9C387.8 104.2 387.3 103.7 386.6 103.7C385.9 103.7 385.4 104.2 385.4 104.9C385.4 105.6 385.9 106.1 386.6 106.1Z" fill="white"/>
<path fill-rule="evenodd" clip-rule="evenodd" d="M391.6 106.1C392.3 106.1 392.8 105.6 392.8 104.9C392.8 104.2 392.3 103.7 391.6 103.7C390.9 103.7 390.4 104.2 390.4 104.9C390.4 105.6 391 106.1 391.6 106.1Z" fill="white"/>
<path fill-rule="evenodd" clip-rule="evenodd" d="M386.6 110.4C387.3 110.4 387.8 109.9 387.8 109.2C387.8 108.5 387.3 108 386.6 108C385.9 108 385.4 108.5 385.4 109.2C385.4 109.9 385.9 110.4 386.6 110.4Z" fill="white"/>
<path fill-rule="evenodd" clip-rule="evenodd" d="M391.6 110.4C392.3 110.4 392.8 109.9 392.8 109.2C392.8 108.5 392.3 108 391.6 108C390.9 108 390.4 108.5 390.4 109.2C390.4 109.9 391 110.4 391.6 110.4Z" fill="white"/>
<path fill-rule="evenodd" clip-rule="evenodd" d="M386.6 114.2C387.3 114.2 387.8 113.7 387.8 113C387.8 112.3 387.3 111.8 386.6 111.8C385.9 111.8 385.4 112.3 385.4 113C385.4 113.7 385.9 114.2 386.6 114.2Z" fill="white"/>
<path fill-rule="evenodd" clip-rule="evenodd" d="M391.6 114.2C392.3 114.2 392.8 113.7 392.8 113C392.8 112.3 392.3 111.8 391.6 111.8C390.9 111.8 390.4 112.3 390.4 113C390.4 113.7 391 114.2 391.6 114.2Z" fill="white"/>
<path fill-rule="evenodd" clip-rule="evenodd" d="M386.6 118C387.3 118 387.8 117.5 387.8 116.8C387.8 116.1 387.3 115.6 386.6 115.6C385.9 115.6 385.4 116.1 385.4 116.8C385.4 117.5 385.9 118 386.6 118Z" fill="white"/>
<path fill-rule="evenodd" clip-rule="evenodd" d="M391.6 118C392.3 118 392.8 117.5 392.8 116.8C392.8 116.1 392.3 115.6 391.6 115.6C390.9 115.6 390.4 116.1 390.4 116.8C390.4 117.5 391 118 391.6 118Z" fill="white"/>
<path fill-rule="evenodd" clip-rule="evenodd" d="M386.6 122.3C387.3 122.3 387.8 121.8 387.8 121.1C387.8 120.4 387.3 119.9 386.6 119.9C385.9 119.9 385.4 120.4 385.4 121.1C385.4 121.7 385.9 122.3 386.6 122.3Z" fill="white"/>
<path fill-rule="evenodd" clip-rule="evenodd" d="M391.6 122.3C392.3 122.3 392.8 121.8 392.8 121.1C392.8 120.4 392.3 119.9 391.6 119.9C390.9 119.9 390.4 120.4 390.4 121.1C390.4 121.7 391 122.3 391.6 122.3Z" fill="white"/>
<path fill-rule="evenodd" clip-rule="evenodd" d="M386.6 126.1C387.3 126.1 387.8 125.6 387.8 124.9C387.8 124.2 387.3 123.7 386.6 123.7C385.9 123.7 385.4 124.2 385.4 124.9C385.4 125.5 385.9 126.1 386.6 126.1Z" fill="white"/>
<path fill-rule="evenodd" clip-rule="evenodd" d="M391.6 126.1C392.3 126.1 392.8 125.6 392.8 124.9C392.8 124.2 392.3 123.7 391.6 123.7C390.9 123.7 390.4 124.2 390.4 124.9C390.4 125.5 391 126.1 391.6 126.1Z" fill="white"/>
<path fill-rule="evenodd" clip-rule="evenodd" d="M386.6 129.9C387.3 129.9 387.8 129.4 387.8 128.7C387.8 128 387.3 127.5 386.6 127.5C385.9 127.5 385.4 128 385.4 128.7C385.4 129.3 385.9 129.9 386.6 129.9Z" fill="white"/>
<path fill-rule="evenodd" clip-rule="evenodd" d="M391.6 129.9C392.3 129.9 392.8 129.4 392.8 128.7C392.8 128 392.3 127.5 391.6 127.5C390.9 127.5 390.4 128 390.4 128.7C390.4 129.3 391 129.9 391.6 129.9Z" fill="white"/>
<path fill-rule="evenodd" clip-rule="evenodd" d="M386.6 134.1C387.3 134.1 387.8 133.6 387.8 132.9C387.8 132.2 387.3 131.7 386.6 131.7C385.9 131.7 385.4 132.2 385.4 132.9C385.4 133.6 385.9 134.1 386.6 134.1Z" fill="white"/>
<path fill-rule="evenodd" clip-rule="evenodd" d="M391.6 134.1C392.3 134.1 392.8 133.6 392.8 132.9C392.8 132.2 392.3 131.7 391.6 131.7C390.9 131.7 390.4 132.2 390.4 132.9C390.4 133.6 391 134.1 391.6 134.1Z" fill="white"/>
<path fill-rule="evenodd" clip-rule="evenodd" d="M386.6 137.9C387.3 137.9 387.8 137.4 387.8 136.7C387.8 136 387.3 135.5 386.6 135.5C385.9 135.5 385.4 136 385.4 136.7C385.4 137.4 385.9 137.9 386.6 137.9Z" fill="white"/>
<path fill-rule="evenodd" clip-rule="evenodd" d="M391.6 137.9C392.3 137.9 392.8 137.4 392.8 136.7C392.8 136 392.3 135.5 391.6 135.5C390.9 135.5 390.4 136 390.4 136.7C390.4 137.4 391 137.9 391.6 137.9Z" fill="white"/>
<path fill-rule="evenodd" clip-rule="evenodd" d="M386.6 141.7C387.3 141.7 387.8 141.2 387.8 140.5C387.8 139.8 387.3 139.3 386.6 139.3C385.9 139.3 385.4 139.8 385.4 140.5C385.4 141.2 385.9 141.7 386.6 141.7Z" fill="white"/>
<path fill-rule="evenodd" clip-rule="evenodd" d="M391.6 141.7C392.3 141.7 392.8 141.2 392.8 140.5C392.8 139.8 392.3 139.3 391.6 139.3C390.9 139.3 390.4 139.8 390.4 140.5C390.4 141.2 391 141.7 391.6 141.7Z" fill="white"/>
<path fill-rule="evenodd" clip-rule="evenodd" d="M386.6 146C387.3 146 387.8 145.5 387.8 144.8C387.8 144.1 387.3 143.6 386.6 143.6C385.9 143.6 385.4 144.1 385.4 144.8C385.4 145.5 385.9 146 386.6 146Z" fill="white"/>
<path fill-rule="evenodd" clip-rule="evenodd" d="M391.6 146C392.3 146 392.8 145.5 392.8 144.8C392.8 144.1 392.3 143.6 391.6 143.6C390.9 143.6 390.4 144.1 390.4 144.8C390.4 145.5 391 146 391.6 146Z" fill="white"/>
<path fill-rule="evenodd" clip-rule="evenodd" d="M386.6 149.8C387.3 149.8 387.8 149.3 387.8 148.6C387.8 147.9 387.3 147.4 386.6 147.4C385.9 147.4 385.4 147.9 385.4 148.6C385.4 149.2 385.9 149.8 386.6 149.8Z" fill="white"/>
<path fill-rule="evenodd" clip-rule="evenodd" d="M391.6 149.8C392.3 149.8 392.8 149.3 392.8 148.6C392.8 147.9 392.3 147.4 391.6 147.4C390.9 147.4 390.4 147.9 390.4 148.6C390.4 149.2 391 149.8 391.6 149.8Z" fill="white"/>
<path fill-rule="evenodd" clip-rule="evenodd" d="M386.6 153.6C387.3 153.6 387.8 153.1 387.8 152.4C387.8 151.7 387.3 151.2 386.6 151.2C385.9 151.2 385.4 151.7 385.4 152.4C385.4 153 385.9 153.6 386.6 153.6Z" fill="white"/>
<path fill-rule="evenodd" clip-rule="evenodd" d="M391.6 153.6C392.3 153.6 392.8 153.1 392.8 152.4C392.8 151.7 392.3 151.2 391.6 151.2C390.9 151.2 390.4 151.7 390.4 152.4C390.4 153 391 153.6 391.6 153.6Z" fill="white"/>
<path fill-rule="evenodd" clip-rule="evenodd" d="M386.6 157.8C387.3 157.8 387.8 157.3 387.8 156.6C387.8 155.9 387.3 155.4 386.6 155.4C385.9 155.4 385.4 155.9 385.4 156.6C385.4 157.3 385.9 157.8 386.6 157.8Z" fill="white"/>
<path fill-rule="evenodd" clip-rule="evenodd" d="M391.6 157.8C392.3 157.8 392.8 157.3 392.8 156.6C392.8 155.9 392.3 155.4 391.6 155.4C390.9 155.4 390.4 155.9 390.4 156.6C390.4 157.3 391 157.8 391.6 157.8Z" fill="white"/>
<path fill-rule="evenodd" clip-rule="evenodd" d="M386.6 161.6C387.3 161.6 387.8 161.1 387.8 160.4C387.8 159.7 387.3 159.2 386.6 159.2C385.9 159.2 385.4 159.7 385.4 160.4C385.4 161.1 385.9 161.6 386.6 161.6Z" fill="white"/>
<path fill-rule="evenodd" clip-rule="evenodd" d="M391.6 161.6C392.3 161.6 392.8 161.1 392.8 160.4C392.8 159.7 392.3 159.2 391.6 159.2C390.9 159.2 390.4 159.7 390.4 160.4C390.4 161.1 391 161.6 391.6 161.6Z" fill="white"/>
<path fill-rule="evenodd" clip-rule="evenodd" d="M386.6 165.4C387.3 165.4 387.8 164.9 387.8 164.2C387.8 163.5 387.3 163 386.6 163C385.9 163 385.4 163.5 385.4 164.2C385.4 164.9 385.9 165.4 386.6 165.4Z" fill="white"/>
<path fill-rule="evenodd" clip-rule="evenodd" d="M391.6 165.4C392.3 165.4 392.8 164.9 392.8 164.2C392.8 163.5 392.3 163 391.6 163C390.9 163 390.4 163.5 390.4 164.2C390.4 164.9 391 165.4 391.6 165.4Z" fill="white"/>
</svg>
