<svg width="195" height="198" viewBox="0 0 107 110" fill="none" xmlns="http://www.w3.org/2000/svg">
<path d="M62.8597 99.17C86.1985 93.7146 100.696 70.3724 95.2404 47.0336C89.785 23.6948 66.4428 9.19748 43.104 14.6529C19.7652 20.1082 5.26789 43.4505 10.7233 66.7893C16.1786 90.128 39.5209 104.625 62.8597 99.17Z" fill="black"/>
<path fill-rule="evenodd" clip-rule="evenodd" d="M53 14.6C56.8 14.6 60.6 15.1 64.1 16.1H41.9C45.5 15.1 49.2 14.6 53 14.6ZM65.4 16.5C66.7 16.9 67.9 17.3 69.1 17.8H36.9C38.1 17.3 39.4 16.8 40.6 16.5H65.4ZM70 18.2C70.9 18.6 71.9 19.1 72.8 19.5H33.4C34.3 19 35.2 18.6 36.2 18.2H70ZM73.4 19.9C74.2 20.3 74.9 20.8 75.7 21.2H30.4C31.1 20.7 31.9 20.3 32.7 19.9H73.4ZM76.2 21.6C76.9 22 77.5 22.5 78.1 22.9H27.9C28.5 22.4 29.2 22 29.8 21.6H76.2ZM78.6 23.3C79.2 23.7 79.7 24.2 80.3 24.6H25.8C26.3 24.1 26.9 23.7 27.5 23.3H78.6ZM80.7 25C81.2 25.4 81.7 25.9 82.2 26.3H23.9C24.4 25.8 24.9 25.4 25.4 25H80.7ZM82.6 26.7C83 27.1 83.5 27.6 83.9 28H22.2C22.6 27.5 23.1 27.1 23.5 26.7H82.6ZM84.2 28.4C84.6 28.8 85 29.3 85.4 29.7H20.7C21.1 29.2 21.5 28.8 21.9 28.4H84.2ZM85.7 30.1C86.1 30.5 86.4 31 86.8 31.4H19.4C19.7 30.9 20.1 30.5 20.5 30.1H85.7ZM87 31.8C87.3 32.2 87.6 32.7 88 33.1H18.1C18.4 32.6 18.7 32.2 19.1 31.8H87ZM88.2 33.5C88.5 33.9 88.8 34.4 89.1 34.8H17C17.3 34.3 17.6 33.9 17.9 33.5H88.2ZM89.3 35.2C89.6 35.6 89.8 36.1 90.1 36.5H16C16.3 36 16.5 35.6 16.8 35.2H89.3ZM90.3 36.9C90.5 37.3 90.8 37.8 91 38.2H15.1C15.3 37.7 15.6 37.3 15.8 36.9H90.3ZM91.1 38.6C91.3 39 91.5 39.5 91.7 39.9H14.3C14.5 39.4 14.7 39 14.9 38.6H91.1ZM91.9 40.3C92.1 40.7 92.3 41.2 92.4 41.6H13.5C13.7 41.1 13.9 40.7 14 40.3H91.9ZM92.6 41.9C92.8 42.3 92.9 42.8 93.1 43.2H13C13.2 42.7 13.3 42.3 13.5 41.9H92.6ZM93.2 43.6C93.3 44 93.5 44.5 93.6 44.9H12.4C12.5 44.4 12.7 44 12.8 43.6H93.2ZM93.7 45.3C93.8 45.7 93.9 46.2 94.1 46.6H12C12.1 46.1 12.2 45.7 12.4 45.3H93.7ZM94.2 47C94.3 47.4 94.4 47.9 94.5 48.3H11.6C11.7 47.9 11.8 47.4 11.9 47H94.2ZM94.5 48.7C94.6 49.1 94.7 49.6 94.7 50H11.2C11.3 49.6 11.4 49.1 11.4 48.7H94.5ZM94.8 50.4C94.9 50.8 94.9 51.3 95 51.7H11C11.1 51.3 11.1 50.8 11.2 50.4H94.8ZM95.1 52.1C95.2 52.5 95.2 53 95.2 53.4H10.9C10.9 53 11 52.5 11 52.1H95.1ZM95.2 53.8C95.2 54.2 95.3 54.7 95.3 55.1H10.8C10.8 54.7 10.8 54.2 10.9 53.8H95.2ZM95.3 55.5C95.3 55.9 95.3 56.4 95.3 56.8H10.7C10.7 56.4 10.7 55.9 10.7 55.5H95.3ZM95.3 57.2C95.3 57.6 95.3 58.1 95.3 58.5H10.8C10.8 58.1 10.8 57.6 10.8 57.2H95.3ZM95.3 58.9C95.3 59.3 95.2 59.8 95.2 60.2H10.9C10.9 59.8 10.8 59.3 10.8 58.9H95.3ZM95.1 60.6C95.1 61 95 61.5 95 61.9H11C10.9 61.5 10.9 61 10.9 60.6H95.1ZM95 62.3C94.9 62.7 94.9 63.2 94.8 63.6H11.3C11.2 63.2 11.2 62.7 11.1 62.3H95ZM94.7 64C94.6 64.5 94.5 64.9 94.4 65.3H11.5C11.4 64.9 11.3 64.4 11.2 64H94.7ZM94.4 65.7C94.3 66.1 94.2 66.6 94.1 67H12C11.9 66.6 11.8 66.1 11.7 65.7H94.4ZM94 67.4C93.9 67.9 93.8 68.3 93.6 68.7H12.4C12.3 68.3 12.1 67.8 12 67.4H94ZM93.5 69.1C93.4 69.6 93.2 70 93.1 70.4H13C12.8 70 12.7 69.5 12.6 69.1H93.5ZM93 70.8C92.8 71.3 92.7 71.7 92.5 72.1H13.6C13.4 71.7 13.3 71.2 13.1 70.8H93ZM92.3 72.5C92.1 73 91.9 73.4 91.7 73.8H14.2C14 73.4 13.8 72.9 13.6 72.5H92.3ZM91.6 74.2C91.4 74.7 91.2 75.1 91 75.5H15.1C14.9 75.1 14.7 74.6 14.5 74.2H91.6ZM90.8 75.9C90.6 76.4 90.3 76.8 90.1 77.2H16C15.8 76.8 15.5 76.3 15.3 75.9H90.8ZM89.9 77.6C89.6 78.1 89.4 78.5 89.1 78.9H16.9C16.6 78.5 16.4 78 16.1 77.6H89.9ZM88.9 79.3C88.6 79.8 88.3 80.2 88 80.6H18C17.7 80.2 17.4 79.7 17.1 79.3H88.9ZM87.8 81C87.5 81.5 87.2 81.9 86.8 82.3H19.3C19 81.9 18.6 81.4 18.3 81H87.8ZM86.5 82.7C86.1 83.2 85.8 83.6 85.4 84H20.6C20.2 83.6 19.9 83.1 19.5 82.7H86.5ZM85.1 84.4C84.7 84.9 84.3 85.3 83.9 85.7H22.1C21.7 85.3 21.3 84.8 20.9 84.4H85.1ZM83.6 86.1C83.2 86.6 82.7 87 82.3 87.4H23.8C23.3 87 22.9 86.5 22.5 86.1H83.6ZM81.9 87.8C81.4 88.3 80.9 88.7 80.4 89.1H25.7C25.2 88.7 24.7 88.2 24.2 87.8H81.9ZM79.9 89.5C79.3 90 78.8 90.4 78.2 90.8H27.8C27.2 90.4 26.6 89.9 26.1 89.5H79.9ZM77.8 91.2C77.2 91.7 76.5 92.1 75.8 92.5H30.3C29.6 92.1 29 91.6 28.3 91.2H77.8ZM75.2 92.9C74.4 93.4 73.7 93.8 72.9 94.2H33.2C32.4 93.8 31.6 93.3 30.9 92.9H75.2ZM72.2 94.6C71.3 95.1 70.3 95.5 69.3 95.9H36.7C35.7 95.5 34.8 95 33.8 94.6H72.2ZM68.4 96.3C67.1 96.8 65.8 97.3 64.4 97.6H41.6C40.2 97.2 38.9 96.8 37.6 96.3H68.4ZM63 98C59.8 98.8 56.4 99.2 53 99.2C49.5 99.2 46.2 98.8 43 98H63Z" fill="#CFA600"/>
<path d="M61.6818 94.0038C82.1704 89.2083 94.8923 68.7115 90.0968 48.2228C85.3013 27.7342 64.8045 15.0124 44.3158 19.8079C23.8272 24.6033 11.1054 45.1002 15.9008 65.5888C20.6963 86.0775 41.1932 98.7993 61.6818 94.0038Z" fill="black"/>
<path fill-rule="evenodd" clip-rule="evenodd" d="M53 19.8C56.2 19.8 59.3 20.2 62.2 20.9L58.2 24.2L58.5 24.6L62.8 21C64.2 21.4 65.6 21.8 66.9 22.4L64.8 24.2L65.1 24.6L67.4 22.7C69.4 23.6 71.4 24.6 73.2 25.8L71.3 27.4L71.6 27.8L73.6 26.1C74.2 26.5 74.7 26.9 75.2 27.3L71.2 30.6L71.5 31L75.6 27.6C76.6 28.4 77.5 29.2 78.5 30L77.8 30.6L78.1 31L78.8 30.4C79.3 30.8 79.7 31.3 80.1 31.8L77.7 33.8L78 34.2L80.4 32.2C80.8 32.7 81.2 33.2 81.6 33.7L77.7 37L78 37.4L81.9 34.1C83.2 35.7 84.3 37.4 85.3 39.2L84.2 40.1L84.5 40.5L85.5 39.6C85.8 40.2 86.1 40.8 86.4 41.4L84.2 43.3L84.5 43.7L86.6 41.9C86.9 42.5 87.1 43.1 87.4 43.8L84.2 46.5L84.5 46.9L87.6 44.3C87.8 44.9 88.1 45.6 88.3 46.3L84.2 49.7L84.5 50.1L88.4 46.9C89.4 50.2 89.9 53.7 89.9 57.3C89.9 61.1 89.3 64.9 88.2 68.3L84.2 71.7L84.5 72.1L87.9 69.2C87.5 70.5 87 71.7 86.4 73L84.2 74.9L84.5 75.3L85.9 74.1C84.5 76.8 82.8 79.3 80.9 81.6L77.7 84.3L78 84.6C75.2 87.1 72.1 89.3 68.7 90.9L69.3 90.4L69 90L67.1 91.6C65.6 92.2 64.1 92.7 62.5 93.2H62.4C61.1 93.5 59.8 93.8 58.4 94L62.8 90.4L62.5 90L58.1 93.6L58.4 94C57.4 94.2 56.3 94.3 55.2 94.3L56.2 93.5L55.9 93.1L54.4 94.3C53.9 94.3 53.4 94.3 52.9 94.3C51.5 94.3 50.2 94.2 48.9 94.1L49.7 93.4L49.4 93L48.2 94C47.4 93.9 46.5 93.8 45.7 93.6L49.7 90.3L49.4 89.9L45.1 93.5C43.6 93.2 42.2 92.8 40.8 92.3L43.2 90.3L42.9 89.9L40.3 92.1C39 91.6 37.7 91.1 36.5 90.5L36.7 90.3L36.4 89.9L36 90.2C35.4 89.9 34.8 89.6 34.2 89.2L36.7 87.1L36.4 86.7L33.8 88.9C32 87.8 30.3 86.6 28.7 85.2L30.2 84L29.9 83.6L28.4 84.9C27.9 84.5 27.4 84 27 83.6L30.2 80.9L29.9 80.5L26.6 83.2C25.2 81.7 23.9 80.2 22.7 78.5L23.6 77.7L23.3 77.3L22.4 78.1C22 77.6 21.7 77 21.3 76.5L23.6 74.6L23.3 74.2L21.1 76C20.8 75.4 20.5 74.9 20.1 74.3L23.6 71.4L23.3 71L19.9 73.8C18.5 71.1 17.5 68.3 16.8 65.3L17 65.1L16.7 64.7C16.5 64 16.4 63.3 16.3 62.5L17 61.9L16.7 61.5L16.2 61.9C16.1 61.1 16 60.4 16 59.6L17 58.7L16.7 58.3L15.9 58.9C15.9 58.2 15.8 57.6 15.8 56.9C15.8 56.7 15.8 56.6 15.8 56.4L16.9 55.5L16.6 55.1L15.8 55.8C15.8 54.9 15.9 54 16 53.2L16.9 52.4L16.6 52L16.1 52.4C16.2 51.4 16.4 50.5 16.6 49.5L17 49.2L16.7 48.9C17.4 45.5 18.6 42.4 20.2 39.4L23.5 36.6L23.2 36.2L20.9 38.2C25.5 30.3 33 24.2 41.9 21.4L38.6 24.2L38.9 24.6L43.1 21.1C46.2 20.3 49.6 19.8 53 19.8ZM23.6 68.1L23.3 67.7L18.9 71.3L19.2 71.7L23.6 68.1ZM23.6 64.9L23.3 64.5L18.9 68.1L19.2 68.5L23.6 64.9ZM23.6 61.8L23.3 61.4L18.9 65L19.2 65.4L23.6 61.8ZM23.6 58.6L23.3 58.2L18.9 61.8L19.2 62.2L23.6 58.6ZM23.6 55.5L23.3 55.1L18.9 58.7L19.2 59.1L23.6 55.5ZM23.6 52.4L23.3 52L18.9 55.6L19.2 56L23.6 52.4ZM23.6 49.2L23.3 48.8L18.9 52.4L19.2 52.8L23.6 49.2ZM23.6 46.1L23.3 45.7L18.9 49.3L19.2 49.7L23.6 46.1ZM23.6 43L23.3 42.6L18.9 46.2L19.2 46.6L23.6 43ZM23.6 39.8L23.3 39.4L18.9 43L19.2 43.4L23.6 39.8ZM30.1 77.5L29.8 77.1L25.4 80.7L25.7 81.1L30.1 77.5ZM30.1 74.3L29.8 73.9L25.4 77.5L25.7 77.9L30.1 74.3ZM30.1 71.2L29.8 70.8L25.4 74.4L25.7 74.8L30.1 71.2ZM30.1 68.1L29.8 67.7L25.4 71.3L25.7 71.7L30.1 68.1ZM30.1 64.9L29.8 64.5L25.4 68.1L25.7 68.5L30.1 64.9ZM30.1 61.8L29.8 61.4L25.4 65L25.7 65.4L30.1 61.8ZM30.1 58.6L29.8 58.2L25.4 61.8L25.7 62.2L30.1 58.6ZM30.1 55.5L29.8 55.1L25.4 58.7L25.7 59.1L30.1 55.5ZM30.1 52.4L29.8 52L25.4 55.6L25.7 56L30.1 52.4ZM30.1 49.2L29.8 48.8L25.4 52.4L25.7 52.8L30.1 49.2ZM30.1 46.1L29.8 45.7L25.4 49.3L25.7 49.7L30.1 46.1ZM30.1 43L29.8 42.6L25.4 46.2L25.7 46.6L30.1 43ZM30.1 39.8L29.8 39.4L25.4 43L25.7 43.4L30.1 39.8ZM30.1 36.7L29.8 36.3L25.4 39.9L25.7 40.3L30.1 36.7ZM30.1 33.5L29.8 33.1L25.4 36.7L25.7 37.1L30.1 33.5ZM30.1 30.4L29.8 30L25.4 33.6L25.7 34L30.1 30.4ZM36.7 83.8L36.4 83.4L32 87L32.3 87.4L36.7 83.8ZM36.7 80.6L36.4 80.2L32 83.8L32.3 84.2L36.7 80.6ZM36.7 77.5L36.4 77.1L32 80.7L32.3 81.1L36.7 77.5ZM36.7 74.3L36.4 73.9L32 77.5L32.3 77.9L36.7 74.3ZM36.7 71.2L36.4 70.8L32 74.4L32.3 74.8L36.7 71.2ZM36.7 68.1L36.4 67.7L32 71.3L32.3 71.7L36.7 68.1ZM36.7 64.9L36.4 64.5L32 68.1L32.3 68.5L36.7 64.9ZM36.7 61.8L36.4 61.4L32 65L32.3 65.4L36.7 61.8ZM36.7 58.6L36.4 58.2L32 61.8L32.3 62.2L36.7 58.6ZM36.7 55.5L36.4 55.1L32 58.7L32.3 59.1L36.7 55.5ZM36.7 52.4L36.4 52L32 55.6L32.3 56L36.7 52.4ZM36.7 49.2L36.4 48.8L32 52.4L32.3 52.8L36.7 49.2ZM36.7 46.1L36.4 45.7L32 49.3L32.3 49.7L36.7 46.1ZM36.7 43L36.4 42.6L32 46.2L32.3 46.6L36.7 43ZM36.7 39.8L36.4 39.4L32 43L32.3 43.4L36.7 39.8ZM36.7 36.7L36.4 36.3L32 39.9L32.3 40.3L36.7 36.7ZM36.7 33.5L36.4 33.1L32 36.7L32.3 37.1L36.7 33.5ZM36.7 30.4L36.4 30L32 33.6L32.3 34L36.7 30.4ZM36.7 27.3L36.4 26.9L32 30.5L32.3 30.9L36.7 27.3ZM36.7 24.1L36.4 23.7L32 27.3L32.3 27.7L36.7 24.1ZM43.2 86.9L42.9 86.5L38.5 90.1L38.8 90.5L43.2 86.9ZM43.2 83.8L42.9 83.4L38.5 87L38.8 87.4L43.2 83.8ZM43.2 80.6L42.9 80.2L38.5 83.8L38.8 84.2L43.2 80.6ZM43.2 77.5L42.9 77.1L38.5 80.7L38.8 81.1L43.2 77.5ZM43.2 74.3L42.9 73.9L38.5 77.5L38.8 77.9L43.2 74.3ZM43.2 71.2L42.9 70.8L38.5 74.4L38.8 74.8L43.2 71.2ZM43.2 68.1L42.9 67.7L38.5 71.3L38.8 71.7L43.2 68.1ZM43.2 64.9L42.9 64.5L38.5 68.1L38.8 68.5L43.2 64.9ZM43.2 61.8L42.9 61.4L38.5 65L38.8 65.4L43.2 61.8ZM43.2 58.6L42.9 58.2L38.5 61.8L38.8 62.2L43.2 58.6ZM43.2 55.5L42.9 55.1L38.5 58.7L38.8 59.1L43.2 55.5ZM43.2 52.4L42.9 52L38.5 55.6L38.8 56L43.2 52.4ZM43.2 49.2L42.9 48.8L38.5 52.4L38.8 52.8L43.2 49.2ZM43.2 46.1L42.9 45.7L38.5 49.3L38.8 49.7L43.2 46.1ZM43.2 43L42.9 42.6L38.5 46.2L38.8 46.6L43.2 43ZM43.2 39.8L42.9 39.4L38.5 43L38.8 43.4L43.2 39.8ZM43.2 36.7L42.9 36.3L38.5 39.9L38.8 40.3L43.2 36.7ZM43.2 33.5L42.9 33.1L38.5 36.7L38.8 37.1L43.2 33.5ZM43.2 30.4L42.9 30L38.5 33.6L38.8 34L43.2 30.4ZM43.2 27.3L42.9 26.9L38.5 30.5L38.8 30.9L43.2 27.3ZM43.2 24.1L42.9 23.7L38.5 27.3L38.8 27.7L43.2 24.1ZM49.8 86.9L49.5 86.5L45.1 90.1L45.4 90.5L49.8 86.9ZM49.8 83.8L49.5 83.4L45.1 87L45.4 87.4L49.8 83.8ZM49.8 80.6L49.5 80.2L45.1 83.8L45.4 84.2L49.8 80.6ZM49.8 77.5L49.5 77.1L45.1 80.7L45.4 81.1L49.8 77.5ZM49.8 74.3L49.5 73.9L45.1 77.5L45.4 77.9L49.8 74.3ZM49.8 71.2L49.5 70.8L45.1 74.4L45.4 74.8L49.8 71.2ZM49.8 68.1L49.5 67.7L45.1 71.3L45.4 71.7L49.8 68.1ZM49.8 64.9L49.5 64.5L45.1 68.1L45.4 68.5L49.8 64.9ZM49.8 61.8L49.5 61.4L45.1 65L45.4 65.4L49.8 61.8ZM49.8 58.6L49.5 58.2L45.1 61.8L45.4 62.2L49.8 58.6ZM49.8 55.5L49.5 55.1L45.1 58.7L45.4 59.1L49.8 55.5ZM49.8 52.4L49.5 52L45.1 55.6L45.4 56L49.8 52.4ZM49.8 49.2L49.5 48.8L45.1 52.4L45.4 52.8L49.8 49.2ZM49.8 46.1L49.5 45.7L45.1 49.3L45.4 49.7L49.8 46.1ZM49.8 43L49.5 42.6L45.1 46.2L45.4 46.6L49.8 43ZM49.8 39.8L49.5 39.4L45.1 43L45.4 43.4L49.8 39.8ZM49.8 36.7L49.5 36.3L45.1 39.9L45.4 40.3L49.8 36.7ZM49.8 33.5L49.5 33.1L45.1 36.7L45.4 37.1L49.8 33.5ZM49.8 30.4L49.5 30L45.1 33.6L45.4 34L49.8 30.4ZM49.8 27.3L49.5 26.9L45.1 30.5L45.4 30.9L49.8 27.3ZM49.8 24.1L49.5 23.7L45.1 27.3L45.4 27.7L49.8 24.1ZM49.8 21L49.5 20.6L45.1 24.2L45.4 24.6L49.8 21ZM56.4 90L56.1 89.6L51.7 93.2L52 93.6L56.4 90ZM56.4 86.9L56.1 86.5L51.7 90.1L52 90.5L56.4 86.9ZM56.4 83.8L56.1 83.4L51.7 87L52 87.4L56.4 83.8ZM56.4 80.6L56.1 80.2L51.7 83.8L52 84.2L56.4 80.6ZM56.4 77.5L56.1 77.1L51.7 80.7L52 81.1L56.4 77.5ZM56.4 74.3L56 74L51.6 77.6L52 78L56.4 74.3ZM56.4 71.2L56.1 70.8L51.7 74.4L52 74.8L56.4 71.2ZM56.4 68.1L56.1 67.7L51.7 71.3L52 71.7L56.4 68.1ZM56.4 64.9L56.1 64.5L51.7 68.1L52 68.5L56.4 64.9ZM56.4 61.8L56.1 61.4L51.7 65L52 65.4L56.4 61.8ZM56.4 58.6L56.1 58.2L51.7 61.8L52 62.2L56.4 58.6ZM56.4 55.5L56.1 55.1L51.7 58.7L52 59.1L56.4 55.5ZM56.4 52.4L56 52L51.6 55.6L52 56L56.4 52.4ZM56.4 49.2L56.1 48.8L51.7 52.4L52 52.8L56.4 49.2ZM56.4 46.1L56.1 45.7L51.7 49.3L52 49.7L56.4 46.1ZM56.4 43L56.1 42.6L51.7 46.2L52 46.6L56.4 43ZM56.4 39.8L56.1 39.4L51.7 43L52 43.4L56.4 39.8ZM56.4 36.7L56.1 36.3L51.7 39.9L52 40.3L56.4 36.7ZM56.4 33.5L56.1 33.1L51.7 36.7L52 37.1L56.4 33.5ZM56.4 30.4L56 30L51.6 33.6L52 34L56.4 30.4ZM56.4 27.3L56.1 26.9L51.7 30.5L52 30.9L56.4 27.3ZM56.4 24.1L56.1 23.7L51.7 27.3L52 27.7L56.4 24.1ZM56.4 21L56.1 20.6L51.7 24.2L52 24.6L56.4 21ZM62.9 86.9L62.6 86.5L58.2 90.1L58.5 90.5L62.9 86.9ZM62.9 83.8L62.6 83.4L58.2 87L58.5 87.4L62.9 83.8ZM62.9 80.6L62.6 80.2L58.2 83.8L58.5 84.2L62.9 80.6ZM62.9 77.5L62.6 77.1L58.2 80.7L58.5 81.1L62.9 77.5ZM62.9 74.3L62.6 73.9L58.2 77.5L58.5 77.9L62.9 74.3ZM62.9 71.2L62.6 70.8L58.2 74.4L58.5 74.8L62.9 71.2ZM62.9 68.1L62.6 67.7L58.2 71.3L58.5 71.7L62.9 68.1ZM62.9 64.9L62.6 64.5L58.2 68.1L58.5 68.5L62.9 64.9ZM62.9 61.8L62.6 61.4L58.2 65L58.5 65.4L62.9 61.8ZM62.9 58.6L62.6 58.2L58.2 61.8L58.5 62.2L62.9 58.6ZM62.9 55.5L62.6 55.1L58.2 58.7L58.5 59.1L62.9 55.5ZM62.9 52.4L62.6 52L58.2 55.6L58.5 56L62.9 52.4ZM62.9 49.2L62.6 48.8L58.2 52.4L58.5 52.8L62.9 49.2ZM62.9 46.1L62.6 45.7L58.2 49.3L58.5 49.7L62.9 46.1ZM62.9 43L62.6 42.6L58.2 46.2L58.5 46.6L62.9 43ZM62.9 39.8L62.6 39.4L58.2 43L58.5 43.4L62.9 39.8ZM62.9 36.7L62.6 36.3L58.2 39.9L58.5 40.3L62.9 36.7ZM62.9 33.5L62.6 33.1L58.2 36.7L58.5 37.1L62.9 33.5ZM62.9 30.4L62.6 30L58.2 33.6L58.5 34L62.9 30.4ZM62.9 27.3L62.6 26.9L58.2 30.5L58.5 30.9L62.9 27.3ZM62.9 24.1L62.6 23.7L58.2 27.3L58.5 27.7L62.9 24.1ZM69.5 86.9L69.2 86.5L64.8 90.1L65.1 90.5L69.5 86.9ZM69.5 83.8L69.2 83.4L64.8 87L65.1 87.4L69.5 83.8ZM69.5 80.6L69.2 80.2L64.8 83.8L65.1 84.2L69.5 80.6ZM69.5 77.5L69.2 77.1L64.8 80.7L65.1 81.1L69.5 77.5ZM69.5 74.3L69.2 73.9L64.8 77.5L65.1 77.9L69.5 74.3ZM69.5 71.2L69.2 70.8L64.8 74.4L65.1 74.8L69.5 71.2ZM69.5 68.1L69.2 67.7L64.8 71.3L65.1 71.7L69.5 68.1ZM69.5 64.9L69.2 64.5L64.8 68.1L65.1 68.5L69.5 64.9ZM69.5 61.8L69.2 61.4L64.8 65L65.1 65.4L69.5 61.8ZM69.5 58.6L69.2 58.2L64.8 61.8L65.1 62.2L69.5 58.6ZM69.5 55.5L69.2 55.1L64.8 58.7L65.1 59.1L69.5 55.5ZM69.5 52.4L69.2 52L64.8 55.6L65.1 56L69.5 52.4ZM69.5 49.2L69.2 48.8L64.8 52.4L65.1 52.8L69.5 49.2ZM69.5 46.1L69.2 45.7L64.8 49.3L65.1 49.7L69.5 46.1ZM69.5 43L69.2 42.6L64.8 46.2L65.1 46.6L69.5 43ZM69.5 39.8L69.2 39.4L64.8 43L65.1 43.4L69.5 39.8ZM69.5 36.7L69.2 36.3L64.8 39.9L65.1 40.3L69.5 36.7ZM69.5 33.5L69.2 33.1L64.8 36.7L65.1 37.1L69.5 33.5ZM69.5 30.4L69.2 30L64.8 33.6L65.1 34L69.5 30.4ZM69.5 27.3L69.2 26.9L64.8 30.5L65.1 30.9L69.5 27.3ZM69.5 24.1L69.2 23.7L64.8 27.3L65.1 27.7L69.5 24.1ZM76 83.8L75.7 83.4L71.3 87L71.6 87.4L76 83.8ZM76 80.6L75.7 80.2L71.3 83.8L71.6 84.2L76 80.6ZM76 77.5L75.7 77.1L71.3 80.7L71.6 81.1L76 77.5ZM76 74.3L75.7 73.9L71.3 77.5L71.6 77.9L76 74.3ZM76 71.2L75.7 70.8L71.3 74.4L71.6 74.8L76 71.2ZM76 68.1L75.7 67.7L71.3 71.3L71.6 71.7L76 68.1ZM76 64.9L75.7 64.5L71.3 68.1L71.6 68.5L76 64.9ZM76 61.8L75.7 61.4L71.3 65L71.6 65.4L76 61.8ZM76 58.6L75.7 58.2L71.3 61.8L71.6 62.2L76 58.6ZM76 55.5L75.7 55.1L71.3 58.7L71.6 59.1L76 55.5ZM76 52.4L75.7 52L71.3 55.6L71.6 56L76 52.4ZM76 49.2L75.7 48.8L71.3 52.4L71.6 52.8L76 49.2ZM76 46.1L75.7 45.7L71.3 49.3L71.6 49.7L76 46.1ZM76 43L75.7 42.6L71.3 46.2L71.6 46.6L76 43ZM76 39.8L75.7 39.4L71.3 43L71.6 43.4L76 39.8ZM76 36.7L75.7 36.3L71.3 39.9L71.6 40.3L76 36.7ZM76 33.5L75.7 33.1L71.3 36.7L71.6 37.1L76 33.5ZM76 30.4L75.7 30L71.3 33.6L71.6 34L76 30.4ZM82.6 77.5L82.3 77.1L77.9 80.7L78.2 81.1L82.6 77.5ZM82.6 74.3L82.3 73.9L77.9 77.5L78.2 77.9L82.6 74.3ZM82.6 71.2L82.3 70.8L77.9 74.4L78.2 74.8L82.6 71.2ZM82.6 68.1L82.3 67.7L77.9 71.3L78.2 71.7L82.6 68.1ZM82.6 64.9L82.3 64.5L77.9 68.1L78.2 68.5L82.6 64.9ZM82.6 61.8L82.3 61.4L77.9 65L78.2 65.4L82.6 61.8ZM82.6 58.6L82.3 58.2L77.9 61.8L78.2 62.2L82.6 58.6ZM82.6 55.5L82.3 55.1L77.9 58.7L78.2 59.1L82.6 55.5ZM82.6 52.4L82.3 52L77.9 55.6L78.2 56L82.6 52.4ZM82.6 49.2L82.3 48.8L77.9 52.4L78.2 52.8L82.6 49.2ZM82.6 46.1L82.3 45.7L77.9 49.3L78.2 49.7L82.6 46.1ZM82.6 43L82.3 42.6L77.9 46.2L78.2 46.6L82.6 43ZM82.6 39.8L82.3 39.4L77.9 43L78.2 43.4L82.6 39.8ZM82.6 36.7L82.3 36.3L77.9 39.9L78.2 40.3L82.6 36.7ZM89.1 64.9L88.8 64.5L84.4 68.1L84.7 68.5L89.1 64.9ZM89.1 61.8L88.8 61.4L84.4 65L84.7 65.4L89.1 61.8ZM89.1 58.6L88.8 58.2L84.4 61.8L84.7 62.2L89.1 58.6ZM89.1 55.5L88.8 55.1L84.4 58.7L84.7 59.1L89.1 55.5ZM89.1 52.4L88.8 52L84.4 55.6L84.7 56L89.1 52.4ZM89.1 49.2L88.8 48.8L84.4 52.4L84.7 52.8L89.1 49.2Z" fill="#C3799E"/>
<path d="M60.0425 86.9996C76.6575 83.1052 86.9697 66.479 83.0753 49.864C79.1809 33.2489 62.5548 22.9367 45.9397 26.8311C29.3246 30.7255 19.0125 47.3517 22.9068 63.9667C26.8012 80.5818 43.4274 90.8939 60.0425 86.9996Z" fill="black" stroke="black" stroke-width="0.5669" stroke-miterlimit="22.9256"/>
<path fill-rule="evenodd" clip-rule="evenodd" d="M53 26.9C55 26.9 57 27.1 58.9 27.5C58.4 27.8 58.1 28.3 58.1 28.8C58.1 29.6 58.8 30.3 59.6 30.3C60.4 30.3 61.1 29.6 61.1 28.8C61.1 28.5 61 28.2 60.8 27.9C61.9 28.2 62.9 28.5 63.9 28.9C64 29.7 64.6 30.3 65.4 30.3C65.7 30.3 66 30.2 66.3 30C67.6 30.7 68.8 31.4 70 32.2C69.8 32.4 69.7 32.7 69.7 33.1C69.7 33.9 70.4 34.6 71.2 34.6C71.7 34.6 72.1 34.4 72.4 34.1C73.5 35.1 74.6 36.1 75.6 37.3V37.4C75.6 38.2 76.2 38.8 76.9 38.9C77.3 39.4 77.7 40 78 40.5C77.7 40.3 77.4 40.2 77.1 40.2C76.3 40.2 75.6 40.9 75.6 41.7C75.6 42.5 76.3 43.2 77.1 43.2C77.9 43.2 78.6 42.5 78.6 41.7C78.6 41.6 78.6 41.5 78.6 41.4C80.1 43.8 81.2 46.5 81.9 49.3C81.6 49.6 81.4 50 81.4 50.4C81.4 51.1 81.8 51.6 82.4 51.8C82.5 52.3 82.5 52.7 82.6 53.2C81.9 53.4 81.4 54 81.4 54.7C81.4 55.5 82 56.2 82.8 56.2C82.8 56.4 82.8 56.6 82.8 56.7C82.8 57 82.8 57.2 82.8 57.5C82 57.6 81.4 58.2 81.4 59C81.4 59.7 81.9 60.3 82.6 60.5C82.5 61 82.5 61.5 82.4 61.9C81.8 62.1 81.5 62.7 81.5 63.3C81.5 63.7 81.7 64.1 81.9 64.3C81.2 67 80.1 69.6 78.7 72V71.9C78.7 71.1 78 70.4 77.2 70.4C76.4 70.4 75.7 71.1 75.7 71.9C75.7 72.7 76.4 73.4 77.2 73.4C77.5 73.4 77.7 73.3 77.9 73.2C77.6 73.7 77.2 74.2 76.8 74.7C76.2 74.9 75.7 75.4 75.6 76.1C74.6 77.3 73.5 78.4 72.3 79.4C72 79.1 71.7 79 71.3 79C70.5 79 69.8 79.7 69.8 80.5C69.8 80.8 69.9 81 70 81.2C68.8 82 67.5 82.8 66.2 83.5C66 83.4 65.8 83.3 65.5 83.3C64.8 83.3 64.2 83.8 64 84.4C63 84.8 62 85.1 61 85.4C61.1 85.2 61.1 85 61.1 84.8C61.1 84 60.4 83.3 59.6 83.3C58.8 83.3 58.1 84 58.1 84.8C58.1 85.3 58.3 85.7 58.6 86C56.8 86.4 54.8 86.5 52.9 86.5C51.4 86.5 49.9 86.4 48.5 86.2C49 86 49.4 85.4 49.4 84.8C49.4 84 48.7 83.3 47.9 83.3C47.1 83.3 46.4 84 46.4 84.8C46.4 85.2 46.6 85.6 46.9 85.9C45.8 85.7 44.7 85.4 43.6 85C43.6 84.9 43.6 84.9 43.6 84.8C43.6 84 42.9 83.3 42.1 83.3C41.6 83.3 41.1 83.6 40.8 84C39.4 83.4 38.1 82.7 36.9 81.9C37.4 81.7 37.8 81.1 37.8 80.5C37.8 79.7 37.1 79 36.3 79C35.5 79 34.9 79.6 34.8 80.4C33.6 79.5 32.5 78.5 31.4 77.4C31.7 77.1 31.9 76.7 31.9 76.2C31.9 75.4 31.2 74.7 30.4 74.7C30 74.7 29.7 74.8 29.4 75.1C27.9 73.1 26.6 71 25.6 68.7C25.9 68.4 26.1 68 26.1 67.6C26.1 66.8 25.4 66.1 24.6 66.1C24.5 65.7 24.3 65.2 24.2 64.8C24.3 64.8 24.5 64.9 24.6 64.9C25.4 64.9 26.1 64.2 26.1 63.4C26.1 62.6 25.4 61.9 24.6 61.9C24.2 61.9 23.8 62 23.6 62.3C23.4 61.5 23.3 60.6 23.2 59.7C23.4 60.2 24 60.6 24.6 60.6C25.4 60.6 26.1 59.9 26.1 59.1C26.1 58.3 25.4 57.6 24.6 57.6C23.9 57.6 23.3 58.1 23.1 58.7C23.1 58.1 23 57.5 23 56.8C23 56.2 23 55.7 23 55.1C23.2 55.8 23.8 56.3 24.5 56.3C25.3 56.3 26 55.6 26 54.8C26 54 25.3 53.3 24.5 53.3C23.9 53.3 23.3 53.7 23.1 54.3C23.2 53.4 23.3 52.5 23.5 51.6C23.8 51.9 24.1 52 24.6 52C25.4 52 26.1 51.3 26.1 50.5C26.1 49.7 25.4 49 24.6 49C24.4 49 24.3 49 24.1 49.1C24.2 48.6 24.4 48.2 24.5 47.7H24.6C25.4 47.7 26.1 47 26.1 46.2C26.1 45.7 25.9 45.3 25.5 45C26.5 42.7 27.8 40.5 29.3 38.6C29.6 38.9 30 39.1 30.4 39.1C31.2 39.1 31.9 38.4 31.9 37.6C31.9 37.1 31.6 36.6 31.2 36.3C32.3 35.2 33.4 34.1 34.7 33.2C34.7 34 35.4 34.7 36.2 34.7C37 34.7 37.7 34 37.7 33.2C37.7 32.5 37.3 31.9 36.6 31.7C37.9 30.9 39.2 30.1 40.6 29.5C40.9 30 41.4 30.3 42 30.3C42.8 30.3 43.5 29.6 43.5 28.8C43.5 28.7 43.5 28.5 43.4 28.4C44.6 28 45.9 27.7 47.2 27.4C46.7 27.6 46.3 28.2 46.3 28.8C46.3 29.6 47 30.3 47.8 30.3C48.6 30.3 49.3 29.6 49.3 28.8C49.3 28 48.7 27.3 47.9 27.3C49.7 27.1 51.3 26.9 53 26.9ZM77.3 66.3C76.5 66.3 75.8 67 75.8 67.8C75.8 68.6 76.5 69.3 77.3 69.3C78.1 69.3 78.8 68.6 78.8 67.8C78.8 67 78.1 66.3 77.3 66.3ZM77.3 62C76.5 62 75.8 62.7 75.8 63.5C75.8 64.3 76.5 65 77.3 65C78.1 65 78.8 64.3 78.8 63.5C78.8 62.7 78.1 62 77.3 62ZM77.3 57.7C76.5 57.7 75.8 58.4 75.8 59.2C75.8 60 76.5 60.7 77.3 60.7C78.1 60.7 78.8 60 78.8 59.2C78.8 58.4 78.1 57.7 77.3 57.7ZM77.3 53.3C76.5 53.3 75.8 54 75.8 54.8C75.8 55.6 76.5 56.3 77.3 56.3C78.1 56.3 78.8 55.6 78.8 54.8C78.8 54 78.1 53.3 77.3 53.3ZM77.3 49C76.5 49 75.8 49.7 75.8 50.5C75.8 51.3 76.5 52 77.3 52C78.1 52 78.8 51.3 78.8 50.5C78.8 49.7 78.1 49 77.3 49ZM77.3 44.7C76.5 44.7 75.8 45.4 75.8 46.2C75.8 47 76.5 47.7 77.3 47.7C78.1 47.7 78.8 47 78.8 46.2C78.8 45.4 78.1 44.7 77.3 44.7ZM71.4 75C70.6 75 69.9 75.7 69.9 76.5C69.9 77.3 70.6 78 71.4 78C72.2 78 72.9 77.3 72.9 76.5C72.9 75.7 72.3 75 71.4 75ZM71.4 70.7C70.6 70.7 69.9 71.4 69.9 72.2C69.9 73 70.6 73.7 71.4 73.7C72.2 73.7 72.9 73 72.9 72.2C72.9 71.4 72.3 70.7 71.4 70.7ZM71.4 66.3C70.6 66.3 69.9 67 69.9 67.8C69.9 68.6 70.6 69.3 71.4 69.3C72.2 69.3 72.9 68.6 72.9 67.8C72.9 67 72.3 66.3 71.4 66.3ZM71.4 62C70.6 62 69.9 62.7 69.9 63.5C69.9 64.3 70.6 65 71.4 65C72.2 65 72.9 64.3 72.9 63.5C72.9 62.7 72.3 62 71.4 62ZM71.4 57.7C70.6 57.7 69.9 58.4 69.9 59.2C69.9 60 70.6 60.7 71.4 60.7C72.2 60.7 72.9 60 72.9 59.2C72.9 58.4 72.3 57.7 71.4 57.7ZM71.4 53.3C70.6 53.3 69.9 54 69.9 54.8C69.9 55.6 70.6 56.3 71.4 56.3C72.2 56.3 72.9 55.6 72.9 54.8C72.9 54 72.3 53.3 71.4 53.3ZM71.4 49C70.6 49 69.9 49.7 69.9 50.5C69.9 51.3 70.6 52 71.4 52C72.2 52 72.9 51.3 72.9 50.5C72.9 49.7 72.3 49 71.4 49ZM71.4 44.7C70.6 44.7 69.9 45.4 69.9 46.2C69.9 47 70.6 47.7 71.4 47.7C72.2 47.7 72.9 47 72.9 46.2C72.9 45.4 72.3 44.7 71.4 44.7ZM71.4 40.3C70.6 40.3 69.9 41 69.9 41.8C69.9 42.6 70.6 43.3 71.4 43.3C72.2 43.3 72.9 42.6 72.9 41.8C72.9 41 72.3 40.3 71.4 40.3ZM71.4 36C70.6 36 69.9 36.7 69.9 37.5C69.9 38.3 70.6 39 71.4 39C72.2 39 72.9 38.3 72.9 37.5C72.9 36.7 72.3 36 71.4 36ZM65.6 79.4C64.8 79.4 64.1 80.1 64.1 80.9C64.1 81.7 64.8 82.4 65.6 82.4C66.4 82.4 67.1 81.7 67.1 80.9C67.1 80.1 66.4 79.4 65.6 79.4ZM65.6 75C64.8 75 64.1 75.7 64.1 76.5C64.1 77.3 64.8 78 65.6 78C66.4 78 67.1 77.3 67.1 76.5C67.1 75.7 66.4 75 65.6 75ZM65.6 70.7C64.8 70.7 64.1 71.4 64.1 72.2C64.1 73 64.8 73.7 65.6 73.7C66.4 73.7 67.1 73 67.1 72.2C67.1 71.4 66.4 70.7 65.6 70.7ZM65.6 66.3C64.8 66.3 64.1 67 64.1 67.8C64.1 68.6 64.8 69.3 65.6 69.3C66.4 69.3 67.1 68.6 67.1 67.8C67.1 67 66.4 66.3 65.6 66.3ZM65.6 62C64.8 62 64.1 62.7 64.1 63.5C64.1 64.3 64.8 65 65.6 65C66.4 65 67.1 64.3 67.1 63.5C67.1 62.7 66.4 62 65.6 62ZM65.6 57.7C64.8 57.7 64.1 58.4 64.1 59.2C64.1 60 64.8 60.7 65.6 60.7C66.4 60.7 67.1 60 67.1 59.2C67.1 58.4 66.4 57.7 65.6 57.7ZM65.6 53.3C64.8 53.3 64.1 54 64.1 54.8C64.1 55.6 64.8 56.3 65.6 56.3C66.4 56.3 67.1 55.6 67.1 54.8C67.1 54 66.4 53.3 65.6 53.3ZM65.6 49C64.8 49 64.1 49.7 64.1 50.5C64.1 51.3 64.8 52 65.6 52C66.4 52 67.1 51.3 67.1 50.5C67.1 49.7 66.4 49 65.6 49ZM65.6 44.7C64.8 44.7 64.1 45.4 64.1 46.2C64.1 47 64.8 47.7 65.6 47.7C66.4 47.7 67.1 47 67.1 46.2C67.1 45.4 66.4 44.7 65.6 44.7ZM65.6 40.3C64.8 40.3 64.1 41 64.1 41.8C64.1 42.6 64.8 43.3 65.6 43.3C66.4 43.3 67.1 42.6 67.1 41.8C67.1 41 66.4 40.3 65.6 40.3ZM65.6 36C64.8 36 64.1 36.7 64.1 37.5C64.1 38.3 64.8 39 65.6 39C66.4 39 67.1 38.3 67.1 37.5C67.1 36.7 66.4 36 65.6 36ZM65.6 31.7C64.8 31.7 64.1 32.4 64.1 33.2C64.1 34 64.8 34.7 65.6 34.7C66.4 34.7 67.1 34 67.1 33.2C67.1 32.3 66.4 31.7 65.6 31.7ZM59.7 79.4C58.9 79.4 58.2 80.1 58.2 80.9C58.2 81.7 58.9 82.4 59.7 82.4C60.5 82.4 61.2 81.7 61.2 80.9C61.2 80.1 60.5 79.4 59.7 79.4ZM59.7 75C58.9 75 58.2 75.7 58.2 76.5C58.2 77.3 58.9 78 59.7 78C60.5 78 61.2 77.3 61.2 76.5C61.2 75.7 60.5 75 59.7 75ZM59.7 70.7C58.9 70.7 58.2 71.4 58.2 72.2C58.2 73 58.9 73.7 59.7 73.7C60.5 73.7 61.2 73 61.2 72.2C61.2 71.4 60.5 70.7 59.7 70.7ZM59.7 66.3C58.9 66.3 58.2 67 58.2 67.8C58.2 68.6 58.9 69.3 59.7 69.3C60.5 69.3 61.2 68.6 61.2 67.8C61.2 67 60.5 66.3 59.7 66.3ZM59.7 62C58.9 62 58.2 62.7 58.2 63.5C58.2 64.3 58.9 65 59.7 65C60.5 65 61.2 64.3 61.2 63.5C61.2 62.7 60.5 62 59.7 62ZM59.7 57.7C58.9 57.7 58.2 58.4 58.2 59.2C58.2 60 58.9 60.7 59.7 60.7C60.5 60.7 61.2 60 61.2 59.2C61.2 58.4 60.5 57.7 59.7 57.7ZM59.7 53.3C58.9 53.3 58.2 54 58.2 54.8C58.2 55.6 58.9 56.3 59.7 56.3C60.5 56.3 61.2 55.6 61.2 54.8C61.2 54 60.5 53.3 59.7 53.3ZM59.7 49C58.9 49 58.2 49.7 58.2 50.5C58.2 51.3 58.9 52 59.7 52C60.5 52 61.2 51.3 61.2 50.5C61.2 49.7 60.5 49 59.7 49ZM59.7 44.7C58.9 44.7 58.2 45.4 58.2 46.2C58.2 47 58.9 47.7 59.7 47.7C60.5 47.7 61.2 47 61.2 46.2C61.2 45.4 60.5 44.7 59.7 44.7ZM59.7 40.3C58.9 40.3 58.2 41 58.2 41.8C58.2 42.6 58.9 43.3 59.7 43.3C60.5 43.3 61.2 42.6 61.2 41.8C61.2 41 60.5 40.3 59.7 40.3ZM59.7 36C58.9 36 58.2 36.7 58.2 37.5C58.2 38.3 58.9 39 59.7 39C60.5 39 61.2 38.3 61.2 37.5C61.2 36.7 60.5 36 59.7 36ZM59.7 31.7C58.9 31.7 58.2 32.4 58.2 33.2C58.2 34 58.9 34.7 59.7 34.7C60.5 34.7 61.2 34 61.2 33.2C61.2 32.3 60.5 31.7 59.7 31.7ZM53.8 83.7C53 83.7 52.3 84.4 52.3 85.2C52.3 86 53 86.7 53.8 86.7C54.6 86.7 55.3 86 55.3 85.2C55.4 84.4 54.7 83.7 53.8 83.7ZM53.8 79.4C53 79.4 52.3 80.1 52.3 80.9C52.3 81.7 53 82.4 53.8 82.4C54.6 82.4 55.3 81.7 55.3 80.9C55.3 80.1 54.7 79.4 53.8 79.4ZM53.8 75C53 75 52.3 75.7 52.3 76.5C52.3 77.3 53 78 53.8 78C54.6 78 55.3 77.3 55.3 76.5C55.3 75.7 54.7 75 53.8 75ZM53.8 70.7C53 70.7 52.3 71.4 52.3 72.2C52.3 73 53 73.7 53.8 73.7C54.6 73.7 55.3 73 55.3 72.2C55.3 71.4 54.7 70.7 53.8 70.7ZM53.8 66.3C53 66.3 52.3 67 52.3 67.8C52.3 68.6 53 69.3 53.8 69.3C54.6 69.3 55.3 68.6 55.3 67.8C55.4 67 54.7 66.3 53.8 66.3ZM53.8 62C53 62 52.3 62.7 52.3 63.5C52.3 64.3 53 65 53.8 65C54.6 65 55.3 64.3 55.3 63.5C55.4 62.7 54.7 62 53.8 62ZM53.8 57.7C53 57.7 52.3 58.4 52.3 59.2C52.3 60 53 60.7 53.8 60.7C54.6 60.7 55.3 60 55.3 59.2C55.4 58.4 54.7 57.7 53.8 57.7ZM53.8 53.3C53 53.3 52.3 54 52.3 54.8C52.3 55.6 53 56.3 53.8 56.3C54.6 56.3 55.3 55.6 55.3 54.8C55.3 54 54.7 53.3 53.8 53.3ZM53.8 49C53 49 52.3 49.7 52.3 50.5C52.3 51.3 53 52 53.8 52C54.6 52 55.3 51.3 55.3 50.5C55.4 49.7 54.7 49 53.8 49ZM53.8 44.7C53 44.7 52.3 45.4 52.3 46.2C52.3 47 53 47.7 53.8 47.7C54.6 47.7 55.3 47 55.3 46.2C55.4 45.4 54.7 44.7 53.8 44.7ZM53.8 40.3C53 40.3 52.3 41 52.3 41.8C52.3 42.6 53 43.3 53.8 43.3C54.6 43.3 55.3 42.6 55.3 41.8C55.3 41 54.7 40.3 53.8 40.3ZM53.8 36C53 36 52.3 36.7 52.3 37.5C52.3 38.3 53 39 53.8 39C54.6 39 55.3 38.3 55.3 37.5C55.4 36.7 54.7 36 53.8 36ZM53.8 31.7C53 31.7 52.3 32.4 52.3 33.2C52.3 34 53 34.7 53.8 34.7C54.6 34.7 55.3 34 55.3 33.2C55.4 32.3 54.7 31.7 53.8 31.7ZM53.8 27.3C53 27.3 52.3 28 52.3 28.8C52.3 29.6 53 30.3 53.8 30.3C54.6 30.3 55.3 29.6 55.3 28.8C55.4 28 54.7 27.3 53.8 27.3ZM48 79.4C47.2 79.4 46.5 80.1 46.5 80.9C46.5 81.7 47.2 82.4 48 82.4C48.8 82.4 49.5 81.7 49.5 80.9C49.5 80.1 48.8 79.4 48 79.4ZM48 75C47.2 75 46.5 75.7 46.5 76.5C46.5 77.3 47.2 78 48 78C48.8 78 49.5 77.3 49.5 76.5C49.5 75.7 48.8 75 48 75ZM48 70.7C47.2 70.7 46.5 71.4 46.5 72.2C46.5 73 47.2 73.7 48 73.7C48.8 73.7 49.5 73 49.5 72.2C49.5 71.4 48.8 70.7 48 70.7ZM48 66.3C47.2 66.3 46.5 67 46.5 67.8C46.5 68.6 47.2 69.3 48 69.3C48.8 69.3 49.5 68.6 49.5 67.8C49.5 67 48.8 66.3 48 66.3ZM48 62C47.2 62 46.5 62.7 46.5 63.5C46.5 64.3 47.2 65 48 65C48.8 65 49.5 64.3 49.5 63.5C49.5 62.7 48.8 62 48 62ZM48 57.7C47.2 57.7 46.5 58.4 46.5 59.2C46.5 60 47.2 60.7 48 60.7C48.8 60.7 49.5 60 49.5 59.2C49.5 58.4 48.8 57.7 48 57.7ZM48 53.3C47.2 53.3 46.5 54 46.5 54.8C46.5 55.6 47.2 56.3 48 56.3C48.8 56.3 49.5 55.6 49.5 54.8C49.5 54 48.8 53.3 48 53.3ZM48 49C47.2 49 46.5 49.7 46.5 50.5C46.5 51.3 47.2 52 48 52C48.8 52 49.5 51.3 49.5 50.5C49.5 49.7 48.8 49 48 49ZM48 44.7C47.2 44.7 46.5 45.4 46.5 46.2C46.5 47 47.2 47.7 48 47.7C48.8 47.7 49.5 47 49.5 46.2C49.5 45.4 48.8 44.7 48 44.7ZM48 40.3C47.2 40.3 46.5 41 46.5 41.8C46.5 42.6 47.2 43.3 48 43.3C48.8 43.3 49.5 42.6 49.5 41.8C49.5 41 48.8 40.3 48 40.3ZM48 36C47.2 36 46.5 36.7 46.5 37.5C46.5 38.3 47.2 39 48 39C48.8 39 49.5 38.3 49.5 37.5C49.5 36.7 48.8 36 48 36ZM48 31.7C47.2 31.7 46.5 32.4 46.5 33.2C46.5 34 47.2 34.7 48 34.7C48.8 34.7 49.5 34 49.5 33.2C49.5 32.3 48.8 31.7 48 31.7ZM42.1 79.4C41.3 79.4 40.6 80.1 40.6 80.9C40.6 81.7 41.3 82.4 42.1 82.4C42.9 82.4 43.6 81.7 43.6 80.9C43.6 80.1 43 79.4 42.1 79.4ZM42.1 75C41.3 75 40.6 75.7 40.6 76.5C40.6 77.3 41.3 78 42.1 78C42.9 78 43.6 77.3 43.6 76.5C43.6 75.7 43 75 42.1 75ZM42.1 70.7C41.3 70.7 40.6 71.4 40.6 72.2C40.6 73 41.3 73.7 42.1 73.7C42.9 73.7 43.6 73 43.6 72.2C43.6 71.4 43 70.7 42.1 70.7ZM42.1 66.3C41.3 66.3 40.6 67 40.6 67.8C40.6 68.6 41.3 69.3 42.1 69.3C42.9 69.3 43.6 68.6 43.6 67.8C43.7 67 43 66.3 42.1 66.3ZM42.1 62C41.3 62 40.6 62.7 40.6 63.5C40.6 64.3 41.3 65 42.1 65C42.9 65 43.6 64.3 43.6 63.5C43.7 62.7 43 62 42.1 62ZM42.1 57.7C41.3 57.7 40.6 58.4 40.6 59.2C40.6 60 41.3 60.7 42.1 60.7C42.9 60.7 43.6 60 43.6 59.2C43.7 58.4 43 57.7 42.1 57.7ZM42.1 53.3C41.3 53.3 40.6 54 40.6 54.8C40.6 55.6 41.3 56.3 42.1 56.3C42.9 56.3 43.6 55.6 43.6 54.8C43.6 54 43 53.3 42.1 53.3ZM42.1 49C41.3 49 40.6 49.7 40.6 50.5C40.6 51.3 41.3 52 42.1 52C42.9 52 43.6 51.3 43.6 50.5C43.7 49.7 43 49 42.1 49ZM42.1 44.7C41.3 44.7 40.6 45.4 40.6 46.2C40.6 47 41.3 47.7 42.1 47.7C42.9 47.7 43.6 47 43.6 46.2C43.7 45.4 43 44.7 42.1 44.7ZM42.1 40.3C41.3 40.3 40.6 41 40.6 41.8C40.6 42.6 41.3 43.3 42.1 43.3C42.9 43.3 43.6 42.6 43.6 41.8C43.6 41 43 40.3 42.1 40.3ZM42.1 36C41.3 36 40.6 36.7 40.6 37.5C40.6 38.3 41.3 39 42.1 39C42.9 39 43.6 38.3 43.6 37.5C43.7 36.7 43 36 42.1 36ZM42.1 31.7C41.3 31.7 40.6 32.4 40.6 33.2C40.6 34 41.3 34.7 42.1 34.7C42.9 34.7 43.6 34 43.6 33.2C43.7 32.3 43 31.7 42.1 31.7ZM36.3 75C35.5 75 34.8 75.7 34.8 76.5C34.8 77.3 35.5 78 36.3 78C37.1 78 37.8 77.3 37.8 76.5C37.8 75.7 37.1 75 36.3 75ZM36.3 70.7C35.5 70.7 34.8 71.4 34.8 72.2C34.8 73 35.5 73.7 36.3 73.7C37.1 73.7 37.8 73 37.8 72.2C37.8 71.4 37.1 70.7 36.3 70.7ZM36.3 66.3C35.5 66.3 34.8 67 34.8 67.8C34.8 68.6 35.5 69.3 36.3 69.3C37.1 69.3 37.8 68.6 37.8 67.8C37.8 67 37.1 66.3 36.3 66.3ZM36.3 62C35.5 62 34.8 62.7 34.8 63.5C34.8 64.3 35.5 65 36.3 65C37.1 65 37.8 64.3 37.8 63.5C37.8 62.7 37.1 62 36.3 62ZM36.3 57.7C35.5 57.7 34.8 58.4 34.8 59.2C34.8 60 35.5 60.7 36.3 60.7C37.1 60.7 37.8 60 37.8 59.2C37.8 58.4 37.1 57.7 36.3 57.7ZM36.3 53.3C35.5 53.3 34.8 54 34.8 54.8C34.8 55.6 35.5 56.3 36.3 56.3C37.1 56.3 37.8 55.6 37.8 54.8C37.8 54 37.1 53.3 36.3 53.3ZM36.3 49C35.5 49 34.8 49.7 34.8 50.5C34.8 51.3 35.5 52 36.3 52C37.1 52 37.8 51.3 37.8 50.5C37.8 49.7 37.1 49 36.3 49ZM36.3 44.7C35.5 44.7 34.8 45.4 34.8 46.2C34.8 47 35.5 47.7 36.3 47.7C37.1 47.7 37.8 47 37.8 46.2C37.8 45.4 37.1 44.7 36.3 44.7ZM36.3 40.3C35.5 40.3 34.8 41 34.8 41.8C34.8 42.6 35.5 43.3 36.3 43.3C37.1 43.3 37.8 42.6 37.8 41.8C37.8 41 37.1 40.3 36.3 40.3ZM36.3 36C35.5 36 34.8 36.7 34.8 37.5C34.8 38.3 35.5 39 36.3 39C37.1 39 37.8 38.3 37.8 37.5C37.8 36.7 37.1 36 36.3 36ZM30.4 70.7C29.6 70.7 28.9 71.4 28.9 72.2C28.9 73 29.6 73.7 30.4 73.7C31.2 73.7 31.9 73 31.9 72.2C31.9 71.4 31.3 70.7 30.4 70.7ZM30.4 66.3C29.6 66.3 28.9 67 28.9 67.8C28.9 68.6 29.6 69.3 30.4 69.3C31.2 69.3 31.9 68.6 31.9 67.8C31.9 67 31.3 66.3 30.4 66.3ZM30.4 62C29.6 62 28.9 62.7 28.9 63.5C28.9 64.3 29.6 65 30.4 65C31.2 65 31.9 64.3 31.9 63.5C31.9 62.7 31.3 62 30.4 62ZM30.4 57.7C29.6 57.7 28.9 58.4 28.9 59.2C28.9 60 29.6 60.7 30.4 60.7C31.2 60.7 31.9 60 31.9 59.2C31.9 58.4 31.3 57.7 30.4 57.7ZM30.4 53.3C29.6 53.3 28.9 54 28.9 54.8C28.9 55.6 29.6 56.3 30.4 56.3C31.2 56.3 31.9 55.6 31.9 54.8C31.9 54 31.3 53.3 30.4 53.3ZM30.4 49C29.6 49 28.9 49.7 28.9 50.5C28.9 51.3 29.6 52 30.4 52C31.2 52 31.9 51.3 31.9 50.5C31.9 49.7 31.3 49 30.4 49ZM30.4 44.7C29.6 44.7 28.9 45.4 28.9 46.2C28.9 47 29.6 47.7 30.4 47.7C31.2 47.7 31.9 47 31.9 46.2C31.9 45.4 31.3 44.7 30.4 44.7ZM30.4 40.3C29.6 40.3 28.9 41 28.9 41.8C28.9 42.6 29.6 43.3 30.4 43.3C31.2 43.3 31.9 42.6 31.9 41.8C31.9 41 31.3 40.3 30.4 40.3Z" fill="#3599BD"/>
<path fill-rule="evenodd" clip-rule="evenodd" d="M42.7 42.8C44.3 45.4 45.9 48.2 46.5 51.3C46.8 52.8 46.6 54.9 47.3 56.3C47.5 56.7 48.2 56.3 47.9 55.9C47.1 54.5 47.4 51.9 47 50.2C46.3 47.5 44.8 44.8 43.3 42.5C43.1 41.9 42.5 42.4 42.7 42.8Z" fill="#EBECEC"/>
<path fill-rule="evenodd" clip-rule="evenodd" d="M51.8 43.5C53.3 43.3 54.7 42.7 56 42C56.4 41.8 56.2 41 55.7 41.3C54.4 42 53.1 42.5 51.7 42.7C51.2 42.8 51.3 43.6 51.8 43.5Z" fill="#EBECEC"/>
<path fill-rule="evenodd" clip-rule="evenodd" d="M53.3 42.8C53.6 44.4 53.7 46.1 53.4 47.7C53.3 48.2 54.1 48.3 54.2 47.8C54.6 46.1 54.4 44.4 54.1 42.7C53.9 42.2 53.2 42.3 53.3 42.8Z" fill="#EBECEC"/>
<path fill-rule="evenodd" clip-rule="evenodd" d="M53.8 48.1C55.5 47.4 57.1 46.3 59 46.2C59.5 46.2 59.4 45.4 58.9 45.4C56.9 45.5 55.3 46.6 53.5 47.3C53.1 47.5 53.4 48.3 53.8 48.1Z" fill="#EBECEC"/>
<path fill-rule="evenodd" clip-rule="evenodd" d="M58.9 45.1C58.8 45.9 58.9 47 59.9 47C60.1 47 60.3 46.8 60.2 46.6C60.2 46.4 60 46.3 59.8 46.3C59.8 46.3 59.8 46.3 59.8 46.2C59.8 46.1 59.7 46 59.7 46C59.6 45.8 59.6 45.5 59.7 45.2C59.7 44.7 58.9 44.6 58.9 45.1Z" fill="#EBECEC"/>
<path fill-rule="evenodd" clip-rule="evenodd" d="M68.2 92.3C65.1 92 62.2 91.6 59.1 91.4C53.9 91 43.5 90.4 33.8 90.1C35.2 91.2 36.7 92.1 38.3 92.9L65.2 93.8C66.2 93.3 67.2 92.8 68.2 92.3Z" fill="#FEFEFE"/>
<path fill-rule="evenodd" clip-rule="evenodd" d="M34.1 67.7C34 67.6 33.8 67.5 33.5 67.4C33.3 67.4 33 67.4 32.5 67.8C32.4 67.9 32.3 67.9 32.2 68C32.7 67.5 33.4 67.1 34.3 66.8C34.4 66.7 25.8 68.4 31 75.3C32.2 76.7 33.6 78 34.9 79.2C34.7 78.9 34.6 78.7 34.5 78.4C35.1 79.1 35.8 79.8 36.7 80.4C37 80.6 37.3 80.9 37.6 81.1C37.4 81.1 37.2 81.2 37.1 81.4V81.5C36.9 81.5 36.7 81.5 36.7 81.8C36.6 81.8 36.5 81.8 36.5 81.9C36.4 82 36.3 82.1 36.3 82.2C36.3 82.3 36.3 82.4 36.4 82.5C36.3 82.6 36.3 82.7 36.3 82.8C36.3 82.9 36.3 83 36.3 83C36.4 83.2 36.5 83.3 36.7 83.4C36.9 83.5 37.4 83.5 37.7 83.5V83.6C37.7 83.8 37.7 83.9 37.8 84C38 84.2 38.4 84.2 38.7 84.2C38.8 84.2 38.9 84.2 39 84.2C39.1 84.2 39.1 84.2 39.2 84.2C39.3 84.2 39.3 84.2 39.4 84.2C39.5 84.2 39.6 84.2 39.7 84.2C40.6 84.4 41.2 84.1 41.7 83.7L42.2 84C41.2 84.7 40.2 85.4 39.4 86.2C37.7 87.8 36.7 89.5 36.3 91.1C35.4 94.3 36.6 97.6 39.3 99.5C40.7 100.5 42.6 101.1 45 101.3C53.9 101.9 66.2 94.7 64.3 86.1C61.1 91.5 53.1 95.8 46.8 94.8C45.4 94.6 45.3 93.9 45.8 92.6C46 92.2 46.2 91.6 46.5 91.3C46.8 91.4 46.5 92.3 46.1 92.7C46.1 93.4 60.3 92.6 60.2 83.8C60.2 82.5 59.7 81.2 59.2 80.3C58.7 79.4 58.1 78.9 57.4 78.5C57.2 78.4 57.1 78.3 56.9 78.2C56.7 78.1 53.1 75.7 52.2 75.2C51.6 74.8 51.9 74.9 52.3 75.1C54.6 70.2 57.6 67.1 57 64C56.9 63.5 56.8 63.2 56.7 62.9C56.4 62.3 56 62 55.5 61.8C55.1 61.6 54.6 61.6 54.2 61.6C54.6 61.1 55 60.7 55.3 60.1C55.4 60.2 55.5 60.2 55.7 60.3C57 60.6 58.4 59.5 59.3 58.3C59.8 58.3 60.4 58.2 61 57.9C61.6 57.7 62.3 57.2 62.9 56.7C63.4 56.2 63.9 55.6 64.3 54.9C64.6 54.2 64.9 53.4 65.1 52.6C65.3 51.6 65.4 50.7 65.4 49.9C65.4 49.2 65.3 48.6 65.2 48.2C65.1 47.7 64.9 47.3 64.8 47C64.8 47 64.8 46.9 64.7 46.9C64.5 47 64.7 46.9 64.8 46.9C68.9 45.2 66.7 39.7 63.5 38.8C63.6 38.9 63.7 39.1 63.7 39.2C63.4 38.9 63.2 38.8 62.9 38.6C62.4 38.3 61.7 37.9 61 37.6C60.3 37.3 59.5 37.1 58.9 37.1C58.8 37.1 58.7 37.1 58.6 37.1C56.8 35.9 54.3 35.5 52 36.4C52.3 36.6 54.3 36.5 51.3 36.9C42.5 35.2 25.1 51.9 39 61.8C37.6 59.4 36.8 57 36.8 54.6C37.1 57.6 38.8 60.3 40.5 63.4C40.2 63.1 39.9 62.9 39.3 62.8C41.9 66.1 37.4 66.3 34.1 67.7Z" fill="#FEFEFE"/>
<path fill-rule="evenodd" clip-rule="evenodd" d="M55 59.5C55.1 61 57.6 60.4 58.7 58.5C59 58 59.8 57.3 59.8 56.7C59.8 56.1 59.9 55.5 59.7 55.1C59.5 54.8 59.5 54.9 59.3 54.9C59.1 54.8 58.7 55.2 58.4 55.2C58.2 54.9 57.8 53 58.1 51.9C58.3 51.4 59 50.2 59.1 49.5C59.1 48.8 59.2 48.3 59 47.7C58.8 47.1 59.2 46.8 58.2 46.5C57.2 46.2 55.7 46 54.7 45.8C53.7 45.6 53.1 45.6 52.3 45.5C51.5 45.5 50.5 45.4 49.5 45.9C48.5 46.4 47.6 47.3 47.1 47.8C46.6 48.4 46.5 48.6 46.4 49C46.3 49.4 46.3 50 46.2 50.6C46.1 51.2 45.9 51.8 45.7 52.2C45.4 52.6 45.1 52.8 44.8 52.9C44.5 53 44.4 53 44.2 53C44 53 43.7 53 43.6 53.2C43.5 53.3 43.5 53.6 43.5 53.8C43.5 54 43.6 54.2 43.7 54.4C43.8 54.5 43.9 54.6 43.8 54.7C43.7 54.8 43.5 54.9 43.5 55C43.4 55.1 43.4 55.1 43.3 55.3C43.2 55.6 43 56.2 42.9 56.8C42.8 57.4 42.8 58.1 42.8 58.5C42.8 59 42.9 59.3 42.9 59.6C42.9 59.9 42.9 59.9 42.9 60C42.9 60.2 43 60.6 43.2 60.7C46.2 62.4 52.9 62 55 59.5Z" fill="#FEFEFE"/>
<path fill-rule="evenodd" clip-rule="evenodd" d="M59.6 37.2C63.1 37.8 64.9 42.8 62.1 44.9C64.5 42.5 61.6 38.4 60.5 38.1C61.8 41.6 59.5 44.9 56 46.8C56.5 47 57.5 47.1 58.5 47.1C58.4 47.4 58.5 47.7 58.9 48.1C59.2 47.3 61.7 48.1 63.6 47.4C63.7 47.5 63.7 47.6 63.8 47.8C63.5 48.2 62.8 50.3 63.3 51C61.3 48.1 58.2 52.8 61.5 53.7C61.2 53.1 63.1 51.3 63.3 54.5C63.3 54.6 63.2 54.7 63.2 54.7C62.9 55.4 62.4 55.9 61.9 56.4C61.4 56.9 60.8 57.3 60.2 57.5C59.9 57.6 59.7 57.7 59.4 57.7C59.2 58 58.9 58.3 58.7 58.6C58.8 58.6 58.8 58.6 58.9 58.6C59.4 58.6 60 58.5 60.7 58.2C61.3 58 62 57.5 62.6 57C63.1 56.5 63.6 55.9 64 55.2C64.3 54.5 64.6 53.7 64.8 52.9C65 51.9 65.1 51 65.1 50.2C65.1 49.5 65 48.9 64.9 48.5C64.8 48 64.6 47.6 64.5 47.3C64.5 47.3 64.5 47.2 64.4 47.2C64.4 47.2 64.4 47.2 64.5 47.1C66.6 46.3 67.1 44.5 66.7 42.8C66.1 39.2 61.6 36.1 59.6 37.2Z" fill="#2B2A29"/>
<path fill-rule="evenodd" clip-rule="evenodd" d="M35 78.2C36.1 79.7 36.8 80.4 37.7 81.1C37.5 81.1 37.2 81.2 37.2 81.4V81.5C37 81.5 36.8 81.5 36.8 81.8C36.7 81.8 36.6 81.8 36.6 81.9C36.5 82 36.4 82.1 36.4 82.2C36.4 82.3 36.4 82.4 36.5 82.5C36.4 82.6 36.4 82.7 36.4 82.8C36.4 82.9 36.4 83 36.4 83C36.5 83.2 36.6 83.3 36.8 83.4C37 83.5 37.5 83.5 37.8 83.5V83.6C37.8 83.8 37.8 83.9 37.9 84C38.1 84.2 38.5 84.2 38.8 84.2C38.9 84.2 39 84.2 39.1 84.2C39.2 84.2 39.2 84.2 39.3 84.2C39.4 84.2 39.4 84.2 39.5 84.2C39.6 84.2 39.7 84.2 39.8 84.2C40.7 84.4 41.3 84.1 41.8 83.7L42.3 84C42.9 83.6 43.4 83.3 44 82.9L43.4 82.6C43.3 82.5 43.4 82.6 43.2 82.5C43.2 82.5 43.1 82.4 43 82.4H42.9C43.2 82.1 43.4 81.8 43.7 81.4C43.9 81.5 44.1 81.7 44.3 81.8C44.3 81.7 44 81.4 43.8 81.3L44.1 81L45 81.7C45 81.7 45 81.7 45 81.8C45 82 45 82.1 45.1 82.4H45.2H45.3C45.4 82.4 45.5 82.3 45.5 82.3C45.5 82.1 45.6 81.8 45.6 81.5C45.6 81.2 45.6 81 45.6 80.6C45.6 80.5 45.5 80.3 45.5 80.2V80.1C45.5 80 45.4 79.8 45.4 79.7C45.4 79.7 45.4 79.7 45.4 79.6C45.3 79.2 45.2 78.8 45.2 78.4C45.7 78.5 46.1 78.5 46.7 78.3C46.9 78.2 47.2 78.1 47.5 78C47.8 77.8 48.2 77.6 48.6 77.3C50.9 75.5 53.6 72.3 54.4 69.5C54.4 69.3 54.3 69 54.1 68.9C53.6 70 53.1 71.2 52.5 72.1C52 71.3 51.8 70.1 52.3 69.5C50.6 70.3 50.2 73.2 51.2 73.7C50.3 74.8 49.1 76 47.9 76.9C47.5 76.4 48.3 75.1 49.1 74.8C47.5 74.7 45.6 76.1 45.8 77.8C45.5 77.8 45.3 77.8 45 77.7C44.7 77.6 44.4 77.4 44 77.1C43.9 77 43.8 77 43.8 76.9L43.7 76.8C42.6 75.8 41.6 74.4 40.9 72.9C40.7 72.3 40.5 71.7 40.4 71.1C40.6 70.8 41 70.7 41.2 70.6C41.3 70.6 41.3 70.6 41.4 70.6C41.5 71.5 41.8 72.5 42.3 73.4C42.9 74.5 43.9 75.4 45.1 75.5C45.2 75.5 45.3 75.5 45.5 75.5C50.2 75.6 51.6 60.9 55.3 63.8C55.3 63.8 52.1 66.1 53.2 68.7C53.3 67.7 54.6 66.2 55.6 66.6C55.8 66.7 55.9 66.9 56 67C55.7 69.4 51 76.2 50.9 76.7C50.9 76.8 51.2 76.9 51.4 77C52.2 77.5 53.5 78.2 54.6 78.9C54.4 78.8 50.8 76.4 49.9 75.9C49.3 75.5 49.6 75.6 50 75.8C52.3 70.9 55.3 67.8 54.7 64.7C54.6 64.2 54.5 63.9 54.4 63.6C54.1 63 53.7 62.7 53.2 62.5C52.8 62.3 52.3 62.3 51.9 62.3C52.3 61.8 52.8 61.3 53.1 60.7C53 60.6 52.9 60.4 52.9 60.1C52.3 60.8 51.4 61.3 50.3 61.7C50.2 62.3 50.1 63 50.1 63.6C49.7 64.2 49.3 65 49.1 65.6C48.4 67.8 45.8 74.5 43.5 74.5C43.4 74.5 43.3 74.5 43.2 74.5C43.1 74.5 43.1 74.5 43 74.5C43.1 73.9 43.2 73.6 43.2 73.5C43.2 73.5 43.2 73.5 43.1 73.4C43.1 73.4 43.1 73.4 43 73.3C43 73.3 43 73.3 43 73.2C43 73.2 43 73.2 43 73.1C43 73.1 43 73.1 43 73C43 72.9 42.9 72.8 42.8 72.7C42.9 72.6 43.1 72.8 43.2 72.7C44 71.4 44.8 71.1 45.6 71C45.8 70.9 45.8 70.8 45.7 70.6C45.7 70.3 45.6 69.9 45.6 69.4C45.6 68.9 45.7 68.4 45.9 68.1C46 67.7 46.2 67.5 46.4 67.3C46.6 67.1 46.9 67 47.2 66.9C47.5 66.9 47.8 67 48.1 67C48.3 67.1 48.5 67.1 48.7 67.1C48.9 66.4 49.1 65.6 49.2 64.9C46.9 65.2 44.2 65.2 42 64.3C41.8 64.2 41.7 63.8 41.7 63.6C41.7 63.4 41.7 63.4 41.7 63.2C41.7 62.9 41.6 62.6 41.6 62.1C41.6 61.6 41.6 61 41.7 60.4C41.8 59.8 42 59.2 42.1 58.9C42.2 58.6 42.2 58.6 42.3 58.6C42.4 58.5 42.6 58.4 42.6 58.3C42.7 58.2 42.6 58.1 42.5 58C42.4 57.9 42.4 57.7 42.3 57.4C42.3 57.2 42.2 56.9 42.4 56.8C42.5 56.7 42.8 56.6 43 56.6C43.2 56.6 43.4 56.6 43.6 56.5C43.9 56.4 44.2 56.2 44.5 55.8C44.8 55.4 44.9 54.8 45 54.2C45.1 53.6 45.1 53 45.2 52.6C45.3 52.2 45.4 52 45.9 51.4C46.1 51.2 46.3 51 46.5 50.7C48.4 49.5 51.1 48.8 53.4 49.2C53.3 49.2 53.3 49.1 53.2 49.1H53.3C53.8 49.1 56.3 46.4 54 43.9C56.2 45.5 54.9 48.2 53.6 49.9C63 48 60.6 35.8 50.7 39.9C52.7 40.2 57.6 41.4 57.3 44.8C56 41.5 53 40.3 49.9 40.4C41.1 38.7 23.7 55.4 37.6 65.3C36.2 62.9 35.4 60.5 35.4 58.1C35.7 61.1 37.4 63.8 39.1 66.9C38.8 66.6 38.5 66.4 37.9 66.3C42.3 71.2 28.2 68.8 30 75.6C30.9 72.6 34.6 73 37.4 72.5C37.8 72.4 38.2 72.3 38.5 72.2C35.3 73.7 30 72.1 30.4 78.1C28.9 75.4 29.1 71.3 33 70.2C33.1 70.1 24.5 71.8 29.7 78.7C30.9 80.1 32.3 81.4 33.6 82.6C30.8 77.9 35.5 75.3 38.8 75.7C35 73.6 32.7 75.8 31.5 77.4C33.4 73.6 36.9 73.9 39.2 75.8C37.7 75.7 36.3 77.2 36.6 79.4C36.9 81.1 38.5 82.5 40.1 83.7C40 83.8 39.9 84 39.8 84.1C39.7 84.2 39.6 84.4 39.4 84.5L39.3 84.6C36.7 82.7 33 79.4 35.4 77.4C34.3 79.4 35.1 81.2 38.8 83.2C37.3 82.3 34.4 78 37.9 76.1C37.1 72 33 75.1 35 78.2ZM42.4 75.3C42.6 75.5 42.7 75.7 42.9 75.9C42 76.4 41 77.1 40.5 78.1C40.5 78.1 40.5 76 42.3 75.4L42.4 75.3ZM42.1 79.3C41.7 78.1 42.4 77.4 43.4 76.4C43.4 76.4 43.5 76.4 43.5 76.3L43.6 76.4C43.3 76.8 43.1 77.3 42.8 77.8C42.7 78 42.6 78.2 42.5 78.4C42.4 78.8 42.2 79 42.1 79.3Z" fill="#2B2A29"/>
<path fill-rule="evenodd" clip-rule="evenodd" d="M44.7 59.4C41.7 60.5 40.8 59.7 41.1 57.8C41.1 57.6 41.2 57.3 41.3 57.1C41.4 56.9 41.6 56.8 41.8 56.7C42 56.6 42.2 56.6 42.4 56.6C42.6 56.6 42.7 56.6 42.9 56.7C41.6 55.3 42.3 54.3 43.2 54.8C44 55.4 44.8 58.5 44.7 59.4Z" fill="#2B2A29"/>
<path fill-rule="evenodd" clip-rule="evenodd" d="M57.2 55.7C60 54.4 60 57 57.8 59.2C56.3 60.8 54.7 60.1 55.2 59.1C55.1 59.9 55.9 60 56.4 59.7C56.8 59.5 57 59.1 56.5 58.7C56.1 58.3 55.4 58.6 55.2 58.9C54.8 59.5 54.7 60.3 55.6 60.4C58.4 60.9 61.3 55.7 59.7 54.9C58.9 54.5 57.6 55.4 57.2 55.7Z" fill="black"/>
<path fill-rule="evenodd" clip-rule="evenodd" d="M61.7 48.7C61.3 48.3 61.7 47.8 62.3 48.1C62.5 48.2 62.6 48.4 62.6 48.5C62.5 48.8 61.8 48.7 61.7 48.7Z" fill="#2B2A29"/>
<path fill-rule="evenodd" clip-rule="evenodd" d="M61.5 55.1C61.3 55.5 60.7 55.4 60.7 54.7C60.7 54.5 60.8 54.4 61 54.3C61.3 54.4 61.5 55 61.5 55.1Z" fill="#2B2A29"/>
<path fill-rule="evenodd" clip-rule="evenodd" d="M70.5 70.6C69.3 63.9 62.7 62 63.5 58.1C58.8 60.5 58.5 66.5 59.9 71.2C60.6 73.4 64.9 80.5 64.3 86.2C72.6 83 90.5 70.4 76.8 55.1C77.6 57.6 69.7 62.2 70.5 70.6Z" fill="#2B2A29"/>
<path fill-rule="evenodd" clip-rule="evenodd" d="M52.9 78.4C52.4 78.7 52.2 79.2 51.1 79.8C50 80.4 48 81 45.7 82.1C43.4 83.2 40.9 84.8 39.2 86.4C37.5 88 36.5 89.7 36.1 91.3C35.2 94.5 36.4 97.8 39.1 99.7C40.5 100.7 42.4 101.3 44.8 101.5C53.7 102.1 66 94.9 64.1 86.3C60.9 91.7 52.9 96 46.6 95C45.2 94.8 45.1 94.1 45.6 92.8C45.8 92.4 46 91.8 46.3 91.5C46.6 91.6 46.3 92.5 45.9 92.9C45.9 93.6 60.1 92.8 60 84C60 82.7 59.5 81.4 59 80.5C58.5 79.6 57.9 79.1 57.2 78.7C56.6 78.3 55.9 78.1 55.1 78C54.3 77.9 53.4 78 52.9 78.4Z" fill="#2B2A29"/>
<path fill-rule="evenodd" clip-rule="evenodd" d="M50 99.5C55.2 98 61 95.6 62.8 90C61.7 95.7 55.2 98.5 50 99.5Z" fill="#FEFEFE"/>
<path fill-rule="evenodd" clip-rule="evenodd" d="M56.2 79.5C59.6 80.8 60.1 86.7 57.1 88.2C59.5 86.5 59.2 81.2 56.2 79.5Z" fill="#FEFEFE"/>
<path fill-rule="evenodd" clip-rule="evenodd" d="M37.2 91.2C36.9 93.7 37.2 96.1 39.1 97.9C36.7 96.9 36.3 93.3 37.2 91.2Z" fill="#FEFEFE"/>
<path fill-rule="evenodd" clip-rule="evenodd" d="M45.8 91C46.1 90 47.3 90.3 47.2 91.2C46.7 90.6 46.6 90.6 45.8 91Z" fill="#FEFEFE"/>
<path fill-rule="evenodd" clip-rule="evenodd" d="M37.3 50.2C38.4 47.3 39.8 44.2 44 41.4C38.9 43.7 35.2 49 34.8 55.1C36 40.9 51 35.5 54.2 40.8C51.4 37.4 42.8 40 37.3 50.2Z" fill="#FEFEFE"/>
<path fill-rule="evenodd" clip-rule="evenodd" d="M46.6 54.5C46.1 54.1 45.8 53.7 45.8 53.1V52.8L46.1 52.9C46.8 53 47.4 52.8 47.7 52.7C48 52.6 48.2 52.5 48.5 52.7H48.6L48.7 52.8C49.3 53.5 50.6 53.8 52.2 53.8C51.9 55 51 55.2 49.5 55.3C49 55.3 48.5 55.3 48 55.2C47.4 54.9 46.9 54.7 46.6 54.5Z" fill="#2B2A29"/>
<path fill-rule="evenodd" clip-rule="evenodd" d="M49.2 51.5C48.8 51.8 48.5 52.6 48.5 52.9C48.5 52.9 48.5 52.9 48.5 53C48.4 53.1 48.3 53.1 48.1 53C48 52.9 47.9 52.7 47.9 52.6C47.9 52.6 47.9 52.6 47.9 52.5C48 52.3 48.1 52 48.2 51.8C48.4 51.6 48.6 51.4 49.2 51.5Z" fill="#2B2A29"/>
<path fill-rule="evenodd" clip-rule="evenodd" d="M49.8 51.6C50.8 51.3 51.9 52.8 52 53.7C52 53.9 51.9 54 51.7 54C51.5 54 51.3 53.8 51.3 53.6C51.2 52.9 50.4 51.9 49.8 51.6Z" fill="#2B2A29"/>
<path fill-rule="evenodd" clip-rule="evenodd" d="M43.6 54.2C43.7 54.3 44 54.5 44.3 54.6C44.6 54.7 44.8 54.4 44.7 54.1C44.9 54.1 45 54.2 45.1 54.4C45.3 55 44.7 55.4 44.2 55.1C43.9 55 43.5 54.6 43.6 54.2Z" fill="#2B2A29"/>
<path fill-rule="evenodd" clip-rule="evenodd" d="M58.5 47.9C60.3 48.5 57.6 52.2 58.1 54.4C56.5 51.6 59.4 50.3 58.5 47.9Z" fill="#2B2A29"/>
<path fill-rule="evenodd" clip-rule="evenodd" d="M58.5 47.8C59.6 48.1 59.2 49.5 58.7 51C58.3 52.1 58 53.4 58.2 54.4L58.3 54.9L58.1 54.5C57.2 52.9 57.7 51.8 58.2 50.7C58.4 49.8 58.8 49 58.5 47.8H58.3H58.5ZM58.5 51C58.9 49.6 59.3 48.4 58.6 48.1C58.9 49.1 58.6 49.9 58.2 50.8C57.8 51.8 57.4 52.7 57.9 54C57.9 53.1 58.2 52 58.5 51Z" fill="#2B2A29"/>
<path fill-rule="evenodd" clip-rule="evenodd" d="M60 49.5C60.5 49.4 60.6 50.1 59.9 50.4C59.7 50.5 59.5 50.5 59.4 50.3C59.3 50 59.9 49.5 60 49.5Z" fill="#2B2A29"/>
<path fill-rule="evenodd" clip-rule="evenodd" d="M48.5 48.7C48.6 48.7 48.7 48.6 48.8 48.6C49.3 48.7 50.9 49.3 51.4 49.7C52.5 50.4 53 51.5 53.3 52.6C52.5 51.6 51.6 51.2 50.9 50.8C50.3 50.5 48.6 49.9 48.4 49.9C48 49.6 48.1 48.9 48.5 48.7Z" fill="#2B2A29"/>
<path fill-rule="evenodd" clip-rule="evenodd" d="M40.1 68.6C40.2 68.5 40.4 68.4 40.5 68.3C40.4 68.5 40.3 68.6 40.1 68.6Z" fill="#E31E24"/>
<path fill-rule="evenodd" clip-rule="evenodd" d="M43.7 73.1C43.5 72.9 43.3 72.7 43.2 72.5C43.4 72.6 43.5 72.9 43.7 73.1Z" fill="#E31E24"/>
<path fill-rule="evenodd" clip-rule="evenodd" d="M49.5 67.7C47.7 67.7 45.4 70.6 47.7 72.6C47.8 72.7 47.7 72.8 47.6 73C47.5 73.2 47.3 73.3 47.3 73.2C45.1 71.7 46.4 67.4 49.5 67.7Z" fill="#2B2A29"/>
<path fill-rule="evenodd" clip-rule="evenodd" d="M48.1 64.8C48.7 65.3 49.4 65 49.5 65.2C49.6 65.4 49.5 65.5 49.3 65.6C48.8 65.7 47.9 65.2 48.1 64.8Z" fill="#2B2A29"/>
<path fill-rule="evenodd" clip-rule="evenodd" d="M46.1 78.5V78.4C46.1 78.4 46.7 78.1 46.8 78.4C46.8 78.5 46.9 78.6 46.9 78.7C46.9 78.8 46.9 78.9 46.9 79C47 79.7 45.9 79.4 46.1 78.5Z" fill="#2B2A29"/>
<path fill-rule="evenodd" clip-rule="evenodd" d="M44 57.7C43.8 57.4 43.5 57 42.8 56.7C42.5 56.3 42.1 55.6 42.6 55.1C42.8 54.9 43.1 55.2 43.3 55.4C43.6 56 43.9 57.3 44 57.7Z" fill="#D91E3E"/>
<path fill-rule="evenodd" clip-rule="evenodd" d="M43.9 58.4C43.7 58.1 43.4 57.8 43.2 57.5C43 57.3 42.9 57.2 42.7 57.1C42.5 57 42.3 57 42.1 57.1C42 57.1 42 57.1 41.9 57.2C41.7 57.3 41.6 57.4 41.5 57.5C41.4 57.7 41.3 57.9 41.3 58.2C41.3 58.4 41.3 58.7 41.4 58.9C41.5 59 41.6 59.2 41.7 59.3C41.7 59.3 41.8 59.4 41.9 59.4C42 59.4 42 59.4 42.1 59.5H42.2C42.3 59.5 42.5 59.5 42.6 59.5C42.8 59.5 43 59.5 43.1 59.5C43.2 59.5 43.3 59.5 43.4 59.5C43.8 59.4 44.1 59.3 44.2 59.3C44.2 59.3 44.2 59.2 44.1 59.2L44 59.1L43.9 58.9V58.4Z" fill="#D91E3E"/>
<path fill-rule="evenodd" clip-rule="evenodd" d="M46.4 58C46.4 57.8 46.5 57.5 46.6 57.4C46.7 57.3 46.8 57.3 46.9 57.4C47 57.5 47.2 57.6 47.2 57.8C47.3 58 47.2 58.1 47.1 58.3C47 58.4 46.7 58.5 46.6 58.5C46.4 58.4 46.4 58.2 46.4 58Z" fill="#2B2A29"/>
<path fill-rule="evenodd" clip-rule="evenodd" d="M50.9 78V77.9C51.2 75.9 49.8 76.5 49.7 77.2C50 77.4 50.1 77.7 50.1 78.1C48.7 75.8 46.7 79.3 48.7 79C48.4 78.3 49.1 78.2 49.5 78.6C49.8 79 49.8 79.6 49.6 80C49.1 80.9 48.1 80.2 48.6 79.7C48.3 79.6 48 79.7 47.9 79.9C47.7 80.3 47.8 80.8 48.2 81.1C49.5 80.6 50.7 80.2 51.4 79.8C51.5 79.8 51.5 79.7 51.6 79.7C51.5 79.3 51.6 78.9 51.8 78.6C52.1 78.2 52.8 78.3 52.6 79C52.8 78.8 53 78.6 53.2 78.5C53.3 78.5 53.3 78.4 53.4 78.4C52.9 77.5 51.7 76.6 50.9 78Z" fill="#2B2A29"/>
<path fill-rule="evenodd" clip-rule="evenodd" d="M57.1 58.8C57.8 58.9 57.9 57.2 58.1 57.2C58.2 57.2 58.4 57.3 58.4 57.5C58.3 58.2 57.4 59.2 57.1 58.8Z" fill="#2B2A29"/>
<path fill-rule="evenodd" clip-rule="evenodd" d="M55.9 58.1C56.4 58.1 56.9 58.5 56.9 59.1C56.9 59.6 56.5 60.1 55.9 60.1C55.4 60.1 54.9 59.7 54.9 59.1C54.9 58.5 55.3 58.1 55.9 58.1Z" fill="#2B2A29"/>
<path fill-rule="evenodd" clip-rule="evenodd" d="M41.5 65.8C41.6 65.9 41.6 66.3 41.7 66.7C41.7 67.1 41.7 67.6 41.7 68C41.6 68.3 41.5 68.5 41.4 68.6C41.3 68.7 41.3 68.7 41.3 68.8C41.3 68.9 41.3 69 41.4 69C41.4 69.1 41.4 69.1 41.3 69.2C41.2 69.3 40.9 69.4 40.7 69.5C40.5 69.6 40.5 69.6 40.4 69.3C40.3 69 40.2 68.4 40.1 67.9C40 67.3 40 66.7 40 66.4C40 66.1 40 65.9 40 65.8C40 65.7 40.1 65.7 40.1 65.8C40.2 65.9 40.3 66.2 40.3 66.5C40.4 66.8 40.5 67 40.5 67.1C40.6 67.2 40.6 67.3 40.7 67.2C40.8 67.2 40.9 67 41 66.9C41.1 66.8 41.1 66.6 41.1 66.4C41.1 66.2 41.2 66.1 41.2 66C41.4 65.7 41.4 65.6 41.5 65.8ZM40.3 64.9C40.2 64.8 40.2 64.6 40.3 64.4C40.4 64.2 40.6 64 40.8 64C40.9 64 40.9 64.2 40.9 64.4C40.9 64.6 40.8 64.8 40.7 64.9C40.6 65 40.4 65 40.3 64.9Z" fill="#FEFEFE"/>
<path fill-rule="evenodd" clip-rule="evenodd" d="M44.1 76.8C43.9 77.4 43.5 77.9 43.1 78.6C42.8 79.1 41.1 82.3 40.4 82.2C39.9 82.1 39.2 81.6 37.8 81.5C37.7 81.5 37.6 81.5 37.6 81.5C37.6 81.5 37.5 81.6 37.7 81.7C37.9 81.8 38.5 81.9 38.7 82C38.8 82.1 38.7 82.1 38.5 82.1C38.4 82.1 37.7 81.9 37.3 81.9C37.1 81.9 37.1 81.9 37.1 82C37.1 82 37.1 82.1 37.2 82.2C37.4 82.3 37.9 82.3 38.5 82.5C38.3 82.5 37.1 82.3 36.8 82.3C36.5 82.3 36.5 82.5 36.8 82.6C37.1 82.7 38.1 82.8 38.4 82.9C38.6 83 37.3 82.9 36.8 82.9C36.6 82.9 36.7 83.2 36.9 83.3C37.4 83.5 40.2 83.4 39.4 83.6C39.1 83.7 38.2 83.5 38.1 83.9C38.1 84 38.1 84 38.2 84.1C38.5 84.2 39.2 84.1 39.6 84.1C41.1 84.3 41.4 83.3 42.2 82.4C42.7 81.8 43.5 80.9 44.1 80.1C44.3 79.9 44.5 79.7 44.7 79.5C44.6 79.1 44.5 78.6 44.4 78.1C44.3 77.6 44.2 77.1 44.1 76.8Z" fill="#FEFEFE"/>
<path fill-rule="evenodd" clip-rule="evenodd" d="M62.6 60.9C60.7 70 63.1 70.4 65.3 78.5C65.8 80.4 65.8 81.4 65.3 83.3C65.5 81.4 65.5 80.5 65 78.6C62.7 71.1 60 69.2 62.6 60.9Z" fill="#FEFEFE"/>
<path fill-rule="evenodd" clip-rule="evenodd" d="M63.5 62C69.5 67.8 70.8 74.5 67.2 81.8C67.5 81.2 67.7 80.4 67.7 80.4C70.4 73.2 68 67.6 63.5 62ZM67.2 81.8C67.1 82 67 82.1 67 82.3C67 82.1 67.1 82 67.2 81.8ZM66.9 82.3C66.8 82.5 66.8 82.6 66.7 82.6C66.8 82.5 66.8 82.4 66.9 82.3Z" fill="#FEFEFE"/>
<path fill-rule="evenodd" clip-rule="evenodd" d="M63.7 65C64.5 68.7 64.9 68.8 66 71.9C66.8 74.2 66.8 74.8 66.8 77.2C66.5 75 66.4 74.2 65.6 72C64.2 68.2 64.2 69.2 63.7 65Z" fill="#FEFEFE"/>
<path fill-rule="evenodd" clip-rule="evenodd" d="M77.4 57.5C79.9 65 80.7 70 74.6 76.3C73.2 77.8 70.7 79.7 69 81C71.4 78.7 74.2 76.8 76.1 74C80.3 67.7 79 64 77.4 57.5Z" fill="#FEFEFE"/>
<path fill-rule="evenodd" clip-rule="evenodd" d="M77 59C70.8 67.5 74.4 70.2 71.1 77.2C73.8 69.7 70.5 66.2 77 59Z" fill="#FEFEFE"/>
<path fill-rule="evenodd" clip-rule="evenodd" d="M76.7 62.5C76.4 66.5 76.8 70.3 74.2 73.5C74 73.7 74 73.7 73.9 73.9C74 73.6 73.9 73.7 74.1 73.4C76.7 69.2 75.5 66.7 76.7 62.5Z" fill="#FEFEFE"/>
<path fill-rule="evenodd" clip-rule="evenodd" d="M74.1 88.3C73.4 87.8 72.7 87.2 72 86.6C71.7 86.4 71.4 86.1 71.1 85.9C71.1 87.2 71.2 88.6 71.4 89.9C71.7 89.8 71.9 89.6 72.2 89.5C72.8 89.1 73.4 88.7 74.1 88.3Z" fill="#AFBAC3"/>
<path fill-rule="evenodd" clip-rule="evenodd" d="M29.6 86.7L29.8 86.5C30.4 86.1 31 85.7 31.7 85.4C32 85.3 32.2 85.1 32.5 85C30.7 84.7 29 84.1 27.3 83.4C25.8 82.8 24.3 82.2 23 81.3C23.8 83.3 24.8 85.1 25.8 87L26 87.4L25.2 87.5C24 87.6 22.8 87.5 21.7 87.3C21.2 87.2 20.8 87.1 20.3 87C21.2 88.8 22.6 90.4 24.5 91.3C26.1 92.1 27.8 92.9 29.6 93.5C29.2 91.5 29 89.4 29.3 87.5L29.6 86.7Z" fill="white"/>
<path fill-rule="evenodd" clip-rule="evenodd" d="M48 95.5C47.8 95.5 47.7 95.6 47.6 95.7C47.2 96.3 47.5 97.7 47.5 98.2C47.5 98.3 47.4 98.4 47.3 98.4C47.4 98.7 47.6 99 47.9 99.2C48.1 99.4 48.3 99.5 48.5 99.5C49.1 98.9 49 97.6 48.9 96.9C48.9 96.3 48.5 95.5 48 95.5Z" fill="white"/>
<path fill-rule="evenodd" clip-rule="evenodd" d="M71.7 85.4C72.7 86.2 73.6 87.1 74.6 87.9L75.1 88.3L75.3 89.2C75.6 90.6 75.7 92 75.8 93.4V93.5C77.8 92.6 79.7 91.6 81.5 90.3C82.4 89.7 83.3 89.1 84.3 88.5C82.4 88.2 80.4 87.6 78.6 87L77.9 86.8L78.2 86.3C79.6 84.1 81 81.9 81.8 79.5C80.8 80.4 79.7 81.3 78.6 82.1C76.5 83.7 74.2 84.6 71.7 85.4Z" fill="white"/>
<path fill-rule="evenodd" clip-rule="evenodd" d="M51.8 93.3C45.9 93 43.4 92.7 39.1 91.7C37 91.2 35 90.6 33.2 89.6L32.8 89.4C32.3 89.1 31.8 88.8 31.4 88.4H31.3C30.9 88.2 30.5 87.9 30.2 87.6C30.1 89.8 30.3 91.9 30.7 94L30.9 94.7C31 95.1 31.1 95.5 31.2 95.9C37.9 99.7 45.2 102.9 53 103.2C56.1 103.3 59.2 103 62.2 102.3C62.3 101.3 62.7 100.3 63.1 99.5L63.5 98.8L63.8 99.3C64.2 100 64.7 100.7 65.2 101.4C65.6 101.2 66.1 101.1 66.5 100.9C69.5 99.8 72.2 98.3 75.1 96.8C75.1 96 75.2 95.2 75.1 94.4V93.8C75 92.1 74.9 90.4 74.6 88.8C67.8 92.8 59.4 93.7 51.8 93.3Z" fill="white"/>
<path fill-rule="evenodd" clip-rule="evenodd" d="M29.8 87.2C29.4 88.4 28.9 90 28.9 91.5H28.8C28.2 91.2 27.4 91.1 26.9 90.8C26.2 90.5 25.4 90.2 24.7 89.9C24.4 89.7 24 89.5 23.7 89.3C23.4 89.1 23.1 88.9 22.8 88.7C22.5 88.5 22.2 88.2 21.9 88C21.6 87.7 21.2 87.3 20.8 87L20.7 86.9L20.6 86.8C20.4 86.7 20.1 86.8 20.3 87C20.4 87.1 20.4 87.2 20.5 87.3C20.6 87.7 20.8 88.1 21.1 88.4C21.8 89.5 23 90.5 23.9 91.2C24.8 91.9 26 92.8 27.3 93C27.3 93 27.4 93 27.4 93.1C28 93.4 28.8 93.8 29.5 93.7C29.9 93.7 30.1 93.2 29.9 92.9C30 92.6 30 92.3 29.8 92.1V92C29.8 91.9 29.8 91.9 29.8 91.8C29.8 91.4 29.7 91 29.7 90.5C29.6 89.5 29.7 88.3 29.8 87.2C29.9 87.1 29.8 87.1 29.8 87.2Z" fill="#AFBAC3"/>
<path fill-rule="evenodd" clip-rule="evenodd" d="M61.9 101.6C54.4 103.5 37.8 100.6 31.8 94.8C31.6 94 31.3 93.2 31.1 92.5C30.8 91.2 30.6 89.8 30.2 88.5C30.2 88.4 30 88.4 30 88.5C29.9 89.8 30 91 30.3 92.3C30.4 92.9 30.5 93.7 30.7 94.4C30.7 94.5 30.7 94.5 30.7 94.6C30.4 95.1 30.5 96 31.1 96.3C31.9 96.7 32.7 97.4 33.5 97.7C34 98 34.5 98.1 34.9 98.4C36.6 99.4 38.5 99.9 40.3 100.7C42.2 101.5 44.1 102.1 46.1 102.5C46.9 102.7 47.6 102.8 48.5 102.9C49.7 103.2 51 103.3 52.1 103.4C53.1 103.5 54.1 103.5 55.2 103.4C56.7 103.5 58.2 103.5 59.5 103.1C60.2 103.1 61 103 61.5 102.7C61.6 102.7 61.8 102.7 61.9 102.6C62.1 102.5 62.2 102.4 62.2 102.2C62.3 102.1 62.3 102 62.3 101.9C62.4 101.8 62.1 101.5 61.9 101.6Z" fill="#AFBAC3"/>
<path fill-rule="evenodd" clip-rule="evenodd" d="M84.9 88.1C84.1 88.3 83.4 88.6 82.7 89C81.8 89.3 80.9 89.7 80 90C79 90.4 77.9 90.6 76.8 91C76.8 90.2 76.8 89.5 76.4 88.9V88.8C76.2 88.2 75.8 88 75.4 87.6C74.9 87.2 74.5 86.7 74 86.3C73.4 85.8 72.5 85.3 71.7 85.1C71.6 85.1 71.6 85.1 71.5 85.2C71.3 85.9 72.5 86.6 73 86.9C73.5 87.3 74 88 74.6 88.5C74.5 88.4 74.3 88.5 74.2 88.6C74.1 89.3 74.1 90 74.1 90.8C74 91.6 74 92.4 73.9 93.2C73.8 93.8 73.7 94.5 73.7 95.1C73.7 95.2 73.6 95.3 73.6 95.3C73.4 95.7 73.2 96.1 73.1 96.5C73.1 96.6 73 96.7 73 96.8C72.9 96.8 72.9 96.8 72.9 96.9C72.1 97.3 64.4 100.9 64.4 100.9C64.4 101 64.4 101 64.4 101.1C64.8 101.7 66.2 101.3 66.7 101.2C68.2 100.9 69.7 100.2 71.1 99.5C72.3 98.9 73.6 98.3 74.7 97.6C75.3 97.3 75.7 96.5 75.4 95.9C75.5 95.5 75.4 95 75.5 94.6C75.5 94.4 75.5 94.1 75.6 93.9C76.4 93.7 77 93.4 77.7 92.9C78.5 92.4 79.4 91.9 80.3 91.5C81.2 91 82.1 90.5 83 89.9C83.6 89.5 84.2 89.2 84.6 88.7C84.8 88.6 85 88.4 85.2 88.2C85.1 88.3 85 88.1 84.9 88.1ZM74.7 88.6C74.8 88.7 75 88.8 75.1 88.9C75.1 89.1 75.1 89.3 75.1 89.4C74.9 89.2 74.8 88.9 74.7 88.6Z" fill="#AFBAC3"/>
<path fill-rule="evenodd" clip-rule="evenodd" d="M82.2 79.4C80.7 80.9 73.3 84.3 71.2 85L70.4 85.3V85.8C70.4 87.3 70.5 88.1 70.7 89.6C61.2 93.6 42.4 93.1 33.5 88.7C33.8 87.5 33.9 86.6 34 85.3V84.8L33.5 84.7C31.6 84.4 29.9 83.7 28.1 83C26.2 82.2 24.4 81.4 22.7 80.2L22.1 79.7L22.4 80.8C22.7 81.7 23.1 82.7 23.5 83.6C24 84.8 24.5 86 25.1 87.1C23.9 87.1 22.8 86.9 21.6 86.7C21.1 86.6 20.6 86.5 20.1 86.4L19.5 86.2L19.8 86.9C20.6 88.9 21.9 90.6 23.8 91.7C25.6 92.8 27.8 93.8 29.9 94.3C30.1 95 30 95.6 30.3 96.5L31.3 97.2C37.7 101.4 45.4 103.5 53 103.9C56.1 104.1 59.1 103.7 62.1 103L62.6 102.9C63.4 101.8 63.3 101.6 63.6 101.3C64 101.6 64 101.7 64.9 102.3L65.7 102C65.9 101.9 66 101.9 66.2 101.8C69.2 100.7 72.2 99.4 75 97.9L76 97.4V96.3C76 95.6 76 94.9 75.9 94.2C77.9 93.5 79.7 92.4 81.5 91.2C82.7 90.4 84.1 89.6 85.4 88.7L86.6 87.8H85.7C83.5 87.6 81.3 87.1 79.1 86.6C80.7 84.3 81.8 82.9 82.5 80.2L82.8 78.9L82.2 79.4ZM71.1 85.9C71.4 86.2 71.7 86.4 72 86.6C72.7 87.2 73.4 87.8 74.1 88.3C72.5 89.4 72.1 89.1 71.3 89.5C71.1 88.2 71.1 87.2 71.1 85.9ZM33 88.5C32.1 88 31.1 87.7 30.4 87C31.4 86.3 32.4 85.7 33.5 85.2C33.3 86.4 33.2 87.3 33 88.5ZM24.6 91.4C22.7 90.5 21.4 88.9 20.4 87.1C20.9 87.2 21.4 87.3 21.8 87.4C22.9 87.6 24.1 87.7 25.3 87.6L26.1 87.5L25.9 87.1C24.9 85.3 23.8 83.4 23.1 81.4C24.4 82.3 26 82.9 27.4 83.5C29.1 84.2 30.8 84.8 32.6 85.1C32.3 85.2 32.1 85.4 31.8 85.5C31.1 85.8 30.5 86.2 29.9 86.6L29.7 86.8L29.5 87.7C29.2 89.6 29.3 91.7 29.8 93.7C27.9 93.1 26.2 92.2 24.6 91.4ZM75.1 93.9V94.5C75.1 95.3 75.1 96.1 75.1 96.8C72.3 98.2 69.5 99.7 66.5 100.9C66.1 101.1 65.6 101.2 65.2 101.4C64.5 100.9 64.8 101.1 63.4 100.1C63 100.8 62.8 101.5 62.2 102.3C59.2 103 56.1 103.4 53 103.2C45.2 102.9 37.8 100.3 31.1 96.5C30.6 94.4 30.1 89.6 30.2 87.6C38.9 95.5 65.4 95.2 74.6 89C74.9 90.5 75 92.2 75.1 93.9ZM78.3 86.3L78 86.8L78.7 87C80.5 87.6 82.5 88.2 84.4 88.5C83.5 89.1 82.5 89.7 81.6 90.3C79.8 91.5 77.9 92.6 75.9 93.5V93.4C75.8 92 75.7 90.6 75.4 89.2L75.2 88.3L74.7 87.9C73.7 87.1 72.7 86.2 71.8 85.4C72.8 85.1 80.9 81.4 81.5 80.9C80.6 83.3 79.7 84.1 78.3 86.3Z" fill="#2B2A29"/>
<path fill-rule="evenodd" clip-rule="evenodd" d="M73.2 93C73.6 93 73.9 93.4 74 93.9C74.1 94.4 73.8 94.9 73.4 94.9C73 94.9 72.7 94.5 72.6 94C72.5 93.5 72.8 93 73.2 93Z" fill="#2B2A29"/>
<path fill-rule="evenodd" clip-rule="evenodd" d="M32.1 92.6C32.5 92.6 32.8 93 32.9 93.5C33 94 32.7 94.5 32.3 94.5C31.9 94.5 31.6 94.1 31.5 93.6C31.5 93.1 31.7 92.6 32.1 92.6Z" fill="#2B2A29"/>
<path fill-rule="evenodd" clip-rule="evenodd" d="M36.3 97.5L37.7 93.2L38.8 93.5L38.2 95.5L39.6 93.8L40.8 94.1L39.3 95.9L39.5 98.5L38.3 98.1L38.2 95.7L37.5 97.9L36.3 97.5Z" fill="black"/>
<path fill-rule="evenodd" clip-rule="evenodd" d="M41.3 98.9L42.9 94.5L44.8 94.8L45 99.5L43.7 99.3V98.5L42.8 98.4L42.6 99.1L41.3 98.9ZM43.6 97.4V95.5L43 97.3L43.6 97.4Z" fill="black"/>
<path fill-rule="evenodd" clip-rule="evenodd" d="M46.7 99.6L47 95L48.6 95.1C49.1 95.1 49.5 95.3 49.8 95.6C50.1 95.9 50.2 96.3 50.2 96.8C50.2 97.3 50 97.6 49.6 97.9C49.3 98.2 48.9 98.3 48.4 98.2H48.1L48 99.7L46.7 99.6ZM48.2 96.1L48.1 97.1H48.2C48.4 97.1 48.5 97.1 48.6 97C48.7 96.9 48.8 96.8 48.8 96.6C48.8 96.4 48.8 96.2 48.6 96.2C48.5 96.1 48.3 96.1 48.2 96.1Z" fill="black"/>
<path fill-rule="evenodd" clip-rule="evenodd" d="M51.6 99.9L52.5 95.3H54.4L55.3 99.9H54L53.9 99.1H53L52.9 99.9H51.6ZM53.7 98.1L53.4 96.2L53.1 98.1H53.7Z" fill="black"/>
<path fill-rule="evenodd" clip-rule="evenodd" d="M58.1 97.4C58.1 97.8 58.2 98.1 58.4 98.3C58.5 98.5 58.7 98.6 58.9 98.5C59.1 98.5 59.3 98.4 59.4 98.2C59.5 98 59.5 97.7 59.5 97.3C59.5 96.9 59.4 96.6 59.2 96.4C59.1 96.2 58.9 96.1 58.7 96.2C58.5 96.2 58.4 96.3 58.2 96.5C58.1 96.7 58.1 97 58.1 97.4ZM60.7 97.2C60.8 97.9 60.7 98.4 60.4 98.9C60.1 99.4 59.7 99.6 59 99.7C58.3 99.8 57.8 99.6 57.5 99.1C57.2 98.7 57 98.1 56.9 97.5C56.9 96.9 57 96.3 57.2 95.8C57.4 95.3 57.9 95 58.6 95C59.3 94.9 59.8 95.1 60.1 95.6C60.4 96.1 60.6 96.6 60.7 97.2Z" fill="black"/>
<path fill-rule="evenodd" clip-rule="evenodd" d="M62.7 99.3L61.9 94.8L63.1 94.6L63.4 96.6L63.9 94.4L65.1 94.2L64.6 96.4L66 98.7L64.7 98.9L63.5 96.8L63.9 99.1L62.7 99.3Z" fill="black"/>
<path fill-rule="evenodd" clip-rule="evenodd" d="M67.8 98.2L66.5 93.9L68.7 93.2L69 94.2L68 94.5L68.2 95.2L69.1 94.9L69.4 95.9L68.5 96.2L68.7 96.9L69.8 96.5L70.1 97.6L67.8 98.2Z" fill="black"/>
<path fill-rule="evenodd" clip-rule="evenodd" d="M1 42.9C0.9 43.2 0.9 43.7 1 44C0.6 43.9 0.299997 44.3 0.199997 44.7C0.0999968 45.1 0.200003 45.6 0.800003 46L8.60001 50.9C8.70001 51 8.9 51 9 51.1C9.5 51.2 9.9 50.9 10 50.4C10.1 50 9.99999 49.6 9.39999 49.2L7.3 47.9C7.8 47.6 8.2 47 8.3 46.4C8.6 45.3 8.1 43.8 6.8 43L4.39999 41.5C4.09999 41.3 3.80001 41.2 3.60001 41.1C2.20001 40.7 1.3 41.6 1 42.9ZM4 43.3L5.89999 44.5C6.39999 44.8 6.6 45.3 6.5 45.8C6.4 46.3 5.89999 46.6 5.39999 46.5C5.29999 46.5 5.2 46.4 5.2 46.4L3 45C2.4 44.6 2.29999 44.1 2.39999 43.6C2.49999 43.1 2.9 42.9 3.5 43C3.6 43.1 3.8 43.2 4 43.3Z" fill="#00CCFF"/>
<path fill-rule="evenodd" clip-rule="evenodd" d="M6.3 29.6C6.1 30 6.2 30.5 6.7 31L10.9 35.1C10.9 35.2 11 35.2 11 35.2C11.6 35.7 11.8 36.5 11.5 37.2L11.4 37.1L10 35.7C9.8 35.5 9.6 35.3 9.3 35.2C8 34.6 6.7 35.1 6 36.5C5.9 36.8 5.8 37 5.7 37.3L4.7 36.3C4.6 36.2 4.4 36.1 4.3 36C3.8 35.8 3.3 36 3.2 36.4C3 36.8 3.10001 37.3 3.60001 37.7L6.60001 40.6L6.7 40.7L8.2 42.1C8.5 42.4 8.80001 42.6 9.10001 42.7C10.5 43.3 11.8 42.5 12.4 41.2C12.8 40.4 12.9 39.4 12.5 38.3C12.6 38.1 12.8 37.9 12.9 37.7C13 37.4 13.1 37.2 13.1 36.9C13.2 37 13.3 37 13.4 37.1C13.9 37.3 14.4 37.1 14.5 36.7C14.7 36.3 14.6 35.8 14.1 35.3L7.89999 29.3C7.79999 29.2 7.6 29.1 7.5 29C6.9 28.9 6.5 29.2 6.3 29.6ZM8.8 37.1L9.60001 37.8C9.50001 37.9 9.39999 38 9.39999 38.1C9.19999 38.6 9.39999 39.3 9.89999 39.5C10.2 39.7 10.5 39.6 11.1 39.4C11.3 39.8 11.3 40.2 11.1 40.5C10.9 41 10.4 41.2 9.89999 41C9.79999 40.9 9.7 40.9 9.5 40.7L7.7 38.9C7.1 38.3 7.1 37.7 7.3 37.2C7.5 36.7 8 36.5 8.5 36.7C8.6 36.9 8.7 37 8.8 37.1Z" fill="#00CCFF"/>
<path fill-rule="evenodd" clip-rule="evenodd" d="M17.6 24.6C17.4 24.8 17.4 25.2 17.6 25.4C18.1 26 18.2 26.7 17.8 27.3C17.7 26.8 17.3 26.2 16.8 25.9C15.2 24.7 13.5 25.1 12.4 26.5C11.6 27.7 13 28.7 13.9 27.6C14.3 27 14.9 27 15.6 27.5C15.8 27.6 16 27.9 16 28.1C15.4 28.2 14.8 28.5 14.3 29.2C14.1 29.5 13.9 29.8 13.8 30.1L10.9 26L12.5 23.7C12.9 23.2 12.7 22.7 12.4 22.5C12.1 22.3 11.7 22.3 11.4 22.6L8.2 27C7.8 27.6 8 28 8.3 28.3C8.6 28.5 9 28.5 9.3 28.2L9.7 27.7L14.3 34.3C14.4 34.4 14.5 34.5 14.5 34.5C14.9 34.8 15.4 34.6 15.7 34.2C15.9 33.9 16 33.4 15.7 33C16.4 32.9 17.1 32.4 17.6 31.7C18.1 31 18.5 30 18.3 29C18.5 28.9 18.7 28.7 18.8 28.5C19.6 27.4 19.5 25.9 18.6 24.7L18.5 24.6C18.2 24.1 17.8 24.3 17.6 24.6ZM16.4 30.8C16.1 31.2 15.8 31.2 15.6 31.1L15.5 31C15.3 30.7 15.3 30.4 15.6 30C15.9 29.6 16.3 29.5 16.7 29.4C16.8 29.9 16.7 30.5 16.4 30.8Z" fill="#00CCFF"/>
<path fill-rule="evenodd" clip-rule="evenodd" d="M23.6 19.3C24.2 20.8 24.3 22 23.7 22.5C23.5 22.7 23.2 22.7 23 22.5C22.9 22.4 22.8 22.2 22.7 22L19.9 15.6C19.8 15.4 19.7 15.2 19.6 15.1C19.2 14.7 18.7 14.8 18.4 15.1C18.1 15.4 17.9 16 18.1 16.5C17.5 16.4 16.8 16.8 16.4 17.1C15.5 17.9 15.2 19.2 15.6 20.3L17.9 25.7C18 26 18.2 26.3 18.4 26.5C19.3 27.4 20.6 27.4 21.6 26.5C22.1 26 22.5 25.3 22.5 24.4C23.2 24.6 23.9 24.3 24.5 23.7C25.8 22.5 25.7 20.6 24.7 18.5C24.7 18.4 24.6 18.3 24.5 18.3C24.2 18 23.8 18.1 23.5 18.3C23.5 18.6 23.4 18.9 23.6 19.3ZM20.8 24.9C20.5 25.2 20.1 25.2 19.8 24.9C19.7 24.8 19.6 24.6 19.5 24.5L17.5 19.9C17.3 19.3 17.3 18.8 17.7 18.5C18.1 18.1 18.8 18.1 19.1 18.5C19.2 18.6 19.2 18.6 19.2 18.7L20.9 22.6C21.4 23.9 21.2 24.5 20.8 24.9Z" fill="#00CCFF"/>
<path fill-rule="evenodd" clip-rule="evenodd" d="M82.8 15.5L79.4 18.4C79.2 18.6 78.9 18.9 78.8 19.1C78.2 20.1 78.7 21.2 79.7 21.8C80.8 22.5 82.2 22.4 84.1 20.8C84.2 20.7 84.2 20.7 84.3 20.6C84.5 20.2 84.3 19.8 84 19.7C83.7 19.5 83.4 19.6 83.1 19.8C82 20.8 81.2 20.9 80.7 20.6C80.5 20.5 80.4 20.3 80.6 20.1C80.7 20 80.7 19.9 80.9 19.8L85.2 16.2C85.4 16 85.6 15.8 85.8 15.5C86.4 14.5 86.1 13.4 85 12.8C84.4 12.4 83.5 12.3 82.7 12.5C82.6 11.7 82.2 11.2 81.6 10.8C80.1 9.99999 78.5 10.1 77.1 11.4L73.4 14.7C72.7 15.3 72.1 15.6 71.7 15.4C71 15 72.4 14 72.5 13.9C72.6 13.8 72.6 13.8 72.6 13.7C72.8 13.4 72.6 13 72.3 12.8C72 12.6 71.7 12.6 71.4 12.9C69.7 14.3 69.5 15.9 71 16.7C72.3 17.5 73.4 17.2 74.7 16L78.2 13C79.1 12.3 79.8 12 80.2 12.3C80.7 12.6 80.6 13.1 79.9 13.8L75.2 17.8C75.1 17.9 75 18 74.9 18.1C74.6 18.5 74.9 19 75.3 19.2C75.7 19.4 76.2 19.4 76.6 19L81.5 14.9C82.4 14.2 83.1 13.9 83.5 14.1C83.6 14.3 83.5 14.8 82.8 15.5Z" fill="#00CCFF"/>
<path fill-rule="evenodd" clip-rule="evenodd" d="M88.5 25.2C87 26 85.3 25.4 84.3 24.4C83.5 23.6 83.5 22.8 84 22.2C84.7 21.4 85.6 21.4 86.5 22.2C86.6 22.7 86.8 23 87 23.2C87.5 23.7 88.2 23.5 88.6 23.1C88.9 22.7 89 22.2 88.6 21.7C88.1 21.2 88.1 20.6 88.5 20.2C89 19.6 89.8 19.5 90.3 20.1C90.6 20.4 90.7 20.8 90.5 21.1C90.2 21.7 90.3 22.1 90.6 22.4C90.9 22.7 91.4 22.8 91.8 22.4C92.7 21.5 92.5 20 91.5 19C90.3 17.8 88.2 17.8 87.1 19C86.8 19.4 86.6 19.8 86.5 20.3C85 19.3 83.4 20.1 82.5 21C81.4 22.2 81.6 24 83.2 25.6C84.8 27.1 87.3 27.7 89.4 26.5C89.5 26.5 89.6 26.4 89.6 26.3C89.9 26 89.8 25.6 89.5 25.3C89.3 25.1 88.9 25 88.5 25.2Z" fill="#00CCFF"/>
<path fill-rule="evenodd" clip-rule="evenodd" d="M98.4 27.3C98.1 27 97.6 26.8 97 27L94.4 27.9C93.5 28.2 92.5 28 92.1 27.5C91.7 27 91.8 26.6 92.1 26.4C92.2 26.3 92.3 26.3 92.5 26.2L95.2 25.3C95.4 25.2 95.5 25.2 95.6 25.1C96 24.8 96 24.3 95.8 23.9C95.5 23.6 95.1 23.4 94.4 23.6L91.5 24.6C91.2 24.7 90.9 24.8 90.7 25C89.8 25.7 89.7 27 90.6 28.1C90.9 28.4 91.2 28.7 91.6 28.9L88.9 29.8C88.7 29.9 88.6 29.9 88.5 30C88.1 30.3 88.1 30.8 88.3 31.2C88.6 31.5 89.1 31.7 89.7 31.5L97.9 28.7C98.1 28.6 98.2 28.6 98.3 28.5C98.6 28.1 98.6 27.6 98.4 27.3Z" fill="#00CCFF"/>
<path fill-rule="evenodd" clip-rule="evenodd" d="M102.9 36.3L100.2 31.1C99.9 30.5 99.4 30.4 99 30.6C98.7 30.8 98.5 31.2 98.7 31.5L99.6 33.2L91.7 34.3C91.6 34.3 91.5 34.4 91.4 34.4C91 34.6 90.9 35.2 91.1 35.6C91.3 36 91.7 36.2 92.1 36.2L100.5 35L101.4 36.7C101.7 37.3 102.2 37.4 102.5 37.2C102.9 37.1 103.1 36.7 102.9 36.3Z" fill="#00CCFF"/>
<path fill-rule="evenodd" clip-rule="evenodd" d="M106.4 47.6C106.3 47.2 105.9 46.8 105.2 46.8L99.3 46.4C99.2 46.4 99.2 46.4 99.1 46.4C98.3 46.4 97.7 45.9 97.4 45.2C97.5 45.2 97.5 45.2 97.5 45.2L99.5 45.3C99.8 45.3 100.1 45.3 100.3 45.2C101.7 44.8 102.4 43.6 102 42.1C101.9 41.8 101.8 41.6 101.7 41.3L103.2 41.4C103.4 41.4 103.5 41.4 103.7 41.3C104.2 41.2 104.4 40.7 104.3 40.3C104.2 39.9 103.8 39.6 103.1 39.5L99 39.2H98.8L96.7 39.1C96.3 39.1 95.9 39.1 95.6 39.2C94.1 39.6 93.6 41.1 94 42.5C94.2 43.4 94.7 44.2 95.8 44.7C95.8 44.9 95.9 45.2 95.9 45.4C96 45.7 96.1 45.9 96.2 46.1C96.1 46.1 96 46.1 95.9 46.1C95.4 46.2 95.2 46.7 95.3 47.1C95.4 47.5 95.8 47.8 96.5 47.9L105.1 48.4C105.3 48.4 105.4 48.4 105.6 48.3C106.3 48.5 106.5 48 106.4 47.6ZM99.6 43.5L98.6 43.4C98.6 43.3 98.6 43.1 98.6 43C98.4 42.4 97.9 42.1 97.3 42.3C97 42.4 96.8 42.6 96.5 43.1C96.1 42.9 95.9 42.6 95.8 42.2C95.7 41.7 95.9 41.2 96.4 41C96.5 41 96.7 40.9 96.8 41L99.3 41.2C100.1 41.3 100.6 41.8 100.7 42.2C100.9 42.8 100.6 43.2 100.1 43.4C99.9 43.5 99.8 43.5 99.6 43.5Z" fill="#00CCFF"/>
<path fill-rule="evenodd" clip-rule="evenodd" d="M37.4 8.20001L37.8 12.7C37.8 13 37.9 13.4 38 13.6C38.5 14.7 39.6 14.9 40.7 14.4C41.9 13.9 42.7 12.7 42.4 10.3C42.4 10.2 42.4 10.1 42.3 10C42.1 9.60001 41.7 9.60001 41.4 9.70001C41.1 9.80001 40.9 10.1 41 10.5C41.1 12 40.8 12.7 40.3 12.9C40.1 13 39.9 12.9 39.8 12.7C39.8 12.6 39.7 12.5 39.7 12.3L39.2 6.70001C39.2 6.40001 39.1 6.20001 39 5.80001C38.5 4.80001 37.4 4.40001 36.3 4.90001C35.6 5.20001 35 5.80001 34.7 6.60001C34 6.20001 33.3 6.30001 32.7 6.60001C31.2 7.30001 30.3 8.70001 30.5 10.6L31 15.5C31.1 16.4 30.9 17.1 30.6 17.3C29.9 17.6 29.9 16 29.9 15.8C29.9 15.7 29.9 15.6 29.8 15.6C29.6 15.3 29.2 15.2 28.9 15.4C28.6 15.5 28.4 15.8 28.4 16.2C28.6 18.4 29.7 19.4 31.2 18.8C32.6 18.2 33 17.1 32.8 15.4L32.4 10.8C32.3 9.70001 32.5 8.90001 33 8.70001C33.6 8.40001 33.9 8.80001 34 9.80001L34.5 15.9C34.5 16.1 34.5 16.2 34.6 16.4C34.8 16.9 35.3 17 35.7 16.8C36.1 16.6 36.4 16.2 36.3 15.7L35.8 9.30001C35.7 8.20001 35.9 7.40001 36.3 7.20001C36.9 6.90001 37.3 7.30001 37.4 8.20001Z" fill="#FFCC00"/>
<path fill-rule="evenodd" clip-rule="evenodd" d="M49.4 9.3C49.3 10.1 48.8 10.7 48.1 10.8V10.7L48.8 6C48.8 5.7 48.8 5.4 48.8 5.2C48.5 3.8 47 3 45.5 3.3C44.4 3.5 43 4.3 42.7 6.2L42 11C41.9 11.4 41.9 11.8 42 12.1C42.3 13.6 43.7 14.2 45.1 14C46 13.8 46.9 13.4 47.5 12.4C47.7 12.4 48 12.4 48.2 12.3C49.7 12 50.7 10.8 50.8 9.5C50.8 9.4 50.8 9.3 50.8 9.2C50.7 8.8 50.3 8.6 50 8.7C49.8 8.7 49.5 9 49.4 9.3ZM45 12.4C44.5 12.5 44 12.2 43.9 11.7C43.9 11.6 43.9 11.4 43.9 11.3L44.7 6.1C44.8 5.3 45.4 4.8 45.9 4.7C46.4 4.6 46.9 4.9 47 5.4C47 5.5 47 5.6 47 5.8L46.4 9.6C46.3 9.6 46.1 9.6 46 9.6C45.4 9.7 45 10.2 45.1 10.8C45.2 11.2 45.4 11.4 45.8 11.7C45.7 12.1 45.3 12.4 45 12.4Z" fill="#FFCC00"/>
<path fill-rule="evenodd" clip-rule="evenodd" d="M56.8 9.20002C56.3 10.8 54.7 11.6 53.2 11.6C52.1 11.6 51.5 11.1 51.4 10.2C51.4 9.10002 52 8.50001 53.2 8.50001C53.6 8.70001 54 8.80001 54.3 8.80001C55 8.80001 55.4 8.20001 55.4 7.60001C55.4 7.10001 55.1 6.60001 54.4 6.60001C53.7 6.60001 53.3 6.10001 53.3 5.60001C53.3 4.80001 53.7 4.20001 54.5 4.20001C54.9 4.20001 55.2 4.40001 55.3 4.70001C55.5 5.30001 55.8 5.60001 56.3 5.50001C56.7 5.50001 57.1 5.20001 57.1 4.70001C57.1 3.40001 56 2.50001 54.5 2.60001C52.8 2.70001 51.3 4.10001 51.4 5.70001C51.4 6.20001 51.6 6.60001 51.9 7.00001C50.1 7.40001 49.5 9.10001 49.6 10.3C49.7 11.9 51.1 13.1 53.3 13C55.5 12.9 57.7 11.6 58.3 9.30001C58.3 9.20001 58.3 9.10001 58.3 9.00001C58.3 8.60001 57.9 8.40001 57.6 8.40001C57.2 8.50001 56.9 8.70002 56.8 9.20002Z" fill="#FFCC00"/>
<path fill-rule="evenodd" clip-rule="evenodd" d="M66.6 2.00001C66.8 1.60001 66.5 1.20001 66.1 1.10001C65.8 1.10001 65.6 1.20001 65.4 1.50001C65.1 2.00001 64.7 2.30001 64.4 2.20001C64.1 2.10001 64 1.90001 64 1.70001C64 1.70001 64 1.60001 64.1 1.60001C64.3 1.20001 64 0.800012 63.6 0.700012C63.3 0.700012 63.1 0.800013 62.9 1.10001C62.8 1.20001 62.8 1.30001 62.8 1.50001C62.6 2.50001 63.2 3.30001 64.2 3.50001C65.1 3.50001 66.1 3.00001 66.6 2.00001ZM61.2 10.9C60.8 11.7 59.9 12.2 59.2 12.1C58.8 12 58.6 11.7 58.7 11.3C58.7 11.2 58.8 11.1 58.8 10.9L62.2 5.00001C62.3 4.80001 62.3 4.70001 62.4 4.50001C62.5 4.00001 62.2 3.60001 61.7 3.50001C61.3 3.40001 60.8 3.60001 60.5 4.20001L57 10.3C56.8 10.6 56.7 10.9 56.7 11.1C56.5 12.3 57.3 13.3 58.5 13.5C59.3 13.7 60.2 13.3 60.9 12.9C61.2 13.6 61.8 14.1 62.7 14.3C64.5 14.6 65.9 13.3 67 11.3C67.1 11.2 67.1 11.1 67.1 11C67.2 10.6 66.9 10.3 66.5 10.3C66.2 10.2 65.8 10.4 65.6 10.7C64.8 12.1 63.8 12.9 63.1 12.8C62.8 12.7 62.6 12.5 62.7 12.2C62.7 12.1 62.8 12 62.8 11.9L66.4 5.70001C66.5 5.50001 66.5 5.40001 66.6 5.20001C66.7 4.60001 66.4 4.30001 65.9 4.20001C65.5 4.10001 65 4.30001 64.7 4.90001L61.2 10.9Z" fill="#FFCC00"/>
<path fill-rule="evenodd" clip-rule="evenodd" d="M1 42.7C0.9 43 0.9 43.5 1 43.8C0.6 43.7 0.299997 44.1 0.199997 44.5C0.0999968 44.9 0.200003 45.4 0.800003 45.8L8.60001 50.7C8.70001 50.8 8.9 50.8 9 50.9C9.5 51 9.9 50.7 10 50.2C10.1 49.8 9.99999 49.4 9.39999 49L7.3 47.7C7.8 47.4 8.2 46.8 8.3 46.2C8.6 45.1 8.1 43.6 6.8 42.8L4.39999 41.3C4.09999 41.1 3.80001 41 3.60001 40.9C2.30001 40.5 1.3 41.4 1 42.7ZM4 43.2L5.89999 44.4C6.39999 44.7 6.6 45.2 6.5 45.7C6.4 46.2 5.89999 46.5 5.39999 46.4C5.29999 46.4 5.2 46.3 5.2 46.3L3 44.9C2.4 44.5 2.29999 44 2.39999 43.5C2.49999 43 2.9 42.8 3.5 42.9C3.7 43 3.8 43.1 4 43.2Z" fill="#1A1A1A"/>
<path fill-rule="evenodd" clip-rule="evenodd" d="M6.3 29.4C6.1 29.8 6.2 30.3 6.7 30.8L10.9 34.9C10.9 35 11 35 11 35C11.6 35.5 11.8 36.3 11.5 37L11.4 36.9L10 35.5C9.8 35.3 9.6 35.1 9.3 35C8 34.4 6.7 34.9 6 36.3C5.9 36.6 5.8 36.8 5.7 37.1L4.7 36.1C4.6 36 4.4 35.9 4.3 35.8C3.8 35.6 3.3 35.8 3.2 36.2C3 36.6 3.10001 37.1 3.60001 37.5L6.60001 40.4L6.7 40.5L8.2 41.9C8.5 42.2 8.80001 42.4 9.10001 42.5C10.5 43.1 11.8 42.3 12.4 41C12.8 40.2 12.9 39.2 12.5 38.1C12.6 37.9 12.8 37.7 12.9 37.5C13 37.2 13.1 37 13.1 36.7C13.2 36.8 13.3 36.8 13.4 36.9C13.9 37.1 14.4 36.9 14.5 36.5C14.7 36.1 14.6 35.6 14.1 35.1L7.89999 29.1C7.79999 29 7.6 28.9 7.5 28.8C7 28.8 6.5 29.1 6.3 29.4ZM8.8 36.9L9.60001 37.6C9.50001 37.7 9.39999 37.8 9.39999 37.9C9.19999 38.4 9.39999 39.1 9.89999 39.3C10.2 39.5 10.5 39.4 11.1 39.2C11.3 39.6 11.3 40 11.1 40.3C10.9 40.8 10.4 41 9.89999 40.8C9.79999 40.7 9.7 40.7 9.5 40.5L7.7 38.7C7.1 38.1 7.1 37.5 7.3 37C7.5 36.5 8 36.3 8.5 36.5C8.6 36.8 8.7 36.8 8.8 36.9Z" fill="#1A1A1A"/>
<path fill-rule="evenodd" clip-rule="evenodd" d="M17.6 24.6C17.4 24.8 17.4 25.2 17.6 25.4C18.1 26 18.2 26.7 17.8 27.3C17.7 26.8 17.3 26.2 16.8 25.9C15.2 24.7 13.5 25.1 12.4 26.5C11.6 27.7 13 28.7 13.9 27.6C14.3 27 14.9 27 15.6 27.5C15.8 27.6 16 27.9 16 28.1C15.4 28.2 14.8 28.5 14.3 29.2C14.1 29.5 13.9 29.8 13.8 30.1L10.9 26L12.5 23.7C12.9 23.2 12.7 22.7 12.4 22.5C12.1 22.3 11.7 22.3 11.4 22.6L8.2 27C7.8 27.6 8 28 8.3 28.3C8.6 28.5 9 28.5 9.3 28.2L9.7 27.7L14.3 34.3C14.4 34.4 14.5 34.5 14.5 34.5C14.9 34.8 15.4 34.6 15.7 34.2C15.9 33.9 16 33.4 15.7 33C16.4 32.9 17.1 32.4 17.6 31.7C18.1 31 18.5 30 18.3 29C18.5 28.9 18.7 28.7 18.8 28.5C19.6 27.4 19.5 25.9 18.6 24.7L18.5 24.6C18.3 24.1 17.8 24.3 17.6 24.6ZM16.4 30.8C16.1 31.2 15.8 31.2 15.6 31.1L15.5 31C15.3 30.7 15.3 30.4 15.6 30C15.9 29.6 16.3 29.5 16.7 29.4C16.8 29.9 16.7 30.5 16.4 30.8Z" fill="#1A1A1A"/>
<path fill-rule="evenodd" clip-rule="evenodd" d="M23.6 19.2C24.2 20.7 24.3 21.9 23.7 22.4C23.5 22.6 23.2 22.6 23 22.4C22.9 22.3 22.8 22.1 22.7 21.9L19.9 15.5C19.8 15.3 19.7 15.1 19.6 15C19.2 14.6 18.7 14.7 18.4 15C18.1 15.3 17.9 15.9 18.1 16.4C17.5 16.3 16.8 16.7 16.4 17C15.5 17.8 15.2 19.1 15.6 20.2L17.9 25.6C18 25.9 18.2 26.2 18.4 26.4C19.3 27.3 20.6 27.3 21.6 26.4C22.1 25.9 22.5 25.2 22.5 24.3C23.2 24.5 23.9 24.2 24.5 23.6C25.8 22.4 25.7 20.5 24.7 18.4C24.7 18.3 24.6 18.2 24.5 18.2C24.2 17.9 23.8 18 23.5 18.2C23.5 18.4 23.4 18.8 23.6 19.2ZM20.8 24.8C20.5 25.1 20.1 25.1 19.8 24.8C19.7 24.7 19.6 24.5 19.5 24.4L17.5 19.8C17.3 19.2 17.3 18.7 17.7 18.4C18.1 18 18.8 18 19.1 18.4C19.2 18.5 19.2 18.5 19.2 18.6L20.9 22.5C21.4 23.8 21.2 24.4 20.8 24.8Z" fill="#1A1A1A"/>
<path fill-rule="evenodd" clip-rule="evenodd" d="M37.5 8.1L37.9 12.6C37.9 12.9 38 13.3 38.1 13.5C38.6 14.6 39.7 14.8 40.8 14.3C42 13.8 42.8 12.6 42.5 10.2C42.5 10.1 42.5 10 42.4 9.9C42.2 9.5 41.8 9.5 41.5 9.6C41.2 9.7 41 10 41.1 10.4C41.2 11.9 40.9 12.6 40.4 12.8C40.2 12.9 40 12.8 39.9 12.6C39.9 12.5 39.8 12.4 39.8 12.2L39.3 6.6C39.3 6.3 39.2 6.1 39.1 5.7C38.6 4.7 37.5 4.3 36.4 4.8C35.7 5.1 35.1 5.7 34.8 6.5C34.1 6.1 33.4 6.2 32.8 6.5C31.3 7.2 30.4 8.6 30.6 10.5L31.1 15.4C31.2 16.3 31 17 30.7 17.2C30 17.5 30 15.9 30 15.7C30 15.6 30 15.5 29.9 15.5C29.7 15.2 29.3 15.1 29 15.3C28.7 15.4 28.5 15.7 28.5 16.1C28.7 18.3 29.8 19.3 31.3 18.7C32.7 18.1 33.1 17 32.9 15.3L32.5 10.7C32.4 9.60001 32.6 8.8 33.1 8.6C33.7 8.3 34 8.70001 34.1 9.70001L34.6 15.8C34.6 16 34.6 16.1 34.7 16.3C34.9 16.8 35.4 16.9 35.8 16.7C36.2 16.5 36.5 16.1 36.4 15.6L35.9 9.20001C35.8 8.10001 36 7.3 36.4 7.1C37.1 6.8 37.4 7.1 37.5 8.1Z" fill="#1A1A1A"/>
<path fill-rule="evenodd" clip-rule="evenodd" d="M49.5 9.19999C49.4 9.99999 48.9 10.6 48.2 10.7V10.6L48.9 5.89999C48.9 5.59999 48.9 5.29999 48.9 5.09999C48.6 3.69999 47.1 2.89999 45.6 3.19999C44.5 3.39999 43.1 4.19999 42.8 6.09999L42.1 10.9C42 11.3 42 11.7 42.1 12C42.4 13.5 43.8 14.1 45.2 13.9C46.1 13.7 47 13.3 47.6 12.3C47.8 12.3 48.1 12.3 48.3 12.2C49.8 11.9 50.8 10.7 50.9 9.39999C50.9 9.29999 50.9 9.19999 50.9 9.09999C50.8 8.69999 50.4 8.49999 50.1 8.59999C49.8 8.59999 49.5 8.79999 49.5 9.19999ZM45 12.3C44.5 12.4 44 12.1 43.9 11.6C43.9 11.5 43.9 11.3 43.9 11.2L44.7 5.99999C44.8 5.19999 45.4 4.69999 45.9 4.59999C46.4 4.49999 46.9 4.79999 47 5.29999C47 5.39999 47 5.49999 47 5.69999L46.4 9.49999C46.3 9.49999 46.1 9.49999 46 9.49999C45.4 9.59999 45 10.1 45.1 10.7C45.2 11.1 45.4 11.3 45.8 11.6C45.7 12 45.4 12.3 45 12.3Z" fill="#1A1A1A"/>
<path fill-rule="evenodd" clip-rule="evenodd" d="M57 9.50001C56.4 11.1 54.7 11.8 53.3 11.7C52.2 11.7 51.6 11.1 51.6 10.2C51.6 9.10001 52.3 8.60001 53.5 8.60001C53.9 8.90001 54.2 9.00001 54.5 9.00001C55.2 9.00001 55.6 8.40001 55.7 7.90001C55.7 7.40001 55.4 6.90001 54.8 6.90001C54.1 6.90001 53.7 6.40001 53.7 5.80001C53.7 5.00001 54.2 4.40001 55 4.50001C55.4 4.50001 55.7 4.80001 55.8 5.10001C55.9 5.70001 56.3 6.00001 56.7 6.00001C57.1 6.00001 57.5 5.70001 57.6 5.20001C57.7 3.90001 56.6 2.90001 55.1 2.90001C53.4 2.80001 51.8 4.20001 51.8 5.80001C51.8 6.30001 51.9 6.80001 52.2 7.10001C50.4 7.40001 49.7 9.00001 49.7 10.3C49.6 11.9 51 13.2 53.2 13.2C55.4 13.3 57.7 12.1 58.4 9.80001C58.4 9.70001 58.5 9.60001 58.5 9.50001C58.5 9.10001 58.2 8.80001 57.8 8.80001C57.5 8.90001 57.2 9.10001 57 9.50001Z" fill="#1A1A1A"/>
<path fill-rule="evenodd" clip-rule="evenodd" d="M66.8 2.00001C67 1.60001 66.7 1.20001 66.3 1.10001C66 1.10001 65.8 1.20001 65.6 1.50001C65.3 2.00001 64.9 2.30001 64.6 2.20001C64.3 2.10001 64.2 1.90001 64.2 1.70001C64.2 1.70001 64.2 1.60001 64.3 1.60001C64.5 1.20001 64.2 0.800012 63.8 0.700012C63.5 0.700012 63.3 0.800013 63.1 1.10001C63 1.20001 63 1.30001 63 1.50001C62.8 2.50001 63.4 3.30001 64.4 3.50001C65.3 3.50001 66.3 3.00001 66.8 2.00001ZM61.3 10.9C60.9 11.7 60 12.2 59.3 12.1C58.9 12 58.7 11.7 58.8 11.3C58.8 11.2 58.9 11.1 58.9 10.9L62.3 5.00001C62.4 4.80001 62.4 4.70001 62.5 4.50001C62.6 4.00001 62.3 3.60001 61.8 3.50001C61.4 3.40001 60.9 3.60001 60.6 4.20001L57.1 10.3C56.9 10.6 56.8 10.9 56.8 11.1C56.6 12.3 57.4 13.3 58.6 13.5C59.4 13.7 60.3 13.3 61 12.9C61.3 13.6 61.9 14.1 62.8 14.3C64.6 14.6 66 13.3 67.1 11.3C67.2 11.2 67.2 11.1 67.2 11C67.3 10.6 67 10.3 66.6 10.3C66.3 10.2 65.9 10.4 65.7 10.7C64.9 12.1 63.9 12.9 63.2 12.8C62.9 12.7 62.7 12.5 62.8 12.2C62.8 12.1 62.9 12 62.9 11.9L66.5 5.70001C66.6 5.50001 66.6 5.40001 66.7 5.20001C66.8 4.60001 66.5 4.30001 66 4.20001C65.6 4.10001 65.1 4.30001 64.8 4.90001L61.3 10.9Z" fill="#1A1A1A"/>
<path fill-rule="evenodd" clip-rule="evenodd" d="M82.8 15.5L79.4 18.4C79.2 18.6 78.9 18.9 78.8 19.1C78.2 20.1 78.7 21.2 79.7 21.8C80.8 22.5 82.2 22.4 84.1 20.8C84.2 20.7 84.2 20.7 84.3 20.6C84.5 20.2 84.3 19.8 84 19.7C83.7 19.5 83.4 19.6 83.1 19.8C82 20.8 81.2 20.9 80.7 20.6C80.5 20.5 80.4 20.3 80.6 20.1C80.7 20 80.7 19.9 80.9 19.8L85.2 16.2C85.4 16 85.6 15.8 85.8 15.5C86.4 14.5 86.1 13.4 85 12.8C84.4 12.4 83.5 12.3 82.7 12.5C82.6 11.7 82.2 11.2 81.6 10.8C80.1 9.99999 78.5 10.1 77.1 11.4L73.4 14.7C72.7 15.3 72.1 15.6 71.7 15.4C71 15 72.4 14 72.5 13.9C72.6 13.8 72.6 13.8 72.6 13.7C72.8 13.4 72.6 13 72.3 12.8C72 12.6 71.7 12.6 71.4 12.9C69.7 14.3 69.5 15.9 71 16.7C72.3 17.5 73.4 17.2 74.7 16L78.2 13C79.1 12.3 79.8 12 80.2 12.3C80.7 12.6 80.6 13.1 79.9 13.8L75.2 17.8C75.1 17.9 75 18 74.9 18.1C74.6 18.5 74.9 19 75.3 19.2C75.7 19.4 76.2 19.4 76.6 19L81.5 14.9C82.4 14.2 83.1 13.9 83.5 14.1C83.7 14.3 83.6 14.8 82.8 15.5Z" fill="#1A1A1A"/>
<path fill-rule="evenodd" clip-rule="evenodd" d="M88.7 25.2C87.2 26 85.5 25.4 84.5 24.4C83.7 23.6 83.7 22.8 84.2 22.2C84.9 21.4 85.8 21.4 86.7 22.2C86.8 22.7 87 23 87.2 23.2C87.7 23.7 88.4 23.5 88.8 23.1C89.1 22.7 89.2 22.2 88.8 21.7C88.3 21.2 88.3 20.6 88.7 20.2C89.2 19.6 90 19.5 90.5 20.1C90.8 20.4 90.9 20.8 90.7 21.1C90.4 21.7 90.5 22.1 90.8 22.4C91.1 22.7 91.6 22.8 92 22.4C92.9 21.5 92.7 20 91.7 19C90.5 17.8 88.4 17.8 87.3 19C87 19.4 86.8 19.8 86.7 20.3C85.2 19.3 83.6 20.1 82.7 21C81.6 22.2 81.8 24 83.4 25.6C85 27.1 87.5 27.7 89.6 26.5C89.7 26.5 89.8 26.4 89.8 26.3C90.1 26 90 25.6 89.7 25.3C89.5 25 89.1 25 88.7 25.2Z" fill="#1A1A1A"/>
<path fill-rule="evenodd" clip-rule="evenodd" d="M98.6 27.8C98.4 27.5 97.9 27.3 97.2 27.5L94.6 28.3C93.7 28.5 92.7 28.4 92.3 27.8C91.9 27.3 92 26.9 92.3 26.7C92.4 26.6 92.5 26.6 92.7 26.5L95.4 25.7C95.6 25.6 95.7 25.6 95.8 25.5C96.2 25.2 96.3 24.7 96 24.3C95.8 24 95.3 23.8 94.6 24L91.7 24.9C91.4 25 91.1 25.1 90.9 25.3C89.9 26 89.8 27.3 90.7 28.4C90.9 28.7 91.3 29 91.7 29.2L88.9 30C88.7 30.1 88.6 30.1 88.5 30.2C88.1 30.5 88 31 88.3 31.4C88.5 31.7 89 31.9 89.7 31.7L98 29.2C98.2 29.1 98.3 29.1 98.4 29C98.9 28.7 98.9 28.2 98.6 27.8Z" fill="#1A1A1A"/>
<path fill-rule="evenodd" clip-rule="evenodd" d="M102.9 36.4L100.2 31.2C99.9 30.6 99.4 30.5 99 30.7C98.7 30.9 98.5 31.3 98.7 31.6L99.6 33.3L91.7 34.4C91.6 34.4 91.5 34.5 91.4 34.5C91 34.7 90.9 35.3 91.1 35.7C91.3 36.1 91.7 36.3 92.1 36.3L100.5 35.1L101.4 36.8C101.7 37.4 102.2 37.5 102.5 37.3C102.9 37.2 103.1 36.8 102.9 36.4Z" fill="#1A1A1A"/>
<path fill-rule="evenodd" clip-rule="evenodd" d="M106.5 47.7C106.4 47.3 106 46.9 105.3 46.9L99.4 46.5C99.3 46.5 99.3 46.5 99.2 46.5C98.4 46.5 97.8 46 97.6 45.3C97.7 45.3 97.7 45.3 97.7 45.3L99.7 45.4C100 45.4 100.3 45.4 100.5 45.3C101.9 44.9 102.6 43.7 102.2 42.2C102.1 41.9 102 41.7 101.9 41.4L103.4 41.5C103.6 41.5 103.7 41.5 103.9 41.4C104.4 41.3 104.6 40.8 104.5 40.4C104.4 40 104 39.7 103.3 39.6L99.2 39.3H99L96.9 39.2C96.5 39.2 96.1 39.2 95.8 39.3C94.3 39.7 93.8 41.2 94.2 42.6C94.4 43.5 94.9 44.3 96 44.8C96 45 96.1 45.3 96.1 45.5C96.2 45.8 96.3 46 96.4 46.2C96.3 46.2 96.2 46.2 96.1 46.2C95.6 46.3 95.4 46.8 95.5 47.2C95.6 47.6 96 47.9 96.7 48L105.3 48.5C105.5 48.5 105.6 48.5 105.8 48.4C106.4 48.6 106.6 48.1 106.5 47.7ZM99.7 43.6L98.7 43.5C98.7 43.4 98.7 43.2 98.7 43.1C98.5 42.5 98 42.2 97.4 42.4C97.1 42.5 96.9 42.7 96.6 43.2C96.2 43 96 42.7 95.9 42.3C95.8 41.8 96 41.3 96.5 41.1C96.6 41.1 96.8 41 96.9 41.1L99.4 41.3C100.2 41.4 100.7 41.9 100.8 42.3C101 42.9 100.7 43.3 100.2 43.5C99.9 43.6 99.8 43.6 99.7 43.6Z" fill="#1A1A1A"/>
<path fill-rule="evenodd" clip-rule="evenodd" d="M1.10001 42.1C1.00001 42.4 1.00001 42.9 1.10001 43.2C0.700008 43.1 0.400005 43.5 0.300005 43.9C0.200005 44.3 0.299996 44.8 0.899996 45.2L8.7 50.1C8.8 50.2 9.00001 50.2 9.10001 50.3C9.60001 50.4 10 50.1 10.1 49.6C10.2 49.2 10.1 48.8 9.5 48.4L7.4 47.1C7.9 46.8 8.3 46.2 8.4 45.6C8.7 44.5 8.2 43 6.9 42.2L4.5 40.7C4.2 40.5 3.9 40.4 3.7 40.3C2.4 39.9 1.40001 40.8 1.10001 42.1ZM4.2 42.6L6.10001 43.8C6.60001 44.1 6.8 44.6 6.7 45.1C6.6 45.6 6.10001 45.9 5.60001 45.8C5.50001 45.8 5.4 45.7 5.4 45.7L3.2 44.3C2.6 43.9 2.50001 43.4 2.60001 42.9C2.70001 42.4 3.1 42.2 3.7 42.3C3.8 42.4 4 42.4 4.2 42.6Z" fill="#00CCFF"/>
<path fill-rule="evenodd" clip-rule="evenodd" d="M6.60001 28.8C6.40001 29.2 6.5 29.7 7 30.2L11.2 34.3C11.2 34.4 11.3 34.4 11.3 34.4C11.9 34.9 12.1 35.7 11.8 36.4L11.7 36.3L10.3 34.9C10.1 34.7 9.90001 34.5 9.60001 34.4C8.30001 33.8 7 34.3 6.3 35.7C6.2 36 6.1 36.2 6 36.5L4.89999 35.5C4.79999 35.4 4.6 35.3 4.5 35.2C4 35 3.49999 35.2 3.39999 35.6C3.19999 36 3.3 36.5 3.8 36.9L6.8 39.8L6.89999 39.9L8.39999 41.3C8.69999 41.6 9 41.8 9.3 41.9C10.7 42.5 12 41.7 12.6 40.4C13 39.6 13.1 38.6 12.7 37.5C12.8 37.3 13 37.1 13.1 36.9C13.2 36.6 13.3 36.4 13.3 36.1C13.4 36.2 13.5 36.2 13.6 36.3C14.1 36.5 14.6 36.3 14.7 35.9C14.9 35.5 14.8 35 14.3 34.5L8.10001 28.5C8.00001 28.4 7.8 28.3 7.7 28.2C7.2 28.2 6.80001 28.4 6.60001 28.8ZM9.10001 36.3L9.89999 37C9.79999 37.1 9.7 37.2 9.7 37.3C9.5 37.8 9.7 38.5 10.2 38.7C10.5 38.9 10.8 38.8 11.4 38.6C11.6 39 11.6 39.4 11.4 39.7C11.2 40.2 10.7 40.4 10.2 40.2C10.1 40.1 10 40.1 9.8 39.9L8 38.1C7.4 37.5 7.40001 36.9 7.60001 36.4C7.80001 35.9 8.3 35.7 8.8 35.9C8.9 36.2 9.00001 36.2 9.10001 36.3Z" fill="#00CCFF"/>
<path fill-rule="evenodd" clip-rule="evenodd" d="M18.3 24C18.1 24.2 18 24.6 18.2 24.8C18.6 25.5 18.7 26.1 18.3 26.7C18.2 26.2 17.8 25.6 17.4 25.2C15.9 24 14.1 24.2 13 25.6C12.1 26.7 13.5 27.8 14.4 26.7C14.8 26.2 15.5 26.1 16.2 26.7C16.4 26.8 16.5 27.1 16.6 27.3C16 27.4 15.4 27.7 14.8 28.3C14.6 28.6 14.4 28.9 14.3 29.2L11.6 24.9L13.3 22.7C13.7 22.2 13.6 21.7 13.3 21.5C13 21.3 12.6 21.3 12.3 21.6L8.9 25.9C8.5 26.4 8.6 26.9 8.9 27.2C9.2 27.4 9.6 27.4 9.9 27.1L10.3 26.6L14.6 33.4C14.7 33.5 14.7 33.6 14.8 33.7C15.2 34 15.7 33.8 16 33.5C16.3 33.2 16.3 32.7 16.1 32.3C16.8 32.3 17.6 31.8 18.1 31.1C18.7 30.4 19 29.4 18.9 28.4C19.1 28.3 19.3 28.1 19.5 27.9C20.4 26.8 20.3 25.3 19.4 24.1L19.3 24C18.9 23.5 18.5 23.7 18.3 24ZM16.8 30.1C16.5 30.4 16.2 30.5 16 30.3L15.9 30.2C15.7 29.9 15.7 29.6 16 29.2C16.3 28.8 16.7 28.7 17.2 28.7C17.3 29.3 17.1 29.8 16.8 30.1Z" fill="#00CCFF"/>
<path fill-rule="evenodd" clip-rule="evenodd" d="M24.1 18.8C24.7 20.3 24.8 21.5 24.2 22C24 22.2 23.7 22.2 23.5 22C23.4 21.9 23.3 21.7 23.2 21.5L20.4 15.1C20.3 14.9 20.2 14.7 20.1 14.6C19.7 14.2 19.2 14.3 18.9 14.6C18.6 14.9 18.4 15.5 18.6 16C18 15.9 17.3 16.3 16.9 16.6C16 17.4 15.7 18.7 16.1 19.8L18.4 25.2C18.5 25.5 18.7 25.8 18.9 26C19.8 26.9 21.1 26.9 22.1 26C22.6 25.5 23 24.8 23 23.9C23.7 24.1 24.4 23.8 25 23.2C26.3 22 26.2 20.1 25.2 18C25.2 17.9 25.1 17.8 25 17.8C24.7 17.5 24.3 17.6 24 17.8C24 18.1 23.9 18.4 24.1 18.8ZM21.3 24.4C21 24.7 20.6 24.7 20.3 24.4C20.2 24.3 20.1 24.1 20 24L18 19.4C17.8 18.8 17.8 18.3 18.2 18C18.6 17.6 19.3 17.6 19.6 18C19.7 18.1 19.7 18.1 19.7 18.2L21.4 22.1C21.9 23.4 21.7 24 21.3 24.4Z" fill="#00CCFF"/>
<path fill-rule="evenodd" clip-rule="evenodd" d="M83.4 15.8L80 18.7C79.8 18.9 79.5 19.2 79.4 19.4C78.8 20.4 79.3 21.5 80.3 22.1C81.4 22.8 82.8 22.7 84.7 21.1C84.8 21 84.8 21 84.9 20.9C85.1 20.5 84.9 20.1 84.6 20C84.3 19.8 84 19.9 83.7 20.1C82.6 21.1 81.8 21.2 81.3 20.9C81.1 20.8 81 20.6 81.2 20.4C81.3 20.3 81.3 20.2 81.5 20.1L85.8 16.5C86 16.3 86.2 16.1 86.4 15.8C87 14.8 86.7 13.7 85.6 13.1C85 12.7 84.1 12.6 83.3 12.8C83.2 12 82.8 11.5 82.2 11.1C80.7 10.3 79.1 10.4 77.7 11.7L74 15C73.3 15.6 72.7 15.9 72.3 15.7C71.6 15.3 73 14.3 73.1 14.2C73.2 14.1 73.2 14.1 73.2 14C73.4 13.7 73.2 13.3 72.9 13.1C72.6 12.9 72.3 12.9 72 13.2C70.3 14.6 70.1 16.2 71.6 17C72.9 17.8 74 17.5 75.3 16.3L78.8 13.3C79.7 12.6 80.4 12.3 80.8 12.6C81.3 12.9 81.2 13.4 80.5 14.1L75.8 18.1C75.7 18.2 75.6 18.3 75.5 18.4C75.2 18.8 75.5 19.3 75.9 19.5C76.3 19.7 76.8 19.7 77.2 19.3L82.1 15.2C83 14.5 83.7 14.2 84.1 14.4C84.3 14.7 84.2 15.2 83.4 15.8Z" fill="#00CCFF"/>
<path fill-rule="evenodd" clip-rule="evenodd" d="M89.2 25.7C87.7 26.5 86 25.9 85 24.9C84.2 24.1 84.2 23.3 84.7 22.7C85.4 21.9 86.3 21.9 87.2 22.7C87.3 23.2 87.5 23.5 87.7 23.7C88.2 24.2 88.9 24 89.3 23.6C89.6 23.2 89.7 22.7 89.3 22.2C88.8 21.7 88.8 21.1 89.2 20.7C89.7 20.1 90.5 20 91 20.6C91.3 20.9 91.4 21.3 91.2 21.6C90.9 22.2 91 22.6 91.3 22.9C91.6 23.2 92.1 23.3 92.5 22.9C93.4 22 93.2 20.5 92.2 19.5C91 18.3 88.9 18.3 87.8 19.5C87.5 19.9 87.3 20.3 87.2 20.8C85.7 19.8 84.1 20.6 83.2 21.5C82.1 22.7 82.3 24.5 83.9 26.1C85.5 27.6 88 28.2 90.1 27C90.2 27 90.3 26.9 90.3 26.8C90.6 26.5 90.5 26.1 90.2 25.8C90 25.5 89.6 25.4 89.2 25.7Z" fill="#00CCFF"/>
<path fill-rule="evenodd" clip-rule="evenodd" d="M99 28.3C98.8 28 98.3 27.8 97.6 28L95 28.8C94.1 29 93.1 28.9 92.7 28.3C92.3 27.8 92.4 27.4 92.7 27.2C92.8 27.1 92.9 27.1 93.1 27L95.8 26.2C96 26.1 96.1 26.1 96.2 26C96.6 25.7 96.7 25.2 96.4 24.8C96.2 24.5 95.7 24.3 95 24.5L92.1 25.4C91.8 25.5 91.5 25.6 91.3 25.8C90.3 26.5 90.2 27.8 91.1 28.9C91.3 29.2 91.7 29.5 92.1 29.7L89.3 30.5C89.1 30.6 89 30.6 88.9 30.7C88.5 31 88.4 31.5 88.7 31.9C88.9 32.2 89.4 32.4 90.1 32.2L98.4 29.7C98.6 29.6 98.7 29.6 98.8 29.5C99.2 29.1 99.3 28.6 99 28.3Z" fill="#00CCFF"/>
<path fill-rule="evenodd" clip-rule="evenodd" d="M103.2 37L100.5 31.8C100.2 31.2 99.7 31.1 99.3 31.3C99 31.5 98.8 31.9 99 32.2L99.9 33.9L92 35C91.9 35 91.8 35.1 91.7 35.1C91.3 35.3 91.2 35.9 91.4 36.3C91.6 36.7 92 36.9 92.4 36.9L100.8 35.7L101.7 37.4C102 38 102.5 38.1 102.8 37.9C103.1 37.8 103.3 37.4 103.2 37Z" fill="#00CCFF"/>
<path fill-rule="evenodd" clip-rule="evenodd" d="M106.6 48.3C106.5 47.9 106.1 47.5 105.4 47.5L99.5 47.1C99.4 47.1 99.4 47.1 99.3 47.1C98.5 47.1 97.9 46.6 97.6 45.9C97.7 45.9 97.7 45.9 97.7 45.9L99.7 46C100 46 100.3 46 100.5 45.9C101.9 45.5 102.6 44.3 102.2 42.8C102.1 42.5 102 42.3 101.9 42L103.4 42.1C103.6 42.1 103.7 42.1 103.9 42C104.4 41.9 104.6 41.4 104.5 41C104.4 40.6 104 40.3 103.3 40.2L99.2 39.9H99L97 40C96.6 40 96.2 40 95.9 40.1C94.4 40.5 93.9 42 94.3 43.4C94.5 44.3 95 45.1 96.1 45.6C96.1 45.8 96.2 46.1 96.2 46.3C96.3 46.6 96.4 46.8 96.5 47C96.4 47 96.3 47 96.2 47C95.7 47.1 95.5 47.6 95.6 48C95.7 48.4 96.1 48.7 96.8 48.8L105.4 49.3C105.6 49.3 105.7 49.3 105.9 49.2C106.5 49.2 106.7 48.7 106.6 48.3ZM99.8 44.2L98.8 44.1C98.8 44 98.8 43.8 98.8 43.7C98.6 43.1 98.1 42.8 97.5 43C97.2 43.1 97 43.3 96.7 43.8C96.3 43.6 96.1 43.3 96 42.9C95.9 42.4 96.1 41.9 96.6 41.7C96.7 41.7 96.9 41.6 97 41.7L99.5 41.9C100.3 42 100.8 42.5 100.9 42.9C101.1 43.5 100.8 43.9 100.3 44.1C100.1 44.2 99.9 44.2 99.8 44.2Z" fill="#00CCFF"/>
<path fill-rule="evenodd" clip-rule="evenodd" d="M38.6 8.20001L38.7 12.7C38.7 13 38.8 13.4 38.9 13.6C39.3 14.7 40.5 15 41.5 14.6C42.7 14.1 43.6 13 43.5 10.6C43.5 10.5 43.5 10.4 43.5 10.3C43.3 9.90001 42.9 9.80001 42.6 9.90001C42.3 10 42.1 10.3 42.1 10.7C42.1 12.2 41.7 12.9 41.2 13.1C41 13.2 40.8 13.1 40.7 12.9C40.7 12.8 40.6 12.7 40.6 12.5L40.5 6.90001C40.5 6.60001 40.5 6.40001 40.3 6.00001C39.9 4.90001 38.8 4.50001 37.7 4.90001C37 5.20001 36.3 5.70001 36 6.50001C35.4 6.00001 34.7 6.10001 34 6.30001C32.4 6.90001 31.5 8.20001 31.6 10.2L31.8 15.1C31.8 16.1 31.6 16.7 31.3 16.8C30.6 17.1 30.7 15.4 30.6 15.3C30.6 15.2 30.6 15.1 30.6 15.1C30.5 14.8 30.1 14.7 29.7 14.8C29.4 14.9 29.2 15.2 29.2 15.5C29.2 17.7 30.3 18.8 31.9 18.2C33.3 17.7 33.8 16.6 33.7 14.9L33.6 10.3C33.6 9.20001 33.9 8.50001 34.3 8.30001C34.9 8.10001 35.2 8.50001 35.2 9.50001L35.3 15.6C35.3 15.8 35.3 15.9 35.4 16.1C35.6 16.6 36.1 16.7 36.5 16.5C36.9 16.3 37.2 16 37.2 15.4L37.1 9.00001C37.1 7.90001 37.3 7.20001 37.8 7.00001C38.2 6.80001 38.5 7.20001 38.6 8.20001Z" fill="#FFCC00"/>
<path fill-rule="evenodd" clip-rule="evenodd" d="M50.3 9.30001C50.1 10.1 49.6 10.6 48.9 10.8C48.9 10.7 48.9 10.7 48.9 10.7L49.9 6.00001C50 5.70001 50 5.40001 49.9 5.20001C49.7 3.80001 48.2 2.90001 46.7 3.10001C45.5 3.30001 44.2 4.00001 43.8 5.80001L42.8 10.6C42.7 11 42.7 11.4 42.7 11.7C42.9 13.2 44.3 13.9 45.7 13.7C46.6 13.6 47.5 13.2 48.1 12.2C48.3 12.2 48.6 12.2 48.8 12.2C50.3 12 51.4 10.9 51.6 9.50001C51.6 9.40001 51.6 9.30001 51.6 9.20001C51.5 8.70001 51.2 8.60001 50.8 8.60001C50.7 8.70001 50.3 9.00001 50.3 9.30001ZM45.7 12.2C45.2 12.3 44.7 12 44.6 11.4C44.6 11.3 44.6 11.1 44.6 11L45.7 5.90001C45.9 5.10001 46.4 4.70001 46.9 4.60001C47.4 4.50001 47.9 4.80001 48 5.40001C48 5.50001 48 5.60001 48 5.80001L47.2 9.60001C47.1 9.60001 46.9 9.60001 46.8 9.60001C46.2 9.70001 45.8 10.2 45.9 10.8C45.9 11.2 46.1 11.4 46.6 11.8C46.4 11.9 46.1 12.2 45.7 12.2Z" fill="#FFCC00"/>
<path fill-rule="evenodd" clip-rule="evenodd" d="M57.8 9.50001C57.2 11.1 55.5 11.8 54.1 11.7C53 11.7 52.4 11.1 52.4 10.2C52.4 9.10001 53.1 8.60001 54.3 8.60001C54.7 8.90001 55 9.00001 55.3 9.00001C56 9.00001 56.4 8.40001 56.5 7.90001C56.5 7.40001 56.2 6.90001 55.6 6.90001C54.9 6.90001 54.5 6.40001 54.5 5.80001C54.5 5.00001 55 4.40001 55.8 4.50001C56.2 4.50001 56.5 4.80001 56.6 5.10001C56.7 5.70001 57.1 6.00001 57.5 6.00001C57.9 6.00001 58.3 5.70001 58.4 5.20001C58.5 3.90001 57.4 2.90001 55.9 2.90001C54.2 2.80001 52.6 4.20001 52.6 5.80001C52.6 6.30001 52.7 6.80001 53 7.10001C51.2 7.40001 50.5 9.00001 50.5 10.3C50.4 11.9 51.8 13.2 54 13.2C56.2 13.3 58.5 12.1 59.2 9.80001C59.2 9.70001 59.3 9.60001 59.3 9.50001C59.3 9.10001 59 8.80001 58.6 8.80001C58.2 8.90001 57.9 9.10001 57.8 9.50001Z" fill="#FFCC00"/>
<path fill-rule="evenodd" clip-rule="evenodd" d="M67.4 2.09999C67.6 1.69999 67.3 1.29999 66.9 1.19999C66.6 1.19999 66.4 1.29999 66.2 1.59999C65.9 2.09999 65.5 2.39999 65.2 2.29999C64.9 2.19999 64.8 1.99999 64.8 1.79999C64.8 1.79999 64.8 1.69999 64.9 1.69999C65.1 1.29999 64.8 0.899988 64.4 0.799988C64.1 0.799988 63.9 0.899988 63.7 1.19999C63.6 1.29999 63.6 1.39999 63.6 1.59999C63.4 2.59999 64 3.39999 65 3.59999C65.9 3.69999 66.9 3.09999 67.4 2.09999ZM61.9 11C61.5 11.8 60.6 12.3 59.9 12.2C59.5 12.1 59.3 11.8 59.4 11.4C59.4 11.3 59.5 11.2 59.5 11L62.9 5.09999C63 4.89999 63 4.79999 63.1 4.59999C63.2 4.09999 62.9 3.69999 62.4 3.59999C62 3.49999 61.5 3.69999 61.2 4.29999L57.7 10.4C57.5 10.7 57.4 11 57.4 11.2C57.2 12.4 58 13.4 59.2 13.6C60 13.8 60.9 13.4 61.6 13C61.9 13.7 62.5 14.2 63.4 14.4C65.2 14.7 66.6 13.4 67.7 11.4C67.8 11.3 67.8 11.2 67.8 11.1C67.9 10.7 67.6 10.4 67.2 10.4C66.9 10.3 66.5 10.5 66.3 10.8C65.5 12.2 64.5 13 63.8 12.9C63.5 12.8 63.3 12.6 63.4 12.3C63.4 12.2 63.5 12.1 63.5 12L67.1 5.79999C67.2 5.59999 67.2 5.49999 67.3 5.29999C67.4 4.69999 67.1 4.39999 66.6 4.29999C66.2 4.19999 65.7 4.39999 65.4 4.99999L61.9 11Z" fill="#FFCC00"/>
</svg>
